<svg width="24" height="8" viewBox="-4.5 0 24 8" fill="none" xmlns="http://www.w3.org/2000/svg">
<path id="Union" fill-rule="evenodd" clip-rule="evenodd" d="M10.6623 7.08875C10.8123 7.23875 11.0023 7.30875 11.1923 7.30875C11.3823 7.30875 11.5723 7.23875 11.7223 7.08875L14.2823 4.52875C14.5723 4.23875 14.5723 3.75875 14.2823 3.46875L11.7223 0.908754C11.4323 0.618754 10.9523 0.618754 10.6623 0.908754C10.3723 1.19875 10.3723 1.67875 10.6623 1.96875L12.6923 3.99875L10.6623 6.02875C10.3723 6.31875 10.3723 6.79875 10.6623 7.08875ZM1.25 4.75H11.42C11.83 4.75 12.17 4.41 12.17 4C12.17 3.59 11.83 3.25 11.42 3.25H1.25C0.84 3.25 0.5 3.59 0.5 4C0.5 4.41 0.84 4.75 1.25 4.75Z" fill="#E51848"/>
</svg>
