<svg width="24" height="8" viewBox="-5 0 24 8" fill="none" xmlns="http://www.w3.org/2000/svg">
<path id="Union" fill-rule="evenodd" clip-rule="evenodd" d="M10.1623 6.97515C10.3123 7.12515 10.5023 7.19515 10.6923 7.19515C10.8823 7.19515 11.0723 7.12515 11.2223 6.97515L13.7823 4.41515C14.0723 4.12515 14.0723 3.64515 13.7823 3.35515L11.2223 0.795152C10.9323 0.505152 10.4523 0.505152 10.1623 0.795152C9.87232 1.08515 9.87232 1.56515 10.1623 1.85515L12.1923 3.88515L10.1623 5.91515C9.87232 6.20515 9.87232 6.68515 10.1623 6.97515ZM0.75 4.6364H10.92C11.33 4.6364 11.67 4.2964 11.67 3.8864C11.67 3.4764 11.33 3.1364 10.92 3.1364H0.75C0.34 3.1364 0 3.4764 0 3.8864C0 4.2964 0.34 4.6364 0.75 4.6364Z" fill="#2D95D3"/>
</svg>
