<svg width="25" height="25" viewBox="0 0 25 25" fill="none" xmlns="http://www.w3.org/2000/svg">
<g id="vuesax/outline/arrow-right">
<g id="arrow-right">
<path id="Vector" d="M9.40961 21.17C9.21961 21.17 9.02961 21.1 8.87961 20.95C8.58961 20.66 8.58961 20.18 8.87961 19.89L15.3996 13.37C15.8796 12.89 15.8796 12.11 15.3996 11.63L8.87961 5.11002C8.58961 4.82002 8.58961 4.34002 8.87961 4.05002C9.16961 3.76002 9.64961 3.76002 9.93961 4.05002L16.4596 10.57C16.9696 11.08 17.2596 11.77 17.2596 12.5C17.2596 13.23 16.9796 13.92 16.4596 14.43L9.93961 20.95C9.78961 21.09 9.59961 21.17 9.40961 21.17Z" fill="#E51848"/>
</g>
</g>
</svg>
