<svg width="33" height="32" viewBox="0 0 33 32" fill="none" xmlns="http://www.w3.org/2000/svg">
<rect x="0.5" width="32" height="32" rx="3" fill="#2D95D3"/>
<path d="M28.4971 16.4922C28.4971 23.1079 23.1136 28.4901 16.4979 28.4901C9.88217 28.4901 4.5 23.1093 4.5 16.4922C4.5 9.87511 9.8808 4.49295 16.4979 4.49295C23.115 4.49295 28.4971 9.87648 28.4971 16.4922Z" fill="#FF9E12"/>
<path d="M27.125 15.5092C27.125 15.6372 27.1236 15.7624 27.1168 15.889C26.948 20.7007 23.5632 24.7064 19.051 25.8201C18.2327 26.023 17.3804 26.1305 16.5022 26.1305C15.6907 26.1305 14.8997 26.038 14.14 25.865C13.3516 25.6867 12.5973 25.4185 11.8852 25.0726C10.0867 24.2026 8.57126 22.8397 7.51198 21.1596C7.19611 20.6585 6.91971 20.1275 6.69098 19.5747C6.16814 18.3207 5.88086 16.947 5.88086 15.5078C5.88086 15.1715 5.8972 14.8379 5.92851 14.5098C6.33289 10.1883 9.33917 6.60879 13.3598 5.3589C14.3524 5.05255 15.4075 4.88508 16.5022 4.88508C17.1748 4.88508 17.8325 4.94771 18.471 5.07025C19.0646 5.18053 19.6406 5.3412 20.1934 5.54543C22.0764 6.24662 23.7102 7.4652 24.9165 9.02961C25.4026 9.65864 25.8192 10.3421 26.1528 11.0719C26.7778 12.4226 27.1263 13.9257 27.1263 15.5078L27.125 15.5092Z" fill="#FFCD69"/>
<path d="M16.5018 3.50992C9.88607 3.50992 4.50391 8.89344 4.50391 15.5092C4.50391 22.1249 9.88471 27.507 16.5018 27.507C23.1189 27.507 28.501 22.1262 28.501 15.5092C28.501 8.89208 23.1175 3.50992 16.5018 3.50992ZM16.5018 26.1305C10.6444 26.1305 5.88042 21.3665 5.88042 15.5092C5.88042 9.65182 10.6444 4.88643 16.5018 4.88643C22.3591 4.88643 27.1245 9.65318 27.1245 15.5092C27.1245 21.3651 22.3578 26.1305 16.5018 26.1305Z" fill="#FFB93E"/>
<path d="M21.0471 17.4289C20.9055 17.5665 20.8402 17.7666 20.8742 17.9613L21.6367 22.3972C21.7197 22.8887 21.2037 23.2645 20.7639 23.0317L16.7773 20.9363C16.6031 20.8437 16.3947 20.8437 16.2191 20.9363L12.2325 23.0317C11.7927 23.2631 11.2767 22.8887 11.3625 22.3972L12.1236 17.9613C12.1576 17.7666 12.0923 17.5665 11.9507 17.4289L8.72791 14.2865C8.36983 13.938 8.56725 13.3334 9.06013 13.2626L13.5164 12.6145C13.7125 12.5873 13.8827 12.4634 13.9685 12.2864L15.9618 8.24945C16.1823 7.80286 16.8182 7.80286 17.0387 8.24945L19.032 12.2864C19.1205 12.4634 19.2894 12.5873 19.4841 12.6145L23.9404 13.2626C24.4333 13.3334 24.6307 13.9393 24.274 14.2865L21.0485 17.4289H21.0471Z" fill="#F7A41E"/>
<g style="mix-blend-mode:soft-light" opacity="0.49">
<path d="M24.9104 9.03096L11.8791 25.0726C10.0805 24.2026 8.56514 22.8397 7.50586 21.1596L20.1872 5.54542C22.0702 6.24661 23.7041 7.46519 24.9104 9.0296V9.03096Z" fill="#FFDFAB"/>
</g>
<g style="mix-blend-mode:soft-light" opacity="0.49">
<path d="M18.4665 5.07023L6.68512 19.5747C6.16228 18.3207 5.875 16.9469 5.875 15.5078C5.875 15.1715 5.89134 14.8379 5.92265 14.5098L13.3539 5.35888C14.3465 5.05253 15.4017 4.88507 16.4964 4.88507C17.169 4.88507 17.8266 4.9477 18.4652 5.07023H18.4665Z" fill="#FFDFAB"/>
</g>
<g style="mix-blend-mode:soft-light" opacity="0.49">
<path d="M27.1217 15.5092C27.1217 15.6371 27.1204 15.7624 27.1136 15.889L19.0478 25.8201C18.2295 26.023 17.3772 26.1305 16.499 26.1305C15.6875 26.1305 14.8965 26.0379 14.1367 25.865L26.1496 11.0733C26.7745 12.4239 27.1231 13.927 27.1231 15.5092H27.1217Z" fill="#FFDFAB"/>
</g>
<g style="mix-blend-mode:overlay" opacity="0.54">
<path d="M13.2328 6.05192C8.34757 7.8192 5.53872 12.8242 6.58166 17.9218C6.77363 18.8599 8.20869 18.4624 8.01672 17.5256C7.14533 13.2694 9.54028 8.96561 13.6276 7.48698C14.5222 7.16294 14.1355 5.72515 13.2314 6.05192H13.2328Z" fill="white"/>
</g>
<g style="mix-blend-mode:overlay" opacity="0.54">
<path d="M8.25014 19.3011C7.29298 19.3011 7.29026 20.7892 8.25014 20.7892C9.21003 20.7892 9.21003 19.3011 8.25014 19.3011Z" fill="white"/>
</g>
</svg>
