<svg width="31" height="26" viewBox="0 0 31 26" fill="none" xmlns="http://www.w3.org/2000/svg">
<g id="Group 1">
<path id="icon (Stroke)" fill-rule="evenodd" clip-rule="evenodd" d="M11.1342 4.13597C10.8879 3.58948 10.5675 3.11095 10.2157 2.75679C10.2078 2.75097 10.1784 2.72994 10.1155 2.69468C10.0373 2.65091 9.93049 2.59849 9.79419 2.53825C9.5221 2.418 9.15861 2.27799 8.72645 2.12544C7.8637 1.82089 6.75498 1.47605 5.61656 1.15121C4.47865 0.826506 3.31791 0.523721 2.35218 0.302608C1.72763 0.159611 1.20819 0.0565455 0.833582 0V1.41722C0.904892 1.42997 0.978952 1.44418 1.05437 1.45926C1.35636 1.51963 1.73226 1.60507 2.15244 1.7066C2.99361 1.90987 4.0277 2.18137 5.03421 2.45579C6.04115 2.73032 7.02393 3.0087 7.76339 3.22618C8.1327 3.33479 8.44369 3.42891 8.66746 3.5001C8.77867 3.53549 8.87252 3.56653 8.94262 3.59161C8.97689 3.60387 9.01166 3.6169 9.04221 3.62983C9.057 3.63609 9.0777 3.64522 9.09974 3.65671L9.10083 3.65727C9.11121 3.66256 9.17497 3.69504 9.23428 3.75476C9.52041 4.04286 9.76384 4.45091 9.93568 4.87849C10.1063 5.30296 10.2219 5.78544 10.2249 6.24718L10.2345 6.38311L11.4805 15.1647L10.9348 15.1933C9.23246 15.2822 7.92227 16.6059 7.83504 18.2585L7.8336 19.4943C7.94123 21.2176 9.25152 22.5198 10.868 22.6191L11.4791 22.62L11.5962 22.9541C12.0207 24.1653 13.1662 25.0289 14.5079 25.0289C15.8491 25.0289 16.9942 24.1659 17.4191 22.9554L17.5365 22.621H21.0449L21.1623 22.9554C21.5873 24.1659 22.7324 25.0289 24.0736 25.0289C25.7753 25.0289 27.1607 23.6389 27.1607 21.917C27.1607 20.1952 25.7753 18.8052 24.0736 18.8052C22.7324 18.8052 21.5873 19.6682 21.1623 20.8787L21.0449 21.2131H17.5365L17.4191 20.8787C16.9942 19.6682 15.8491 18.8052 14.5079 18.8052C13.1666 18.8052 12.0215 19.6682 11.5966 20.8787L11.4792 21.2131H10.9056L10.8906 21.2122C10.0086 21.1589 9.27865 20.3882 9.22375 19.4668L9.22284 19.4514L9.22503 18.2918L9.22568 18.2794C9.2717 17.388 10.0303 16.6466 10.955 16.6004L10.9676 16.5997L13.3535 16.6003L13.3706 16.6012H25.3311L25.4333 16.5686C26.1947 16.3253 26.8056 15.7476 27.0951 14.9978L27.1037 14.9754L27.6498 13.8863C28.0731 13.0415 28.4964 12.1952 28.9088 11.3685C29.9232 9.33506 30.5515 8.06187 30.6865 7.75873C30.9634 7.1367 30.8229 6.62654 30.4834 6.2461C30.1229 5.84199 29.52 5.57315 28.8962 5.56205L28.8827 5.56181L12.184 4.36083C12.0165 4.3617 11.8563 4.38137 11.7051 4.41713L11.3037 4.51209L11.1342 4.13597ZM12.8052 14.5943C12.8447 14.8733 13.0455 15.1001 13.3123 15.1748L13.3785 15.1933H25.1217L25.234 15.1317C25.4955 14.9884 25.6991 14.7545 25.8046 14.4708L25.8517 14.3606L26.4086 13.2501C26.8315 12.4059 27.2546 11.5601 27.6493 10.7688L27.6666 10.7341C28.3579 9.34852 28.8868 8.28125 29.1785 7.68242L29.5021 7.01795L11.5466 5.72327L12.8052 14.5943ZM25.7693 21.917C25.7693 20.9792 25.0133 20.2131 24.0736 20.2131C23.1338 20.2131 22.3779 20.9792 22.3779 21.917C22.3779 22.8549 23.1338 23.621 24.0736 23.621C25.0133 23.621 25.7693 22.8549 25.7693 21.917ZM16.2036 21.917C16.2036 20.9792 15.4476 20.2131 14.5079 20.2131C13.5681 20.2131 12.8122 20.9792 12.8122 21.917C12.8122 22.8549 13.5681 23.621 14.5079 23.621C15.4476 23.621 16.2036 22.8549 16.2036 21.917Z" fill="white"/>
</g>
</svg>
