<svg width="32" height="27" viewBox="-1 0 32 27" fill="none" xmlns="http://www.w3.org/2000/svg">
<g id="Group 1">
<path id="icon (Stroke)" fill-rule="evenodd" clip-rule="evenodd" d="M19.6993 5.12152C19.9456 4.57503 20.266 4.0965 20.6178 3.74234C20.6257 3.73652 20.6551 3.71549 20.718 3.68023C20.7962 3.63646 20.903 3.58404 21.0393 3.5238C21.3114 3.40355 21.6749 3.26354 22.107 3.11099C22.9698 2.80644 24.0785 2.4616 25.2169 2.13676C26.3548 1.81206 27.5156 1.50927 28.4813 1.28816C29.1059 1.14516 29.6253 1.0421 29.9999 0.98555V2.40277C29.9286 2.41552 29.8545 2.42973 29.7791 2.44481C29.4771 2.50518 29.1012 2.59062 28.6811 2.69215C27.8399 2.89542 26.8058 3.16692 25.7993 3.44134C24.7923 3.71587 23.8096 3.99425 23.0701 4.21173C22.7008 4.32034 22.3898 4.41446 22.166 4.48565C22.0548 4.52104 21.961 4.55208 21.8909 4.57716C21.8566 4.58942 21.8218 4.60245 21.7913 4.61538C21.7765 4.62164 21.7558 4.63077 21.7338 4.64226L21.7327 4.64282C21.7223 4.64811 21.6585 4.68059 21.5992 4.74031C21.3131 5.02841 21.0697 5.43646 20.8978 5.86404C20.7272 6.28851 20.6116 6.77099 20.6085 7.23273L20.599 7.36866L19.353 16.1503L19.8987 16.1788C21.601 16.2677 22.9112 17.5915 22.9985 19.2441L22.9999 20.4799C22.8923 22.2031 21.582 23.5054 19.9655 23.6046L19.3544 23.6056L19.2373 23.9396C18.8128 25.1508 17.6673 26.0144 16.3256 26.0144C14.9844 26.0144 13.8393 25.1514 13.4144 23.9409L13.297 23.6065H9.78855L9.67117 23.9409C9.24624 25.1514 8.10114 26.0144 6.75992 26.0144C5.05816 26.0144 3.67277 24.6245 3.67277 22.9026C3.67277 21.1807 5.05816 19.7907 6.75992 19.7907C8.10114 19.7907 9.24624 20.6537 9.67117 21.8642L9.78855 22.1986H13.297L13.4144 21.8642C13.8393 20.6537 14.9844 19.7907 16.3256 19.7907C17.6668 19.7907 18.812 20.6537 19.2369 21.8642L19.3543 22.1986H19.9279L19.9429 22.1977C20.8249 22.1444 21.5548 21.3738 21.6097 20.4523L21.6107 20.437L21.6085 19.2774L21.6078 19.2649C21.5618 18.3735 20.8032 17.6321 19.8785 17.5859L19.8659 17.5853L17.48 17.5859L17.4629 17.5868H5.50241L5.40016 17.5541C4.63884 17.3109 4.02794 16.7331 3.73842 15.9834L3.72975 15.9609L3.1837 14.8719C2.76041 14.027 2.33714 13.1808 1.9247 12.3541C0.910292 10.3206 0.281985 9.04742 0.147022 8.74428C-0.129909 8.12225 0.01062 7.61209 0.350067 7.23165C0.710628 6.82754 1.31347 6.5587 1.93728 6.5476L1.95078 6.54736L18.6495 5.34638C18.817 5.34725 18.9772 5.36692 19.1284 5.40268L19.5298 5.49764L19.6993 5.12152ZM18.0283 15.5799C17.9888 15.8588 17.788 16.0857 17.5212 16.1604L17.455 16.1789H5.71182L5.5995 16.1173C5.33802 15.9739 5.13442 15.7401 5.02887 15.4563L4.98181 15.3462L4.42492 14.2356C4.00197 13.3914 3.57892 12.5456 3.18419 11.7544L3.16686 11.7197C2.47564 10.3341 1.94666 9.2668 1.65503 8.66797L1.33144 8.0035L19.2869 6.70882L18.0283 15.5799ZM5.0642 22.9026C5.0642 21.9648 5.82017 21.1986 6.75992 21.1986C7.69966 21.1986 8.45563 21.9648 8.45563 22.9026C8.45563 23.8404 7.69966 24.6065 6.75992 24.6065C5.82017 24.6065 5.0642 23.8404 5.0642 22.9026ZM14.6299 22.9026C14.6299 21.9648 15.3859 21.1986 16.3256 21.1986C17.2654 21.1986 18.0213 21.9648 18.0213 22.9026C18.0213 23.8404 17.2654 24.6065 16.3256 24.6065C15.3859 24.6065 14.6299 23.8404 14.6299 22.9026Z" fill="#000"/>
</g>
</svg>
