<svg width="24" height="24" viewBox="0 0 24 24" fill="none" xmlns="http://www.w3.org/2000/svg">
<path d="M22.7908 7.34721L22.7912 7.34688M22.7908 7.34721L22.7912 7.34688M22.7908 7.34721C22.8145 7.37093 23.0067 7.20751 23.2491 6.96031L22.7908 7.34721ZM22.7912 7.34688L22.7924 7.34564L22.7912 7.34688ZM20.9741 4.34288L20.9741 4.34286L20.9782 4.34548C21.3665 4.59255 21.789 4.9696 22.1565 5.36701C22.4554 5.69024 22.7412 6.05222 22.9527 6.4023C22.9716 6.38211 22.9907 6.36148 23.01 6.34044L23.01 6.3404L23.0157 6.33426C23.2656 6.06927 23.3561 5.94414 23.3905 5.87372C23.3969 5.86061 23.3991 5.85347 23.3998 5.8512L23.4002 5.84988L23.4002 5.84955C23.4002 5.84959 23.4002 5.84958 23.4002 5.84949L23.4003 5.8469C23.4003 5.84519 23.4002 5.84226 23.3999 5.83787C23.3991 5.8289 23.3972 5.81402 23.3922 5.79093L23.3893 5.77775L23.387 5.76445C23.3809 5.72882 23.341 5.61426 23.2193 5.42225C23.1062 5.24373 22.9495 5.04021 22.7656 4.83567C22.3876 4.41525 21.9552 4.05697 21.6395 3.90198L21.6307 3.89768L21.6221 3.8931L21.3226 3.73379L21.0368 4.04103C20.9674 4.11674 20.9014 4.18964 20.8408 4.25767C20.8834 4.28556 20.9281 4.31412 20.9741 4.34288ZM23.2521 6.95725C23.3161 6.89195 23.3836 6.82086 23.4523 6.74587C23.9484 6.21971 24.0536 6.00924 23.9785 5.66347C23.8732 5.04711 22.7307 3.76928 21.9039 3.36338L21.1973 2.98754L23.2521 6.95725ZM22.5132 6.82727C22.5099 6.82951 22.5094 6.83001 22.5122 6.82802C22.5125 6.82779 22.5129 6.82754 22.5132 6.82727Z" stroke="#F9F9F9" stroke-width="1.2"/>
<path d="M4.41931 4.58109C3.23167 5.15235 3.03624 5.42295 3.38201 5.94912C3.84804 6.65569 3.54737 7.46748 2.70551 7.81325C2.29961 7.97862 2.17934 7.96358 1.71331 7.72305L1.17211 7.43742L0.811311 7.88842C0.450511 8.33942 -0.000488281 9.55711 -0.000488281 10.1133C-0.000488281 10.2937 0.194945 10.4741 0.585811 10.6245C1.14204 10.8349 1.50284 11.316 1.50284 11.8121C1.50284 12.3082 1.03681 12.9246 0.555744 13.0448C-0.0606215 13.1952 -0.120755 13.6311 0.300178 14.7586C0.736144 15.9312 1.03681 16.1718 1.80351 15.9463C3.02121 15.5855 3.71274 16.2319 3.53234 17.5699C3.45717 18.1712 3.48724 18.3065 3.78791 18.5771C4.17877 18.9379 5.4566 19.449 5.7272 19.3588C5.83244 19.3288 6.02787 18.7876 6.1782 18.1712C6.4488 17.0437 6.95994 15.9312 7.23054 15.9312C7.56127 15.9312 7.32073 15.6456 6.92987 15.5554C6.16317 15.39 4.71997 14.3377 4.31407 13.6462C3.80294 12.7592 3.71274 12.1729 3.90817 11.2108C4.38924 8.89565 6.4488 7.57272 8.73387 8.11392C9.77116 8.36948 10.613 9.21135 11.1693 10.5343L11.5902 11.5114L13.2288 9.94798L14.8825 8.38452L14.657 7.96358C14.3714 7.39232 14.1008 7.33218 13.4694 7.67795C12.7478 8.05378 12.5974 8.03875 12.0412 7.52762C11.515 7.03152 11.4399 6.55045 11.8007 5.85892C12.1013 5.28765 11.9811 5.06215 11.3046 4.82162C11.0039 4.70135 10.4777 4.49089 10.147 4.32552C9.6509 4.10002 9.48553 4.06996 9.21493 4.22029C9.0195 4.32552 8.86917 4.52096 8.86917 4.65625C8.86917 5.10725 8.28287 5.70859 7.8469 5.70859C7.27563 5.70859 6.47887 5.10725 6.34357 4.58109C6.1782 3.94969 5.71217 3.94969 4.41931 4.58109Z" fill="#F9F9F9"/>
<path d="M13.9546 11.0327L13.9536 11.0337C11.6754 13.3119 10.2122 14.7977 9.3401 15.7258C9.02531 16.0607 8.79396 16.3163 8.63133 16.5064C9.25048 16.9761 9.95731 17.6866 10.4413 18.3155L10.7021 18.6517L15.9635 13.4454C15.9635 13.4453 15.9636 13.4452 15.9637 13.4452C17.5427 11.8812 19.002 10.4444 20.0821 9.39072C20.6219 8.86405 21.0682 8.4319 21.3877 8.12704C21.5472 7.97493 21.6772 7.85247 21.7723 7.76514C21.804 7.73605 21.8333 7.70948 21.8595 7.68627C21.8563 7.68052 21.853 7.67462 21.8495 7.66857C21.7817 7.54984 21.6824 7.3953 21.5417 7.18801L21.5412 7.18715C21.2135 6.7025 20.746 6.19155 20.3047 5.80452C20.0844 5.61136 19.8831 5.46006 19.7211 5.36098C19.7084 5.35325 19.6964 5.34608 19.685 5.33944C19.6216 5.40031 19.5467 5.47264 19.4609 5.55596C19.1519 5.8561 18.709 6.29148 18.1645 6.83033C17.0759 7.90768 15.5849 9.39488 13.9546 11.0327ZM22.0581 7.53728C22.058 7.53727 22.0565 7.53822 22.054 7.54018C22.0569 7.53828 22.0582 7.5373 22.0581 7.53728Z" stroke="#F9F9F9" stroke-width="1.2"/>
<path d="M7.47323 18.6132C7.42662 18.814 7.38796 18.9946 7.36123 19.1355C7.39778 19.1592 7.42244 19.1801 7.42704 19.184C7.42736 19.1843 7.42758 19.1844 7.4277 19.1845C7.44545 19.1992 7.46206 19.2142 7.4751 19.2261C7.50189 19.2508 7.53399 19.2817 7.56882 19.3158C7.63875 19.3843 7.73728 19.4828 7.86254 19.6081L7.86552 19.6111L7.87069 19.6162L7.87574 19.6215C7.98756 19.7389 8.10462 19.8381 8.19841 19.9052C8.44072 19.8281 8.79555 19.7261 9.13102 19.6372C9.26111 19.6 9.38543 19.561 9.49798 19.5231C9.44284 19.4419 9.38057 19.3539 9.31266 19.2616C8.99749 18.8335 8.61457 18.3857 8.35433 18.1569C8.11821 17.9517 7.89475 17.7905 7.71233 17.6811C7.62974 17.9721 7.54434 18.307 7.47323 18.6132Z" stroke="#F9F9F9" stroke-width="1.2"/>
</svg>
