<svg width="48" height="24" viewBox="-11.5 0 48 24" fill="none" xmlns="http://www.w3.org/2000/svg">
<g id="vuesax/outline/export">
<g id="export">
<path id="Vector" d="M14.9398 7.25C14.7498 7.25 14.5598 7.18001 14.4098 7.03L12.3798 5L10.3498 7.03C10.0598 7.32 9.57977 7.32 9.28977 7.03C8.99977 6.74001 8.99977 6.26 9.28977 5.97L11.8498 3.41C12.1398 3.12 12.6198 3.12 12.9098 3.41L15.4698 5.97C15.7598 6.26 15.7598 6.74001 15.4698 7.03C15.3198 7.18001 15.1298 7.25 14.9398 7.25Z" fill="white"/>
<path id="Vector_2" d="M12.3799 14.93C11.9699 14.93 11.6299 14.59 11.6299 14.18V4.01001C11.6299 3.60001 11.9699 3.26001 12.3799 3.26001C12.7899 3.26001 13.1299 3.60001 13.1299 4.01001V14.18C13.1299 14.6 12.7899 14.93 12.3799 14.93Z" fill="white"/>
<path id="Vector_3" d="M12.5 20.75C7.35 20.75 3.75 17.15 3.75 12C3.75 11.59 4.09 11.25 4.5 11.25C4.91 11.25 5.25 11.59 5.25 12C5.25 16.27 8.23 19.25 12.5 19.25C16.77 19.25 19.75 16.27 19.75 12C19.75 11.59 20.09 11.25 20.5 11.25C20.91 11.25 21.25 11.59 21.25 12C21.25 17.15 17.65 20.75 12.5 20.75Z" fill="white"/>
</g>
</g>
</svg>
