<svg width="24" height="24" viewBox="-1.5 -1.5 24 24" fill="none" xmlns="http://www.w3.org/2000/svg">
<g id="Hicon / Linear / Filter 3">
<g id="Filter 3">
<path id="Vector" d="M3 6.28012C3 4.68197 4.29556 3.38641 5.89372 3.38641H15.1535C16.7256 3.38641 18 4.66082 18 6.23288C18 7.07017 17.6314 7.865 16.9922 8.40584L14.0586 10.8881C13.1229 11.6798 12.5833 12.8433 12.5833 14.0689V15.5528C12.5833 16.286 12.2325 16.9749 11.6396 17.4061L10.0218 18.5826C9.18039 19.1946 8 18.5935 8 17.5531V13.9693C8 12.8014 7.50981 11.6871 6.64885 10.8979L3.93836 8.41324C3.34044 7.86514 3 7.09125 3 6.28012Z" stroke="white" stroke-width="1.5"/>
</g>
</g>
</svg>
