<svg width="33" height="33" viewBox="0 0 33 33" fill="none" xmlns="http://www.w3.org/2000/svg">
<rect x="0.5" y="0.386414" width="32" height="32" rx="3" fill="black"/>
<path d="M13.7042 9.50114C13.7042 9.50114 18.7817 13.633 13.4365 17.1373C6.44869 21.7194 9.4924 30.3864 15.8701 30.3864C22.2478 30.3864 25.1368 23.5828 23.3672 18.083C21.9871 13.7964 19.2215 11.3402 13.7042 9.50114Z" fill="#EF470C"/>
<path d="M18.8565 18.0586C18.8565 18.0586 17.6641 20.2506 18.8756 22.3956C20.0855 24.5389 18.8878 27.0385 16.635 27.0385C12.4249 27.0385 13.1324 19.2267 18.8565 18.0586Z" fill="#EDCA58"/>
<path d="M11.8157 10.4885C11.8157 10.4885 11.1621 11.6914 11.8261 12.8664C12.4902 14.0432 11.8331 15.413 10.5972 15.413C8.28877 15.413 8.67641 11.1282 11.8157 10.4867V10.4885Z" fill="#EF470C"/>
<path d="M15.8612 7.90367C15.8612 7.90367 14.8095 4.35761 15.8612 2.38641C15.8612 2.38641 12.3151 5.14504 15.8612 7.90367Z" fill="#EF470C"/>
</svg>
