<svg width="25" height="24" viewBox="0 0 25 24" fill="none" xmlns="http://www.w3.org/2000/svg">
<g id="image 5 (Traced)">
<mask id="path-1-inside-1_288_664" fill="white">
<path fill-rule="evenodd" clip-rule="evenodd" d="M11.0694 0.0607598C9.05261 0.326327 7.26514 1.00483 5.66898 2.1107C4.98386 2.58536 4.54032 2.96113 3.91378 3.59781C3.32107 4.20005 2.72085 4.96677 2.26535 5.70352C1.39022 7.11898 0.806567 8.75909 0.589486 10.4126C0.470171 11.3216 0.470171 12.6677 0.589486 13.5767C0.806567 15.2302 1.39022 16.8703 2.26535 18.2858C2.71994 19.021 3.32032 19.7884 3.91378 20.3925C5.62454 22.1343 7.7305 23.2836 10.0877 23.7621C11.0596 23.9594 11.8861 24.0262 12.9177 23.991C14.6738 23.9311 16.2557 23.5311 17.8492 22.744C18.49 22.4275 19.3432 21.8921 19.8839 21.4673C20.8354 20.7196 21.8089 19.672 22.4566 18.6987C23.1211 17.6999 23.7052 16.4598 24.0162 15.3875C24.4052 14.0465 24.5685 12.5506 24.4737 11.1992C24.4146 10.3592 24.2427 9.38268 24.0162 8.6018C23.7052 7.5295 23.1211 6.28935 22.4566 5.29058C21.8089 4.31728 20.8354 3.26966 19.8839 2.52203C19.3432 2.09718 18.49 1.56181 17.8492 1.2453C16.7436 0.699149 15.7227 0.368049 14.4208 0.133319C13.642 -0.00707999 11.8751 -0.0453167 11.0694 0.0607598ZM14.2319 1.18706C16.4086 1.55731 18.2441 2.45317 19.9259 3.96645C20.3522 4.34994 20.964 5.03912 21.3401 5.55926C21.6908 6.04432 22.0062 6.57181 22.302 7.1681C23.0628 8.70155 23.4123 10.2209 23.4123 11.9946C23.4123 13.779 23.0644 15.2824 22.2893 16.848C21.9708 17.4914 21.1124 18.824 21.0438 18.7816C21.0203 18.767 20.9971 18.5915 20.9921 18.3915C20.9782 17.8307 20.8841 16.896 20.7915 16.397C20.5758 15.2349 20.0783 13.768 19.7026 13.1865C19.4972 12.8684 19.494 12.8662 19.1821 12.8283C18.7659 12.7778 17.7268 12.5627 17.268 12.4322C16.9831 12.3512 16.8481 12.2761 16.6665 12.0979C16.5378 11.9715 16.3936 11.7859 16.3459 11.6854C16.2284 11.4376 16.2687 11.0447 16.46 10.5735C16.6042 10.2185 16.6124 10.1545 16.6119 9.39367C16.6115 8.8139 16.585 8.4769 16.5168 8.18704C16.4647 7.96582 16.3778 7.45903 16.3236 7.06085C16.0567 5.09875 15.585 3.9865 14.6542 3.12432C14.233 2.73407 13.6266 2.40426 13.1144 2.28681C12.9518 2.24954 12.6505 2.23233 12.4176 2.24707C11.7109 2.29175 10.9204 2.64204 10.3322 3.17114C10.0597 3.41627 9.6167 4.01873 9.41286 4.42148C9.07893 5.08127 8.79351 6.0277 8.63308 7.00722C8.58237 7.31692 8.49115 7.78751 8.43042 8.05297C8.29256 8.65548 8.24528 9.67854 8.33431 10.1326C8.37028 10.3161 8.4577 10.6043 8.52856 10.773C8.59942 10.9417 8.65741 11.1779 8.65741 11.298C8.65741 11.5877 8.50063 11.8812 8.20851 12.1384C7.99711 12.3246 7.89007 12.3685 7.28165 12.519C6.56362 12.6965 6.19614 12.7694 5.72156 12.8281C5.4877 12.857 5.417 12.8923 5.312 13.0322C4.98102 13.4732 4.55109 14.5931 4.23833 15.8291C4.11939 16.299 4.01401 17.1015 3.90912 18.3367C3.89004 18.5612 3.85766 18.6864 3.824 18.6656C3.71176 18.5961 3.00659 17.4696 2.72814 16.9149C2.2541 15.9704 1.94113 15.0307 1.70566 13.8448C1.62869 13.4573 1.60977 13.0925 1.60977 11.9946C1.60977 10.5362 1.64037 10.2698 1.93646 9.15234C2.3166 7.71725 3.0245 6.32142 3.97612 5.13023C4.62195 4.32184 5.64877 3.39574 6.56614 2.79419C7.12326 2.42887 8.16006 1.91335 8.75121 1.70773C9.45145 1.46416 10.3705 1.23656 10.9354 1.16679C11.2008 1.13402 11.4902 1.09739 11.5786 1.08533C11.9417 1.03577 13.7501 1.10517 14.2319 1.18706Z"/>
</mask>
<path d="M11.0694 0.0607598L10.8997 -1.22812L10.8997 -1.22811L11.0694 0.0607598ZM5.66898 2.1107L6.40932 3.17929L6.40933 3.17929L5.66898 2.1107ZM3.91378 3.59781L4.84032 4.50968L4.84037 4.50964L3.91378 3.59781ZM2.26535 5.70352L3.37109 6.38715L3.37109 6.38714L2.26535 5.70352ZM0.589486 10.4126L-0.699454 10.2434L-0.699458 10.2434L0.589486 10.4126ZM0.589486 13.5767L-0.699458 13.7459L-0.699454 13.7459L0.589486 13.5767ZM2.26535 18.2858L1.15962 18.9694L1.15963 18.9694L2.26535 18.2858ZM3.91378 20.3925L4.84123 19.4816L4.8412 19.4816L3.91378 20.3925ZM10.0877 23.7621L10.3463 22.488L10.3463 22.488L10.0877 23.7621ZM12.9177 23.991L12.962 25.2903H12.962L12.9177 23.991ZM17.8492 22.744L17.2735 21.5784L17.2734 21.5784L17.8492 22.744ZM19.8839 21.4673L19.0807 20.445L19.0807 20.4451L19.8839 21.4673ZM22.4566 18.6987L23.5388 19.4189L23.5389 19.4188L22.4566 18.6987ZM24.0162 15.3875L25.2648 15.7496V15.7496L24.0162 15.3875ZM24.4737 11.1992L25.7705 11.1082L25.7705 11.1081L24.4737 11.1992ZM24.0162 8.6018L25.2648 8.23971L25.2648 8.23969L24.0162 8.6018ZM22.4566 5.29058L23.5389 4.57045L23.5388 4.5704L22.4566 5.29058ZM19.8839 2.52203L19.0807 3.54421L19.0807 3.54423L19.8839 2.52203ZM17.8492 1.2453L17.2734 2.41085L17.2735 2.41087L17.8492 1.2453ZM14.4208 0.133319L14.6515 -1.14605L14.6514 -1.14606L14.4208 0.133319ZM14.2319 1.18706L14.4498 -0.0945345L14.4497 -0.0945578L14.2319 1.18706ZM19.9259 3.96645L19.0564 4.93284L19.0564 4.93285L19.9259 3.96645ZM21.3401 5.55926L22.3936 4.79757L22.3936 4.79751L21.3401 5.55926ZM22.302 7.1681L21.1375 7.74584L21.1375 7.74585L22.302 7.1681ZM22.2893 16.848L21.1243 16.2712L21.1243 16.2713L22.2893 16.848ZM21.0438 18.7816L20.3596 19.8869L20.3602 19.8873L21.0438 18.7816ZM20.9921 18.3915L19.6925 18.4238L19.6925 18.4238L20.9921 18.3915ZM20.7915 16.397L22.0697 16.1598L22.0697 16.1598L20.7915 16.397ZM19.7026 13.1865L18.6106 13.8918L18.6107 13.8919L19.7026 13.1865ZM19.1821 12.8283L19.0253 14.1189L19.0255 14.1189L19.1821 12.8283ZM17.268 12.4322L16.9123 13.6826L16.9124 13.6827L17.268 12.4322ZM16.6665 12.0979L15.7556 13.0253L15.7557 13.0255L16.6665 12.0979ZM16.3459 11.6854L15.1713 12.2425L15.1714 12.2426L16.3459 11.6854ZM16.46 10.5735L17.6645 11.0626L17.6645 11.0625L16.46 10.5735ZM16.6119 9.39367L17.9119 9.39285V9.39283L16.6119 9.39367ZM16.5168 8.18704L17.7822 7.88938L17.7822 7.88902L16.5168 8.18704ZM16.3236 7.06085L15.0355 7.23609L15.0355 7.23615L16.3236 7.06085ZM14.6542 3.12432L13.7707 4.07797L13.7708 4.07803L14.6542 3.12432ZM13.1144 2.28681L13.405 1.0197L13.4049 1.01967L13.1144 2.28681ZM12.4176 2.24707L12.4997 3.54448L12.4998 3.54447L12.4176 2.24707ZM10.3322 3.17114L9.46282 2.20462L9.46279 2.20465L10.3322 3.17114ZM9.41286 4.42148L8.25296 3.83442L8.25295 3.83443L9.41286 4.42148ZM8.63308 7.00722L7.35017 6.7971L7.35016 6.79717L8.63308 7.00722ZM8.43042 8.05297L9.69767 8.34293L9.69768 8.34288L8.43042 8.05297ZM8.33431 10.1326L9.61004 9.88259L9.61002 9.88248L8.33431 10.1326ZM8.20851 12.1384L7.34934 11.1628L7.34927 11.1629L8.20851 12.1384ZM7.28165 12.519L7.59364 13.781L7.59378 13.781L7.28165 12.519ZM5.72156 12.8281L5.88103 14.1183L5.88135 14.1183L5.72156 12.8281ZM5.312 13.0322L6.35172 13.8125L6.35176 13.8125L5.312 13.0322ZM4.23833 15.8291L5.49859 16.148L5.4986 16.148L4.23833 15.8291ZM3.90912 18.3367L5.20445 18.4467L5.20445 18.4467L3.90912 18.3367ZM3.824 18.6656L3.13997 19.771L3.14045 19.7713L3.824 18.6656ZM2.72814 16.9149L1.56627 17.498L1.56628 17.498L2.72814 16.9149ZM1.70566 13.8448L2.98077 13.5916L2.98074 13.5915L1.70566 13.8448ZM1.93646 9.15234L3.1931 9.4853L3.19312 9.48522L1.93646 9.15234ZM3.97612 5.13023L2.96045 4.3188L2.96044 4.31882L3.97612 5.13023ZM6.56614 2.79419L5.85329 1.70706L5.85328 1.70707L6.56614 2.79419ZM8.75121 1.70773L9.17827 2.93559L9.17832 2.93557L8.75121 1.70773ZM10.9354 1.16679L10.7761 -0.123411L10.7761 -0.123409L10.9354 1.16679ZM11.5786 1.08533L11.7544 2.37339L11.7544 2.37339L11.5786 1.08533ZM10.8997 -1.22811C8.68793 -0.936875 6.70293 -0.187173 4.92863 1.04211L6.40933 3.17929C7.82736 2.19683 9.41729 1.58953 11.2391 1.34963L10.8997 -1.22811ZM4.92864 1.0421C4.17212 1.56623 3.66675 1.99542 2.98719 2.68597L4.84037 4.50964C5.41388 3.92684 5.7956 3.60449 6.40932 3.17929L4.92864 1.0421ZM2.98724 2.68593C2.32477 3.35905 1.66486 4.20269 1.15962 5.01989L3.37109 6.38714C3.77685 5.73086 4.31736 5.04105 4.84032 4.50968L2.98724 2.68593ZM1.15962 5.01988C0.187465 6.59227 -0.458467 8.40779 -0.699454 10.2434L1.87843 10.5818C2.0716 9.11039 2.59298 7.64568 3.37109 6.38715L1.15962 5.01988ZM-0.699458 10.2434C-0.833514 11.2647 -0.833514 12.7245 -0.699458 13.7459L1.87843 13.4075C1.77386 12.6108 1.77386 11.3785 1.87843 10.5818L-0.699458 10.2434ZM-0.699454 13.7459C-0.458467 15.5815 0.187465 17.397 1.15962 18.9694L3.37109 17.6021C2.59298 16.3436 2.0716 14.8789 1.87843 13.4075L-0.699454 13.7459ZM1.15963 18.9694C1.66394 19.7851 2.32377 20.629 2.98636 21.3035L4.8412 19.4816C4.31686 18.9478 3.77594 18.2569 3.37108 17.6021L1.15963 18.9694ZM2.98633 21.3035C4.87595 23.2273 7.21371 24.5052 9.82908 25.0361L10.3463 22.488C8.24729 22.062 6.37314 21.0412 4.84123 19.4816L2.98633 21.3035ZM9.82907 25.0361C10.9046 25.2544 11.833 25.3288 12.962 25.2903L12.8734 22.6918C11.9393 22.7237 11.2146 22.6643 10.3463 22.488L9.82907 25.0361ZM12.962 25.2903C14.905 25.224 16.6678 24.7775 18.4249 23.9095L17.2734 21.5784C15.8436 22.2847 14.4427 22.6383 12.8734 22.6918L12.962 25.2903ZM18.4249 23.9095C19.1431 23.5548 20.073 22.972 20.6871 22.4894L19.0807 20.4451C18.6135 20.8122 17.8369 21.3001 17.2735 21.5784L18.4249 23.9095ZM20.6871 22.4895C21.7432 21.6596 22.8121 20.511 23.5388 19.4189L21.3743 17.9785C20.8057 18.833 19.9276 19.7796 19.0807 20.445L20.6871 22.4895ZM23.5389 19.4188C24.2713 18.3181 24.9143 16.9581 25.2648 15.7496L22.7677 15.0254C22.4962 15.9614 21.9709 17.0818 21.3742 17.9786L23.5389 19.4188ZM25.2648 15.7496C25.695 14.2661 25.8764 12.617 25.7705 11.1082L23.1768 11.2903C23.2607 12.4842 23.1153 13.8268 22.7677 15.0254L25.2648 15.7496ZM25.7705 11.1081C25.7052 10.1796 25.5178 9.11209 25.2648 8.23971L22.7677 8.96389C22.9676 9.65327 23.1241 10.5388 23.1768 11.2903L25.7705 11.1081ZM25.2648 8.23969C24.9143 7.03117 24.2713 5.67121 23.5389 4.57045L21.3742 6.01071C21.9709 6.90749 22.4962 8.02783 22.7677 8.96391L25.2648 8.23969ZM23.5388 4.5704C22.8121 3.47826 21.7432 2.32966 20.6871 1.49982L19.0807 3.54423C19.9276 4.20965 20.8057 5.1563 21.3743 6.01076L23.5388 4.5704ZM20.6871 1.49984C20.073 1.0173 19.1431 0.434465 18.4249 0.0797322L17.2735 2.41087C17.8369 2.68916 18.6135 3.17706 19.0807 3.54421L20.6871 1.49984ZM18.4249 0.0797494C17.2025 -0.524086 16.0645 -0.891293 14.6515 -1.14605L14.1901 1.41269C15.381 1.62739 16.2846 1.92238 17.2734 2.41085L18.4249 0.0797494ZM14.6514 -1.14606C14.1594 -1.23476 13.441 -1.28085 12.7833 -1.29508C12.124 -1.30936 11.4021 -1.29426 10.8997 -1.22812L11.2391 1.34964C11.5424 1.3097 12.1068 1.29088 12.727 1.30431C13.3489 1.31777 13.9034 1.361 14.1902 1.4127L14.6514 -1.14606ZM14.0139 2.46865C15.9418 2.79657 17.5528 3.57992 19.0564 4.93284L20.7955 3.00005C18.9354 1.32641 16.8755 0.318041 14.4498 -0.0945345L14.0139 2.46865ZM19.0564 4.93285C19.4067 5.24799 19.9581 5.86663 20.2867 6.321L22.3936 4.79751C21.9699 4.21161 21.2977 3.45189 20.7954 3.00004L19.0564 4.93285ZM20.2866 6.32094C20.5909 6.74183 20.87 7.2068 21.1375 7.74584L23.4666 6.59036C23.1424 5.93682 22.7907 5.34681 22.3936 4.79757L20.2866 6.32094ZM21.1375 7.74585C21.8059 9.09313 22.1123 10.4138 22.1123 11.9946H24.7123C24.7123 10.0279 24.3197 8.30996 23.4666 6.59036L21.1375 7.74585ZM22.1123 11.9946C22.1123 13.5834 21.8087 14.8888 21.1243 16.2712L23.4544 17.4248C24.3202 15.6759 24.7123 13.9746 24.7123 11.9946H22.1123ZM21.1243 16.2713C20.9971 16.5281 20.7335 16.9744 20.48 17.368C20.3553 17.5616 20.2482 17.7187 20.1762 17.8165C20.136 17.8709 20.1275 17.8785 20.1432 17.8613C20.144 17.8605 20.1968 17.8004 20.2865 17.7332C20.3256 17.7039 20.4423 17.6188 20.6169 17.5567C20.7711 17.5019 21.2394 17.3741 21.7275 17.6758L20.3602 19.8873C20.8525 20.1917 21.3266 20.0639 21.4882 20.0064C21.6701 19.9417 21.7955 19.8514 21.8447 19.8146C21.9547 19.7323 22.0333 19.6472 22.0647 19.6128C22.1417 19.5283 22.214 19.4338 22.269 19.3592C22.3872 19.1989 22.5275 18.9906 22.6657 18.776C22.9382 18.353 23.263 17.8113 23.4544 17.4247L21.1243 16.2713ZM21.7281 17.6762C21.9402 17.8075 22.0602 17.9668 22.1119 18.0422C22.1707 18.1281 22.2064 18.2031 22.2252 18.2457C22.2623 18.3303 22.28 18.3971 22.2856 18.4189C22.2985 18.4692 22.3013 18.4973 22.2997 18.4852C22.2977 18.4702 22.2933 18.4238 22.2917 18.3591L19.6925 18.4238C19.6959 18.5592 19.7055 18.7006 19.7223 18.8269C19.7301 18.8855 19.7434 18.9728 19.7675 19.0663C19.7786 19.1097 19.802 19.1942 19.8449 19.2919C19.8666 19.3412 19.9052 19.4216 19.967 19.5117C20.0216 19.5914 20.1445 19.7538 20.3596 19.8869L21.7281 17.6762ZM22.2917 18.3592C22.2762 17.7366 22.1761 16.733 22.0697 16.1598L19.5134 16.6343C19.5922 17.0591 19.6801 17.9247 19.6925 18.4238L22.2917 18.3592ZM22.0697 16.1598C21.9487 15.5079 21.753 14.79 21.5382 14.1565C21.3327 13.5507 21.0733 12.9124 20.7946 12.481L18.6107 13.8919C18.7077 14.042 18.8848 14.4279 19.0759 14.9915C19.2577 15.5273 19.4186 16.1239 19.5134 16.6343L22.0697 16.1598ZM20.7946 12.4811C20.7521 12.4153 20.6863 12.3123 20.6194 12.2229C20.5469 12.126 20.4186 11.9686 20.2192 11.8314C19.832 11.565 19.3753 11.5422 19.3388 11.5378L19.0255 14.1189C19.0671 14.1239 19.0879 14.1265 19.103 14.1287C19.1177 14.1307 19.1074 14.1297 19.0848 14.1247C19.0283 14.1122 18.8928 14.0748 18.7454 13.9733C18.6114 13.8811 18.5419 13.7862 18.5376 13.7804C18.5342 13.7759 18.5375 13.7801 18.552 13.8018C18.5664 13.8235 18.5839 13.8505 18.6106 13.8918L20.7946 12.4811ZM19.3389 11.5378C18.9983 11.4965 18.0261 11.2963 17.6237 11.1818L16.9124 13.6827C17.4276 13.8292 18.5334 14.0591 19.0253 14.1189L19.3389 11.5378ZM17.6238 11.1819C17.5758 11.1682 17.5524 11.1599 17.5432 11.1564C17.536 11.1537 17.5441 11.1563 17.5601 11.1653C17.5678 11.1695 17.5755 11.1742 17.5827 11.1791C17.5899 11.1839 17.5952 11.1878 17.5983 11.1902C17.6038 11.1945 17.5984 11.1909 17.5774 11.1703L15.7557 13.0255C15.8997 13.1668 16.0716 13.3125 16.2969 13.4377C16.5131 13.5579 16.7253 13.6294 16.9123 13.6826L17.6238 11.1819ZM17.5775 11.1704C17.5711 11.1641 17.5595 11.1521 17.5443 11.1349C17.5295 11.118 17.5148 11.1003 17.5022 11.084C17.496 11.0761 17.4909 11.0693 17.4871 11.064C17.4852 11.0614 17.4837 11.0593 17.4827 11.0578C17.4816 11.0562 17.4811 11.0555 17.4811 11.0555C17.4811 11.0555 17.4813 11.0557 17.4816 11.0562C17.4819 11.0567 17.4824 11.0575 17.4831 11.0586C17.4844 11.0606 17.4866 11.0642 17.4895 11.0692C17.4945 11.0778 17.5062 11.0982 17.5204 11.1282L15.1714 12.2426C15.3125 12.54 15.5772 12.8501 15.7556 13.0253L17.5775 11.1704ZM17.5205 11.1283C17.5603 11.2122 17.5732 11.2794 17.5774 11.3141C17.5817 11.3485 17.5788 11.3609 17.5803 11.3459C17.5818 11.3316 17.5865 11.2999 17.6001 11.2497C17.6135 11.1999 17.6341 11.1375 17.6645 11.0626L15.2556 10.0843C15.0339 10.6301 14.8076 11.4756 15.1713 12.2425L17.5205 11.1283ZM17.6645 11.0625C17.7449 10.8646 17.8371 10.6313 17.8796 10.3018C17.9127 10.0443 17.9121 9.74148 17.9119 9.39285L15.3119 9.3945C15.312 9.58654 15.3115 9.71717 15.3091 9.81664C15.3066 9.91607 15.3026 9.95599 15.3008 9.96974C15.3002 9.97443 15.3003 9.97295 15.3014 9.96785C15.3025 9.96261 15.3035 9.95965 15.303 9.96121C15.2999 9.9713 15.2911 9.99687 15.2555 10.0845L17.6645 11.0625ZM17.9119 9.39283C17.9115 8.7883 17.8858 8.32947 17.7822 7.88938L15.2513 8.48469C15.2842 8.62433 15.3116 8.83949 15.3119 9.39451L17.9119 9.39283ZM17.7822 7.88902C17.7442 7.72783 17.6639 7.2688 17.6117 6.88554L15.0355 7.23615C15.0917 7.64927 15.1852 8.20381 15.2514 8.48505L17.7822 7.88902ZM17.6117 6.8856C17.3257 4.78335 16.7836 3.32476 15.5377 2.17062L13.7708 4.07803C14.3864 4.64824 14.7876 5.41415 15.0355 7.23609L17.6117 6.8856ZM15.5377 2.17067C14.9656 1.64062 14.1591 1.19262 13.405 1.0197L12.8239 3.55392C13.0941 3.6159 13.5004 3.82752 13.7707 4.07797L15.5377 2.17067ZM13.4049 1.01967C13.0825 0.94579 12.6478 0.929888 12.3355 0.949674L12.4998 3.54447C12.5558 3.54093 12.6365 3.54065 12.7183 3.54532C12.7575 3.54756 12.79 3.55055 12.8136 3.55339C12.8402 3.55661 12.8417 3.55801 12.824 3.55396L13.4049 1.01967ZM12.3356 0.949663C11.3023 1.01498 10.2417 1.50401 9.46282 2.20462L11.2016 4.13766C11.5991 3.78007 12.1195 3.56851 12.4997 3.54448L12.3356 0.949663ZM9.46279 2.20465C9.22811 2.41576 8.98754 2.71128 8.79944 2.96709C8.60429 3.23249 8.39842 3.54703 8.25296 3.83442L10.5728 5.00854C10.6311 4.89318 10.7487 4.70512 10.8941 4.50732C11.0466 4.29993 11.1638 4.17166 11.2016 4.13763L9.46279 2.20465ZM8.25295 3.83443C7.84245 4.64552 7.52523 5.72824 7.35017 6.7971L9.91599 7.21733C10.0618 6.32716 10.3154 5.51701 10.5728 5.00853L8.25295 3.83443ZM7.35016 6.79717C7.30322 7.0839 7.21703 7.52756 7.16316 7.76305L9.69768 8.34288C9.76526 8.04746 9.86153 7.54994 9.916 7.21726L7.35016 6.79717ZM7.16317 7.76301C7.07108 8.16546 7.0187 8.65482 6.99867 9.08844C6.97956 9.50199 6.98317 9.99803 7.0586 10.3827L9.61002 9.88248C9.59642 9.81313 9.57916 9.5706 9.59589 9.20847C9.6117 8.86641 9.65189 8.54299 9.69767 8.34293L7.16317 7.76301ZM7.05858 10.3826C7.11122 10.6512 7.22414 11.0244 7.32998 11.2764L9.72714 10.2696C9.69126 10.1842 9.62934 9.98104 9.61004 9.88259L7.05858 10.3826ZM7.32998 11.2764C7.33024 11.277 7.33158 11.2803 7.33377 11.2862C7.33593 11.2921 7.33852 11.2996 7.34136 11.3084C7.34722 11.3266 7.35268 11.3459 7.35703 11.3636C7.35914 11.3722 7.3607 11.3793 7.36177 11.3845C7.36287 11.3898 7.36317 11.3919 7.36299 11.3907C7.36286 11.3899 7.36173 11.3827 7.36053 11.37C7.35991 11.3634 7.35916 11.3542 7.35856 11.3428C7.35796 11.3314 7.35741 11.3163 7.35741 11.298H9.95741C9.95741 11.0807 9.91343 10.8715 9.88208 10.7438C9.8456 10.5952 9.7935 10.4276 9.72714 10.2696L7.32998 11.2764ZM7.35741 11.298C7.35741 11.2028 7.38406 11.1399 7.39584 11.1179C7.40593 11.099 7.40028 11.1179 7.34934 11.1628L9.06768 13.114C9.53869 12.6992 9.95741 12.0777 9.95741 11.298H7.35741ZM7.34927 11.1629C7.31607 11.1921 7.32021 11.186 7.3419 11.1716C7.3697 11.1532 7.39367 11.1422 7.40018 11.1395C7.40062 11.1394 7.39383 11.1422 7.37651 11.1479C7.35898 11.1537 7.3336 11.1616 7.29708 11.172C7.2215 11.1936 7.11938 11.22 6.96953 11.257L7.59378 13.781C7.87833 13.7106 8.15387 13.6407 8.38774 13.5447C8.6942 13.4188 8.8959 13.2653 9.06776 13.114L7.34927 11.1629ZM6.96966 11.257C6.27783 11.428 5.96539 11.488 5.56178 11.538L5.88135 14.1183C6.42689 14.0507 6.84941 13.965 7.59364 13.781L6.96966 11.257ZM5.56209 11.5379C5.43259 11.554 5.163 11.5883 4.88871 11.725C4.56722 11.8851 4.37736 12.1118 4.27224 12.2519L6.35176 13.8125C6.35176 13.8125 6.35167 13.8126 6.3515 13.8128C6.35133 13.8131 6.35107 13.8134 6.35073 13.8138C6.35005 13.8147 6.34899 13.8161 6.34758 13.8179C6.34478 13.8214 6.3403 13.8269 6.33423 13.8339C6.32218 13.8479 6.30254 13.8694 6.27548 13.8947C6.21581 13.9505 6.13923 14.0067 6.04821 14.0521C5.96325 14.0944 5.89529 14.1124 5.86765 14.1189C5.84426 14.1243 5.84109 14.1232 5.88103 14.1183L5.56209 11.5379ZM4.27228 12.2518C3.99302 12.6239 3.75077 13.1558 3.55468 13.6666C3.34605 14.2101 3.14542 14.8488 2.97806 15.5101L5.4986 16.148C5.644 15.5734 5.81471 15.0341 5.98198 14.5984C6.16179 14.13 6.3 13.8815 6.35172 13.8125L4.27228 12.2518ZM2.97807 15.5101C2.82985 16.0957 2.71825 16.9966 2.61378 18.2266L5.20445 18.4467C5.30978 17.2065 5.40893 16.5023 5.49859 16.148L2.97807 15.5101ZM2.61379 18.2266C2.60625 18.3152 2.60067 18.3169 2.61348 18.2675C2.61785 18.2505 2.62741 18.2159 2.6445 18.1706C2.65915 18.1318 2.69432 18.0445 2.7613 17.9423C2.81422 17.8615 2.97813 17.6277 3.30188 17.4816C3.72148 17.2923 4.17277 17.3528 4.50755 17.5598L3.14045 19.7713C3.48365 19.9835 3.94331 20.0446 4.37119 19.8516C4.70324 19.7018 4.87535 19.4599 4.93633 19.3668C5.06651 19.168 5.11621 18.9743 5.13058 18.9188C5.17275 18.7558 5.1929 18.5826 5.20445 18.4467L2.61379 18.2266ZM4.50803 17.5601C4.65719 17.6524 4.74618 17.753 4.74621 17.7531C4.76774 17.7761 4.77826 17.7899 4.77455 17.7852C4.76831 17.7773 4.74807 17.7506 4.71194 17.6986C4.64195 17.5979 4.5467 17.4524 4.44032 17.2824C4.22333 16.9358 4.00227 16.5554 3.89 16.3317L1.56628 17.498C1.73247 17.8291 2.00322 18.2893 2.23649 18.662C2.35523 18.8517 2.47472 19.0354 2.57722 19.1828C2.62734 19.2549 2.68278 19.3319 2.73766 19.4011C2.76452 19.4349 2.80197 19.4806 2.84631 19.528C2.86913 19.5524 2.97678 19.6701 3.13997 19.771L4.50803 17.5601ZM3.89001 16.3317C3.47526 15.5053 3.19668 14.6791 2.98077 13.5916L0.430551 14.098C0.68557 15.3824 1.03294 16.4354 1.56627 17.498L3.89001 16.3317ZM2.98074 13.5915C2.93235 13.3479 2.90977 13.1069 2.90977 11.9946H0.309769C0.309769 13.078 0.325032 13.5668 0.430575 14.0981L2.98074 13.5915ZM2.90977 11.9946C2.90977 11.2573 2.91867 10.8979 2.95358 10.5941C2.98671 10.3059 3.04675 10.0376 3.1931 9.4853L0.679824 8.81939C0.530083 9.38455 0.426783 9.80827 0.370585 10.2972C0.316175 10.7706 0.309769 11.2736 0.309769 11.9946H2.90977ZM3.19312 9.48522C3.52576 8.22945 4.14971 6.99572 4.9918 5.94164L2.96044 4.31882C1.89928 5.64712 1.10744 7.20506 0.679802 8.81947L3.19312 9.48522ZM4.99179 5.94166C5.54683 5.2469 6.46953 4.4121 7.279 3.88131L5.85328 1.70707C4.82801 2.37937 3.69706 3.39678 2.96045 4.3188L4.99179 5.94166ZM7.27899 3.88132C7.75272 3.57068 8.69407 3.104 9.17827 2.93559L8.32416 0.479882C7.62604 0.722693 6.49381 1.28706 5.85329 1.70706L7.27899 3.88132ZM9.17832 2.93557C9.81622 2.71367 10.6436 2.51271 11.0948 2.45698L10.7761 -0.123409C10.0974 -0.0395899 9.08668 0.214637 8.32411 0.479899L9.17832 2.93557ZM11.0948 2.45699C11.3584 2.42442 11.6563 2.38678 11.7544 2.37339L11.4029 -0.202741C11.3241 -0.191991 11.0431 -0.156382 10.7761 -0.123411L11.0948 2.45699ZM11.7544 2.37339C11.7407 2.37526 11.8314 2.36792 12.074 2.36879C12.2832 2.36954 12.5427 2.37566 12.8109 2.38595C13.3827 2.40788 13.8704 2.44427 14.014 2.46868L14.4497 -0.0945578C14.1115 -0.152044 13.4542 -0.191294 12.9106 -0.212143C12.6211 -0.223247 12.3303 -0.230306 12.0833 -0.231191C11.8696 -0.231956 11.5981 -0.229382 11.4028 -0.202734L11.7544 2.37339Z" fill="black" mask="url(#path-1-inside-1_288_664)"/>
</g>
</svg>
