<svg width="25" height="24" viewBox="0 0 25 24" fill="none" xmlns="http://www.w3.org/2000/svg">
<g id="lock">
<path id="Vector" d="M18.5 10.75C18.09 10.75 17.75 10.41 17.75 10V8C17.75 4.85 16.86 2.75 12.5 2.75C8.14 2.75 7.25 4.85 7.25 8V10C7.25 10.41 6.91 10.75 6.5 10.75C6.09 10.75 5.75 10.41 5.75 10V8C5.75 5.1 6.45 1.25 12.5 1.25C18.55 1.25 19.25 5.1 19.25 8V10C19.25 10.41 18.91 10.75 18.5 10.75Z" fill="black"/>
<path id="Vector_2" d="M12.5 19.25C10.71 19.25 9.25 17.79 9.25 16C9.25 14.21 10.71 12.75 12.5 12.75C14.29 12.75 15.75 14.21 15.75 16C15.75 17.79 14.29 19.25 12.5 19.25ZM12.5 14.25C11.54 14.25 10.75 15.04 10.75 16C10.75 16.96 11.54 17.75 12.5 17.75C13.46 17.75 14.25 16.96 14.25 16C14.25 15.04 13.46 14.25 12.5 14.25Z" fill="black"/>
<path id="Vector_3" d="M17.5 22.75H7.5C3.09 22.75 1.75 21.41 1.75 17V15C1.75 10.59 3.09 9.25 7.5 9.25H17.5C21.91 9.25 23.25 10.59 23.25 15V17C23.25 21.41 21.91 22.75 17.5 22.75ZM7.5 10.75C3.92 10.75 3.25 11.43 3.25 15V17C3.25 20.57 3.92 21.25 7.5 21.25H17.5C21.08 21.25 21.75 20.57 21.75 17V15C21.75 11.43 21.08 10.75 17.5 10.75H7.5Z" fill="black"/>
</g>
</svg>
