<svg width="24" height="25" viewBox="0 0 24 25" fill="none" xmlns="http://www.w3.org/2000/svg">
<g id="task">
<path id="Vector" d="M21 20.75H11C10.59 20.75 10.25 20.41 10.25 20C10.25 19.59 10.59 19.25 11 19.25H21C21.41 19.25 21.75 19.59 21.75 20C21.75 20.41 21.41 20.75 21 20.75Z" fill="#000"/>
<path id="Vector_2" d="M21 13.75H11C10.59 13.75 10.25 13.41 10.25 13C10.25 12.59 10.59 12.25 11 12.25H21C21.41 12.25 21.75 12.59 21.75 13C21.75 13.41 21.41 13.75 21 13.75Z" fill="#000"/>
<path id="Vector_3" d="M21 6.75H11C10.59 6.75 10.25 6.41 10.25 6C10.25 5.59 10.59 5.25 11 5.25H21C21.41 5.25 21.75 5.59 21.75 6C21.75 6.41 21.41 6.75 21 6.75Z" fill="#000"/>
<path id="Vector_4" d="M4.00043 7.75C3.81043 7.75 3.62043 7.68 3.47043 7.53L2.47043 6.53C2.18043 6.24 2.18043 5.76 2.47043 5.47C2.76043 5.18 3.24043 5.18 3.53043 5.47L4.00043 5.94L6.47043 3.47C6.76043 3.18 7.24043 3.18 7.53043 3.47C7.82043 3.76 7.82043 4.24 7.53043 4.53L4.53043 7.53C4.38043 7.68 4.19043 7.75 4.00043 7.75Z" fill="#000"/>
<path id="Vector_5" d="M4.00043 14.75C3.81043 14.75 3.62043 14.68 3.47043 14.53L2.47043 13.53C2.18043 13.24 2.18043 12.76 2.47043 12.47C2.76043 12.18 3.24043 12.18 3.53043 12.47L4.00043 12.94L6.47043 10.47C6.76043 10.18 7.24043 10.18 7.53043 10.47C7.82043 10.76 7.82043 11.24 7.53043 11.53L4.53043 14.53C4.38043 14.68 4.19043 14.75 4.00043 14.75Z" fill="#000"/>
<path id="Vector_6" d="M4.00043 21.75C3.81043 21.75 3.62043 21.68 3.47043 21.53L2.47043 20.53C2.18043 20.24 2.18043 19.76 2.47043 19.47C2.76043 19.18 3.24043 19.18 3.53043 19.47L4.00043 19.94L6.47043 17.47C6.76043 17.18 7.24043 17.18 7.53043 17.47C7.82043 17.76 7.82043 18.24 7.53043 18.53L4.53043 21.53C4.38043 21.68 4.19043 21.75 4.00043 21.75Z" fill="#000"/>
</g>
</svg>
