<svg width="24" height="11" viewBox="0 0 24 11" fill="none" xmlns="http://www.w3.org/2000/svg">
<path id="94 - Menu" d="M1.33333 2.83334H22.6667C23.0203 2.83334 23.3594 2.69286 23.6095 2.44281C23.8595 2.19277 24 1.85363 24 1.50001C24 1.14638 23.8595 0.807244 23.6095 0.557196C23.3594 0.307147 23.0203 0.166672 22.6667 0.166672H1.33333C0.979712 0.166672 0.640574 0.307147 0.390524 0.557196C0.140476 0.807244 0 1.14638 0 1.50001C0 1.85363 0.140476 2.19277 0.390524 2.44281C0.640574 2.69286 0.979712 2.83334 1.33333 2.83334ZM10.2222 10.8333H22.6667C23.0203 10.8333 23.3594 10.6929 23.6095 10.4428C23.8595 10.1928 24 9.85363 24 9.5C24 9.14638 23.8595 8.80725 23.6095 8.5572C23.3594 8.30715 23.0203 8.16667 22.6667 8.16667H10.2222C9.8686 8.16667 9.52946 8.30715 9.27941 8.5572C9.02937 8.80725 8.88889 9.14638 8.88889 9.5C8.88889 9.85363 9.02937 10.1928 9.27941 10.4428C9.52946 10.6929 9.8686 10.8333 10.2222 10.8333Z" fill="#000"/>
</svg>
