<svg width="25" height="24" viewBox="0 0 25 24" fill="none" xmlns="http://www.w3.org/2000/svg">
<path d="M9.96992 15.28C9.77992 15.28 9.58992 15.21 9.43992 15.06C8.61992 14.24 8.16992 13.15 8.16992 12C8.16992 9.60998 10.1099 7.66998 12.4999 7.66998C13.6499 7.66998 14.7399 8.11998 15.5599 8.93998C15.6999 9.07998 15.7799 9.26998 15.7799 9.46998C15.7799 9.66998 15.6999 9.85998 15.5599 9.99998L10.4999 15.06C10.3499 15.21 10.1599 15.28 9.96992 15.28ZM12.4999 9.16998C10.9399 9.16998 9.66992 10.44 9.66992 12C9.66992 12.5 9.79992 12.98 10.0399 13.4L13.8999 9.53998C13.4799 9.29998 12.9999 9.16998 12.4999 9.16998Z" fill="black"/>
<path d="M6.09984 18.51C5.92984 18.51 5.74984 18.45 5.60984 18.33C4.53984 17.42 3.57984 16.3 2.75984 15C1.69984 13.35 1.69984 10.66 2.75984 8.99998C5.19984 5.17998 8.74984 2.97998 12.4998 2.97998C14.6998 2.97998 16.8698 3.73998 18.7698 5.16998C19.0998 5.41998 19.1698 5.88998 18.9198 6.21998C18.6698 6.54998 18.1998 6.61998 17.8698 6.36998C16.2298 5.12998 14.3698 4.47998 12.4998 4.47998C9.26984 4.47998 6.17984 6.41998 4.01984 9.80998C3.26984 10.98 3.26984 13.02 4.01984 14.19C4.76984 15.36 5.62984 16.37 6.57984 17.19C6.88984 17.46 6.92984 17.93 6.65984 18.25C6.51984 18.42 6.30984 18.51 6.09984 18.51Z" fill="black"/>
<path d="M12.5006 21.02C11.1706 21.02 9.87055 20.75 8.62055 20.22C8.24055 20.06 8.06055 19.62 8.22055 19.24C8.38055 18.86 8.82055 18.68 9.20055 18.84C10.2606 19.29 11.3706 19.52 12.4906 19.52C15.7206 19.52 18.8106 17.58 20.9706 14.19C21.7206 13.02 21.7206 10.98 20.9706 9.81C20.6606 9.32 20.3205 8.85 19.9606 8.41C19.7006 8.09 19.7506 7.62 20.0706 7.35C20.3906 7.09 20.8605 7.13 21.1306 7.46C21.5206 7.94 21.9006 8.46 22.2406 9C23.3006 10.65 23.3006 13.34 22.2406 15C19.8006 18.82 16.2506 21.02 12.5006 21.02Z" fill="black"/>
<path d="M13.1896 16.27C12.8396 16.27 12.5196 16.02 12.4496 15.66C12.3696 15.25 12.6396 14.86 13.0496 14.79C14.1496 14.59 15.0696 13.67 15.2696 12.57C15.3496 12.16 15.7396 11.9 16.1496 11.97C16.5596 12.05 16.8296 12.44 16.7496 12.85C16.4296 14.58 15.0496 15.95 13.3296 16.27C13.2796 16.26 13.2396 16.27 13.1896 16.27Z" fill="black"/>
<path d="M2.49945 22.75C2.30945 22.75 2.11945 22.68 1.96945 22.53C1.67945 22.24 1.67945 21.76 1.96945 21.47L9.43945 14C9.72945 13.71 10.2095 13.71 10.4995 14C10.7895 14.29 10.7895 14.77 10.4995 15.06L3.02945 22.53C2.87945 22.68 2.68945 22.75 2.49945 22.75Z" fill="black"/>
<path d="M15.0307 10.22C14.8407 10.22 14.6507 10.15 14.5007 10C14.2107 9.71 14.2107 9.23 14.5007 8.94L21.9707 1.47C22.2607 1.18 22.7407 1.18 23.0307 1.47C23.3207 1.76 23.3207 2.24 23.0307 2.53L15.5607 10C15.4107 10.15 15.2207 10.22 15.0307 10.22Z" fill="black"/>
</svg>
