<svg width="25" height="24" viewBox="0 0 25 24" fill="none" xmlns="http://www.w3.org/2000/svg">
<g id="search">
<path id="search_2" fill-rule="evenodd" clip-rule="evenodd" d="M16.9247 18.182C15.4163 19.3231 13.5372 20 11.5 20C6.52944 20 2.5 15.9706 2.5 11C2.5 6.02944 6.52944 2 11.5 2C16.4706 2 20.5 6.02944 20.5 11C20.5 13.0372 19.8231 14.9163 18.682 16.4247L22.136 19.8787C22.6213 20.364 22.6213 21.1508 22.136 21.636C21.6508 22.1213 20.864 22.1213 20.3787 21.636L16.9247 18.182ZM11.5 18C15.366 18 18.5 14.866 18.5 11C18.5 7.13401 15.366 4 11.5 4C7.63401 4 4.5 7.13401 4.5 11C4.5 14.866 7.63401 18 11.5 18Z" fill="#31303D"/>
</g>
</svg>
