<svg width="25" height="20" viewBox="0 0 25 20" fill="none" xmlns="http://www.w3.org/2000/svg">
<g id="Black">
<path id="Vector" d="M23.2903 5.34719L23.2907 5.34686M23.2903 5.34719L23.2907 5.34686M23.2903 5.34719C23.3141 5.37091 23.5062 5.2075 23.7486 4.9603L23.2903 5.34719ZM23.2907 5.34686L23.2919 5.34563L23.2907 5.34686ZM21.4736 2.34286L21.4736 2.34284L21.4777 2.34546C21.866 2.59253 22.2885 2.96958 22.656 3.36699C22.9549 3.69023 23.2407 4.0522 23.4522 4.40229C23.4711 4.3821 23.4902 4.36146 23.5095 4.34042L23.5095 4.34038L23.5152 4.33425C23.7651 4.06926 23.8556 3.94413 23.89 3.87371C23.8964 3.8606 23.8987 3.85346 23.8993 3.85118L23.8997 3.84986L23.8997 3.84954C23.8997 3.84958 23.8997 3.84957 23.8998 3.84948L23.8998 3.84688C23.8998 3.84517 23.8998 3.84224 23.8994 3.83785C23.8986 3.82889 23.8967 3.814 23.8917 3.79092L23.8888 3.77773L23.8865 3.76444C23.8804 3.72881 23.8405 3.61425 23.7188 3.42223C23.6057 3.24371 23.449 3.0402 23.2651 2.83566C22.8871 2.41524 22.4547 2.05695 22.139 1.90196L22.1302 1.89767L22.1216 1.89309L21.8221 1.73377L21.5363 2.04101C21.4669 2.11672 21.4009 2.18962 21.3403 2.25765C21.383 2.28555 21.4276 2.3141 21.4736 2.34286ZM23.7516 4.95724C23.8156 4.89193 23.8831 4.82084 23.9518 4.74586C24.4479 4.21969 24.5531 4.00923 24.478 3.66346C24.3727 3.04709 23.2302 1.76926 22.4034 1.36336L21.6968 0.987529L23.7516 4.95724ZM23.0127 4.82725C23.0094 4.82949 23.0089 4.82999 23.0117 4.828C23.012 4.82777 23.0124 4.82752 23.0127 4.82725Z" stroke="#E51848" stroke-width="1.2"/>
<path id="Vector_2" d="M4.91979 2.58106C3.73216 3.15232 3.53673 3.42292 3.8825 3.94909C4.34853 4.65565 4.04786 5.46745 3.206 5.81322C2.8001 5.97859 2.67983 5.96355 2.2138 5.72302L1.6726 5.43739L1.3118 5.88839C0.950999 6.33939 0.5 7.55708 0.5 8.11332C0.5 8.29372 0.695433 8.47412 1.0863 8.62445C1.64253 8.83492 2.00333 9.31598 2.00333 9.81208C2.00333 10.3082 1.5373 10.9245 1.05623 11.0448C0.439867 11.1951 0.379734 11.6311 0.800666 12.7586C1.23663 13.9312 1.5373 14.1717 2.304 13.9462C3.5217 13.5854 4.21323 14.2319 4.03283 15.5698C3.95766 16.1712 3.98773 16.3065 4.28839 16.5771C4.67926 16.9379 5.95709 17.449 6.22769 17.3588C6.33293 17.3287 6.52836 16.7875 6.67869 16.1712C6.94929 15.0437 7.46042 13.9312 7.73102 13.9312C8.06176 13.9312 7.82122 13.6456 7.43036 13.5554C6.66366 13.39 5.22046 12.3377 4.81456 11.6461C4.30343 10.7592 4.21323 10.1729 4.40866 9.21075C4.88973 6.89562 6.94929 5.57269 9.23435 6.11389C10.2717 6.36945 11.1135 7.21132 11.6698 8.53425L12.0907 9.51141L13.7293 7.94795L15.383 6.38449L15.1575 5.96355C14.8718 5.39229 14.6012 5.33215 13.9698 5.67792C13.2482 6.05375 13.0979 6.03872 12.5417 5.52759C12.0155 5.03149 11.9404 4.55042 12.3012 3.85889C12.6018 3.28762 12.4816 3.06212 11.8051 2.82159C11.5044 2.70132 10.9782 2.49086 10.6475 2.32549C10.1514 2.09999 9.98602 2.06993 9.71542 2.22026C9.51999 2.32549 9.36965 2.52092 9.36965 2.65622C9.36965 3.10722 8.78335 3.70856 8.34739 3.70856C7.77612 3.70856 6.97936 3.10722 6.84406 2.58106C6.67869 1.94966 6.21266 1.94966 4.91979 2.58106Z" fill="#E51848"/>
<path id="Vector_3" d="M14.4561 9.0327L14.4551 9.03367C12.1769 11.3119 10.7137 12.7977 9.84157 13.7257C9.52678 14.0607 9.29542 14.3162 9.1328 14.5064C9.75194 14.9761 10.4588 15.6865 10.9427 16.3155L11.2036 16.6516L16.4649 11.4453C16.465 11.4453 16.4651 11.4452 16.4651 11.4451C18.0442 9.88116 19.5035 8.44441 20.5835 7.39069C21.1234 6.86402 21.5697 6.43186 21.8892 6.127C22.0486 5.9749 22.1787 5.85244 22.2738 5.76511C22.3055 5.73602 22.3348 5.70945 22.361 5.68624C22.3577 5.68049 22.3544 5.67459 22.351 5.66854C22.2832 5.54981 22.1839 5.39527 22.0432 5.18798L22.0426 5.18712C21.715 4.70247 21.2474 4.19151 20.8061 3.80449C20.5859 3.61133 20.3846 3.46003 20.2226 3.36095C20.2099 3.35322 20.1979 3.34605 20.1865 3.33941C20.123 3.40028 20.0481 3.47261 19.9624 3.55593C19.6533 3.85607 19.2105 4.29145 18.666 4.8303C17.5774 5.90765 16.0864 7.39485 14.4561 9.0327ZM22.5595 5.53725C22.5594 5.53724 22.558 5.53819 22.5554 5.54015C22.5584 5.53825 22.5596 5.53727 22.5595 5.53725Z" stroke="#E51848" stroke-width="1.2"/>
<path id="Vector_4" d="M7.97274 16.6132C7.92613 16.8139 7.88747 16.9946 7.86074 17.1355C7.89729 17.1592 7.92195 17.1801 7.92655 17.184C7.92687 17.1842 7.92709 17.1844 7.92721 17.1845C7.94496 17.1992 7.96157 17.2142 7.97461 17.2261C8.0014 17.2507 8.0335 17.2817 8.06833 17.3158C8.13826 17.3843 8.23679 17.4828 8.36205 17.6081L8.36503 17.611L8.37021 17.6162L8.37525 17.6215C8.48708 17.7389 8.60413 17.8381 8.69792 17.9052C8.94023 17.8281 9.29506 17.7261 9.63053 17.6372C9.76063 17.5999 9.88494 17.561 9.99749 17.5231C9.94235 17.4418 9.88008 17.3539 9.81217 17.2616C9.497 16.8335 9.11408 16.3857 8.85384 16.1569C8.61772 15.9517 8.39426 15.7905 8.21184 15.6811C8.12925 15.9721 8.04385 16.307 7.97274 16.6132Z" stroke="#E51848" stroke-width="1.2"/>
</g>
</svg>
