<svg width="121" height="91" viewBox="0 0 121 91" fill="none" xmlns="http://www.w3.org/2000/svg">
<g id="Black">
<path id="Vector" d="M103.475 3.23207C101.822 5.03602 100.469 6.61447 100.469 6.83997C100.469 7.06546 101.972 8.19293 103.776 9.3204C107.083 11.425 111.443 16.0852 113.247 19.6179C113.773 20.6702 114.299 21.6474 114.449 21.7977C114.6 21.948 116.103 20.5951 117.757 18.7911C120.237 16.1604 120.763 15.1081 120.387 13.3793C119.861 10.2975 114.149 3.90855 110.015 1.87911L106.482 -5.72205e-06L103.475 3.23207Z" fill="#E6E6E6"/>
<path id="Vector_2" d="M22.5984 7.96745C16.6604 10.8237 15.6832 12.1767 17.412 14.8074C19.7421 18.3402 18.2388 22.399 14.0296 24.1278C12.0002 24.9546 11.3989 24.8795 9.06876 23.6768L6.36283 22.2487L4.55889 24.5036C2.75494 26.7586 0.5 32.8469 0.5 35.628C0.5 36.53 1.47714 37.4319 3.43142 38.1836C6.21251 39.2359 8.01645 41.6412 8.01645 44.1216C8.01645 46.602 5.68635 49.6838 3.28109 50.2851C0.199342 51.0367 -0.101316 53.2165 2.00329 58.8538C4.18306 64.7167 5.68635 65.9193 9.51974 64.7918C15.6081 62.9879 19.0656 66.22 18.1637 72.9096C17.7878 75.9162 17.9382 76.5927 19.4415 77.9456C21.3957 79.7496 27.7847 82.3052 29.1377 81.8542C29.6638 81.7039 30.641 78.9979 31.3926 75.9162C32.7456 70.2788 35.3012 64.7167 36.6541 64.7167C38.3078 64.7167 37.1051 63.2885 35.1509 62.8376C31.3175 62.0107 24.1017 56.7492 22.0722 53.2917C19.5166 48.857 19.0656 45.9255 20.0428 41.115C22.448 29.5397 32.7456 22.9252 44.1706 25.6311C49.357 26.9089 53.5662 31.1181 56.3473 37.7326L58.4519 42.6183L66.6448 34.8012L74.9129 26.9841L73.7854 24.8795C72.3573 22.0232 71.0043 21.7226 67.8474 23.4513C64.2395 25.3305 63.4879 25.2553 60.7068 22.6997C58.076 20.2193 57.7002 17.814 59.5042 14.3564C61.0075 11.5002 60.4061 10.3727 57.0237 9.17008C55.5204 8.56876 52.8897 7.51646 51.2361 6.68965C48.7556 5.56218 47.9288 5.41186 46.5759 6.1635C45.5987 6.68965 44.8471 7.66679 44.8471 8.34327C44.8471 10.5982 41.9157 13.6048 39.7359 13.6048C36.8796 13.6048 32.8959 10.5982 32.2194 7.96745C31.3926 4.81054 29.0625 4.81054 22.5984 7.96745Z" fill="#E6E6E6"/>
<path id="Vector_3" d="M68.1515 38.1084C45.3766 60.8833 38.7621 67.9487 39.589 68.4749C42.5955 70.1285 47.3309 74.5632 50.3375 78.4718L53.7199 82.8313L82.4327 54.4191C98.2173 38.7849 111.597 25.7063 112.198 25.4056C113.776 24.5036 113.551 23.5265 110.695 19.3173C107.087 13.9806 100.623 8.34325 98.2173 8.34325C97.9918 8.34325 84.4622 21.7225 68.1515 38.1084Z" fill="#E6E6E6"/>
<path id="Vector_4" d="M36.952 70.1285C35.6742 73.8116 33.7951 82.0045 34.171 82.0045C34.4716 82.0045 34.2461 82.3052 33.6448 82.681C33.1186 83.0568 32.5173 84.8608 32.2918 86.7399L31.916 90.1223L35.3736 89.2955C37.2527 88.8445 38.8312 88.2432 38.8312 87.9425C38.8312 87.6418 37.9292 86.2889 36.8769 84.8608C35.0729 82.6058 35.1481 82.681 37.7037 85.2366C39.207 86.815 40.9358 87.9425 41.3867 87.7922C41.9129 87.5667 44.3933 86.815 46.9489 86.1386C49.5797 85.3869 51.8346 84.4849 52.0601 84.1843C52.5111 83.3575 47.3247 76.292 44.243 73.5861C40.7854 70.5795 37.403 68.9259 36.952 70.1285Z" fill="#E6E6E6"/>
</g>
</svg>
