<svg width="161" height="27" viewBox="0 0 161 27" fill="none" xmlns="http://www.w3.org/2000/svg">
<path d="M120.538 18.4661C120.419 18.4661 120.331 18.4313 120.252 18.3526C120.173 18.2738 120.138 18.1881 120.138 18.0745V13.7026C120.138 12.6033 119.748 11.658 118.979 10.8923C118.211 10.1277 117.267 9.73968 116.171 9.73968H111.83C110.736 9.73968 109.791 10.1277 109.022 10.8923C108.253 11.658 107.863 12.6033 107.863 13.7026V18.0745C107.863 18.1881 107.828 18.2738 107.749 18.3537C107.67 18.4325 107.582 18.4673 107.464 18.4673C107.346 18.4673 107.257 18.4325 107.178 18.3526C107.1 18.2738 107.064 18.1881 107.064 18.0745V13.7026C107.064 12.3959 107.534 11.2607 108.459 10.327C109.384 9.39447 110.518 8.92067 111.83 8.92067H116.171C117.483 8.92067 118.617 9.39331 119.542 10.327C120.467 11.2607 120.937 12.3959 120.937 13.7026V18.0745C120.937 18.1881 120.902 18.275 120.823 18.3537C120.744 18.4325 120.656 18.4673 120.538 18.4673V18.4661Z" fill="black" stroke="black" stroke-width="0.5"/>
<path d="M58.7883 18.4661C58.6725 18.4661 58.5856 18.4302 58.508 18.3491C58.4257 18.2645 58.3887 18.1742 58.3887 18.056V9.31338C58.3887 9.19985 58.4234 9.11297 58.5022 9.03419C58.581 8.95542 58.669 8.92067 58.7883 8.92067C58.9076 8.92067 58.9957 8.95542 59.0745 9.03419C59.1532 9.11297 59.188 9.19869 59.188 9.31222V18.056C59.188 18.173 59.1509 18.2634 59.0687 18.3491C58.9911 18.4302 58.9042 18.4661 58.7883 18.4661Z" fill="black" stroke="black" stroke-width="0.5"/>
<path d="M86.3057 18.4659C86.1899 18.4659 86.103 18.43 86.0242 18.3477C85.9431 18.2632 85.9072 18.1728 85.9072 18.0558V13.6573C85.9119 13.5553 85.9489 13.4708 86.0265 13.3897C86.0984 13.3155 86.1806 13.2796 86.2907 13.2738H86.3115C86.4262 13.2738 86.5142 13.3097 86.593 13.3885C86.6706 13.4661 86.7054 13.5518 86.7054 13.6665V18.0558C86.7054 18.1728 86.6683 18.2632 86.5861 18.35C86.5084 18.43 86.4216 18.4659 86.3057 18.4659Z" fill="black" stroke="black" stroke-width="0.5"/>
<path d="M131.973 18.466C130.66 18.466 129.526 17.9934 128.602 17.0597C127.676 16.126 127.207 14.9907 127.207 13.684C127.207 12.3773 127.676 11.2455 128.601 10.3176C129.525 9.38974 130.659 8.91942 131.973 8.91942H140.671C140.797 8.91942 140.887 8.95417 140.966 9.0341C141.044 9.11288 141.079 9.1986 141.079 9.31212C141.079 9.42565 141.042 9.51948 140.96 9.60405C140.882 9.68514 140.793 9.72105 140.67 9.72105H131.972C130.877 9.72105 129.932 10.1091 129.164 10.8737C128.394 11.6394 128.004 12.5847 128.004 13.684C128.004 14.7834 128.394 15.7286 129.164 16.4944C129.932 17.2589 130.876 17.647 131.972 17.647H140.67C140.792 17.647 140.881 17.6829 140.96 17.764C141.042 17.8497 141.079 17.9389 141.079 18.0559C141.079 18.1729 141.042 18.2633 140.96 18.349C140.882 18.4301 140.793 18.466 140.671 18.466H131.973Z" fill="black" stroke="black" stroke-width="0.5"/>
<path d="M147.901 18.4661C147.779 18.4661 147.69 18.4302 147.611 18.3491C147.529 18.2634 147.493 18.1742 147.493 18.0572V9.31338C147.493 9.19985 147.528 9.11297 147.607 9.03419C147.685 8.95542 147.776 8.92067 147.901 8.92067H160.092C160.208 8.92067 160.298 8.95774 160.383 9.03999C160.464 9.11876 160.5 9.20217 160.5 9.31338C160.5 9.42458 160.462 9.5161 160.378 9.60066C160.294 9.68523 160.206 9.72346 160.092 9.72346H148.714C148.481 9.72346 148.291 9.91344 148.291 10.1474V17.2243C148.291 17.4583 148.481 17.6482 148.714 17.6482H160.092C160.206 17.6482 160.294 17.6865 160.378 17.771C160.463 17.8556 160.5 17.9448 160.5 18.0583C160.5 18.1719 160.462 18.2611 160.377 18.3456C160.293 18.4302 160.205 18.4673 160.092 18.4673H147.901V18.4661Z" fill="black" stroke="black" stroke-width="0.5"/>
<path d="M153.539 14.0941C153.417 14.0941 153.328 14.0582 153.25 13.9771C153.168 13.8914 153.131 13.801 153.131 13.684C153.131 13.567 153.168 13.4767 153.25 13.3921C153.328 13.311 153.417 13.2751 153.54 13.2751H159.23C159.34 13.2751 159.425 13.311 159.502 13.3921C159.584 13.4778 159.62 13.567 159.62 13.684C159.62 13.801 159.583 13.8914 159.501 13.9759C159.423 14.057 159.339 14.0929 159.229 14.0929H153.539V14.0941Z" fill="black" stroke="black" stroke-width="0.5"/>
<path d="M112.262 14.0941C112.141 14.0941 112.051 14.0582 111.974 13.9771C111.892 13.8914 111.854 13.801 111.854 13.684C111.854 13.567 111.892 13.4767 111.974 13.3921C112.051 13.311 112.141 13.2751 112.263 13.2751H117.954C118.064 13.2751 118.148 13.311 118.226 13.3921C118.308 13.4778 118.344 13.567 118.344 13.684C118.344 13.801 118.307 13.8914 118.225 13.9759C118.147 14.057 118.062 14.0929 117.952 14.0929H112.262V14.0941Z" fill="black" stroke="black" stroke-width="0.5"/>
<path d="M99.37 18.466C99.297 18.466 99.231 18.4417 99.1534 18.3884L92.5816 14.0049C92.5701 13.9956 92.5527 13.9817 92.5365 13.9655C92.4554 13.8844 92.4195 13.7952 92.4195 13.6759C92.4195 13.5566 92.4542 13.4674 92.5341 13.3886C92.6129 13.3098 92.6986 13.2739 92.811 13.2739H97.198C97.6845 13.2739 98.1073 13.1013 98.4525 12.7608C98.8012 12.419 98.9773 11.9939 98.9773 11.4969C98.9773 10.9999 98.8001 10.576 98.4514 10.2331C98.1062 9.8925 97.6833 9.71989 97.1968 9.71989H86.3111C86.1895 9.71989 86.0991 9.68398 86.0215 9.60289C85.9392 9.51832 85.9033 9.42797 85.9033 9.31097C85.9033 9.19396 85.9381 9.11172 86.0168 9.03179C86.0945 8.95417 86.186 8.91942 86.3111 8.91942H97.1968C97.9011 8.91942 98.5139 9.17543 99.0179 9.67934C99.5206 10.1844 99.7755 10.7961 99.7755 11.4969C99.7755 11.9186 99.6851 12.309 99.5079 12.6553C99.3862 12.8928 99.2217 13.1176 99.0167 13.3249C98.5811 13.7651 98.0656 14.0188 97.4853 14.0779C97.3914 14.0872 97.2941 14.0929 97.198 14.0929H95.5542C95.3665 14.0929 95.2043 14.2134 95.1487 14.3941C95.0943 14.5749 95.1626 14.7648 95.319 14.8691L99.5913 17.7269C99.6365 17.757 99.6805 17.8103 99.7222 17.881C99.7581 17.9447 99.7766 18.0038 99.7766 18.0536C99.7766 18.1416 99.7569 18.2111 99.7117 18.2783C99.6839 18.3212 99.6295 18.3641 99.5565 18.4046C99.4859 18.4428 99.421 18.4637 99.3689 18.4637L99.37 18.466Z" fill="black" stroke="black" stroke-width="0.5"/>
<path d="M79.0898 18.4661C79.0747 18.4661 79.0597 18.4661 79.0446 18.4638C78.9473 18.4557 78.8708 18.4186 78.8025 18.3479C78.7202 18.2622 78.6843 18.173 78.6843 18.056V17.0308C78.6843 16.8779 78.6033 16.7377 78.4712 16.6624L69.9324 9.88332C69.8015 9.77906 69.637 9.72114 69.4691 9.72114H66.5255C66.4618 9.72114 66.4097 9.77327 66.4097 9.83698V18.0549C66.4097 18.1719 66.3726 18.2622 66.2903 18.3479C66.2127 18.429 66.1259 18.4649 66.01 18.4649C65.8942 18.4649 65.8073 18.429 65.7297 18.3479C65.6474 18.2622 65.6104 18.1719 65.6104 18.0549V9.31222C65.6104 9.19869 65.6451 9.11181 65.7239 9.03419C65.8015 8.95542 65.8872 8.92067 66.0007 8.92067H69.7042C69.8131 8.92067 69.9209 8.95774 70.0054 9.02609C70.5082 9.42574 78.0391 15.4009 78.0391 15.4009C78.0437 15.4055 78.0495 15.409 78.0553 15.4125C78.1179 15.4472 78.1885 15.4646 78.2592 15.4646C78.3368 15.4646 78.4121 15.4438 78.477 15.4032C78.6021 15.3291 78.682 15.1901 78.682 15.0406V9.31222C78.682 9.19869 78.7168 9.11297 78.7955 9.03419C78.8732 8.95542 78.9612 8.92067 79.0817 8.92067C79.2022 8.92067 79.289 8.95542 79.3678 9.03419C79.4454 9.11297 79.4813 9.19869 79.4813 9.31222V18.056C79.4813 18.1776 79.4419 18.2703 79.3539 18.356C79.2809 18.4279 79.1894 18.4661 79.0886 18.4661H79.0898Z" fill="black" stroke="black" stroke-width="0.5"/>
<path d="M45.5018 12.0149C44.1684 13.8614 42.1296 15.7508 39.5567 17.5301C39.4386 17.2788 39.2868 17.0494 39.1084 16.842C44.5565 13.0737 47.2822 9.00181 46.2733 6.03277C45.7601 4.5245 44.2866 3.34754 42.0126 2.63163C40.319 2.0976 38.2141 1.82537 35.8359 1.82537C35.0099 1.82537 34.1492 1.85781 33.2618 1.925C30.141 2.15784 26.7584 2.79613 23.3503 3.78774H20.6211C24.9107 2.32349 29.2583 1.39675 33.2004 1.10251C40.6885 0.544153 45.8655 2.28758 47.0482 5.76517C47.668 7.58969 47.134 9.75016 45.5006 12.0137L45.5018 12.0149Z" fill="#2D95D3" stroke="#2D95D3" stroke-width="0.5"/>
<path d="M28.5344 22.2438H30.769C29.6268 22.7199 28.4544 23.1648 27.2636 23.5725C23.9424 24.7101 20.6397 25.5175 17.4459 25.9728C15.5114 26.2485 13.6706 26.3864 11.9608 26.3864C9.94281 26.3864 8.10903 26.1941 6.5243 25.8118C3.42899 25.0646 1.43418 23.6142 0.755343 21.6206C-0.00226676 19.3953 0.933741 16.7425 3.46027 13.9507C4.7577 12.5177 6.41077 11.1114 8.35924 9.7757V10.7824C3.22163 14.4268 0.528292 18.4106 1.53033 21.3542C2.11302 23.0686 3.90626 24.3336 6.71544 25.0113C9.54316 25.6948 13.213 25.7446 17.3301 25.1584C20.4729 24.7101 23.7258 23.9143 26.9983 22.7941C27.5138 22.6168 28.027 22.4338 28.5344 22.2438Z" fill="#E51848" stroke="#E51848" stroke-width="0.5"/>
<path d="M11.3825 19.7416C11.1531 19.7416 10.9678 19.5562 10.9678 19.3269V9.44667C10.9678 7.54222 12.1019 6.40581 14.0005 6.40581H32.5655C34.4965 6.40581 36.0674 7.98127 36.0674 9.91815C36.0674 11.855 34.4965 13.4305 32.5655 13.4305H20.8549C19.3814 13.4305 18.1813 14.6341 18.1813 16.1134C18.1813 17.5927 19.3803 18.7963 20.8549 18.7963H36.2492C36.4786 18.7963 36.664 18.9817 36.664 19.211C36.664 19.4404 36.4786 19.6258 36.2492 19.6258H20.8561C18.925 19.6258 17.3542 18.0503 17.3542 16.1134C17.3542 14.1765 18.925 12.6011 20.8561 12.6011H32.5666C34.0401 12.6011 35.2403 11.3975 35.2403 9.91815C35.2403 8.43884 34.0413 7.23524 32.5666 7.23524H14.0005C12.1795 7.23524 11.796 8.43884 11.796 9.44783V19.328C11.796 19.5574 11.6107 19.7428 11.3813 19.7428L11.3825 19.7416Z" fill="#D04592" stroke="#D04592" stroke-width="0.5"/>
</svg>
