<svg width="162" height="27" viewBox="0 0 162 27" fill="none" xmlns="http://www.w3.org/2000/svg">
<path d="M121.038 18.2729C120.919 18.2729 120.831 18.2381 120.752 18.1594C120.673 18.0806 120.638 17.9949 120.638 17.8813V13.5094C120.638 12.4101 120.248 11.4648 119.479 10.6991C118.711 9.93454 117.767 9.54647 116.671 9.54647H112.33C111.236 9.54647 110.291 9.93454 109.522 10.6991C108.753 11.4648 108.363 12.4101 108.363 13.5094V17.8813C108.363 17.9949 108.328 18.0806 108.249 18.1605C108.17 18.2393 108.082 18.274 107.964 18.274C107.846 18.274 107.757 18.2393 107.678 18.1594C107.6 18.0806 107.564 17.9949 107.564 17.8813V13.5094C107.564 12.2027 108.034 11.0675 108.959 10.1338C109.884 9.20126 111.018 8.72746 112.33 8.72746H116.671C117.983 8.72746 119.117 9.2001 120.042 10.1338C120.967 11.0675 121.437 12.2027 121.437 13.5094V17.8813C121.437 17.9949 121.402 18.0817 121.323 18.1605C121.244 18.2393 121.156 18.274 121.038 18.274V18.2729Z" fill="white" stroke="white" stroke-width="0.5"/>
<path d="M59.2883 18.2729C59.1725 18.2729 59.0856 18.237 59.008 18.1559C58.9257 18.0713 58.8887 17.981 58.8887 17.8628V9.12017C58.8887 9.00664 58.9234 8.91976 59.0022 8.84099C59.081 8.76222 59.169 8.72746 59.2883 8.72746C59.4076 8.72746 59.4957 8.76222 59.5745 8.84099C59.6532 8.91976 59.688 9.00548 59.688 9.11901V17.8628C59.688 17.9798 59.6509 18.0702 59.5687 18.1559C59.4911 18.237 59.4042 18.2729 59.2883 18.2729Z" fill="white" stroke="white" stroke-width="0.5"/>
<path d="M86.8057 18.2727C86.6899 18.2727 86.603 18.2368 86.5242 18.1545C86.4431 18.0699 86.4072 17.9796 86.4072 17.8626V13.4641C86.4119 13.3621 86.4489 13.2775 86.5265 13.1965C86.5984 13.1223 86.6806 13.0864 86.7907 13.0806H86.8115C86.9262 13.0806 87.0142 13.1165 87.093 13.1953C87.1706 13.2729 87.2054 13.3586 87.2054 13.4733V17.8626C87.2054 17.9796 87.1683 18.07 87.0861 18.1568C87.0084 18.2368 86.9216 18.2727 86.8057 18.2727Z" fill="white" stroke="white" stroke-width="0.5"/>
<path d="M132.473 18.2728C131.16 18.2728 130.026 17.8002 129.102 16.8665C128.176 15.9328 127.707 14.7975 127.707 13.4908C127.707 12.1841 128.176 11.0523 129.101 10.1244C130.025 9.19653 131.159 8.72621 132.473 8.72621H141.171C141.297 8.72621 141.387 8.76096 141.466 8.8409C141.544 8.91967 141.579 9.00539 141.579 9.11892C141.579 9.23244 141.542 9.32628 141.46 9.41084C141.382 9.49193 141.293 9.52784 141.17 9.52784H132.472C131.377 9.52784 130.432 9.91591 129.664 10.6805C128.894 11.4462 128.504 12.3915 128.504 13.4908C128.504 14.5902 128.894 15.5354 129.664 16.3012C130.432 17.0657 131.376 17.4538 132.472 17.4538H141.17C141.292 17.4538 141.381 17.4897 141.46 17.5708C141.542 17.6565 141.579 17.7457 141.579 17.8627C141.579 17.9797 141.542 18.0701 141.46 18.1558C141.382 18.2369 141.293 18.2728 141.171 18.2728H132.473Z" fill="white" stroke="white" stroke-width="0.5"/>
<path d="M148.401 18.2729C148.279 18.2729 148.19 18.237 148.111 18.1559C148.029 18.0702 147.993 17.981 147.993 17.864V9.12017C147.993 9.00664 148.028 8.91976 148.107 8.84099C148.185 8.76222 148.276 8.72746 148.401 8.72746H160.592C160.708 8.72746 160.798 8.76453 160.883 8.84678C160.964 8.92555 161 9.00896 161 9.12017C161 9.23138 160.962 9.32289 160.878 9.40746C160.794 9.49202 160.706 9.53025 160.592 9.53025H149.214C148.981 9.53025 148.791 9.72023 148.791 9.95423V17.0311C148.791 17.2651 148.981 17.455 149.214 17.455H160.592C160.706 17.455 160.794 17.4933 160.878 17.5778C160.963 17.6624 161 17.7516 161 17.8651C161 17.9786 160.962 18.0678 160.877 18.1524C160.793 18.237 160.705 18.274 160.592 18.274H148.401V18.2729Z" fill="white" stroke="white" stroke-width="0.5"/>
<path d="M154.039 13.9009C153.917 13.9009 153.828 13.865 153.75 13.7839C153.668 13.6982 153.631 13.6078 153.631 13.4908C153.631 13.3738 153.668 13.2834 153.75 13.1989C153.828 13.1178 153.917 13.0819 154.04 13.0819H159.73C159.84 13.0819 159.925 13.1178 160.002 13.1989C160.084 13.2846 160.12 13.3738 160.12 13.4908C160.12 13.6078 160.083 13.6982 160.001 13.7827C159.923 13.8638 159.839 13.8997 159.729 13.8997H154.039V13.9009Z" fill="white" stroke="white" stroke-width="0.5"/>
<path d="M112.762 13.9009C112.641 13.9009 112.551 13.865 112.474 13.7839C112.392 13.6982 112.354 13.6078 112.354 13.4908C112.354 13.3738 112.392 13.2834 112.474 13.1989C112.551 13.1178 112.641 13.0819 112.763 13.0819H118.454C118.564 13.0819 118.648 13.1178 118.726 13.1989C118.808 13.2846 118.844 13.3738 118.844 13.4908C118.844 13.6078 118.807 13.6982 118.725 13.7827C118.647 13.8638 118.562 13.8997 118.452 13.8997H112.762V13.9009Z" fill="white" stroke="white" stroke-width="0.5"/>
<path d="M99.87 18.2728C99.797 18.2728 99.731 18.2485 99.6534 18.1952L93.0816 13.8117C93.0701 13.8024 93.0527 13.7885 93.0365 13.7723C92.9554 13.6912 92.9195 13.602 92.9195 13.4827C92.9195 13.3634 92.9542 13.2742 93.0341 13.1954C93.1129 13.1166 93.1986 13.0807 93.311 13.0807H97.698C98.1845 13.0807 98.6073 12.9081 98.9525 12.5675C99.3012 12.2258 99.4773 11.8007 99.4773 11.3037C99.4773 10.8067 99.3001 10.3828 98.9514 10.0399C98.6062 9.69929 98.1833 9.52668 97.6968 9.52668H86.8111C86.6895 9.52668 86.5991 9.49077 86.5215 9.40968C86.4392 9.32512 86.4033 9.23476 86.4033 9.11776C86.4033 9.00076 86.4381 8.91851 86.5168 8.83858C86.5945 8.76096 86.686 8.72621 86.8111 8.72621H97.6968C98.4011 8.72621 99.0139 8.98222 99.5179 9.48614C100.021 9.99121 100.275 10.6029 100.275 11.3037C100.275 11.7254 100.185 12.1158 100.008 12.4621C99.8862 12.6996 99.7217 12.9243 99.5167 13.1317C99.0811 13.5719 98.5656 13.8256 97.9853 13.8847C97.8914 13.8939 97.7941 13.8997 97.698 13.8997H96.0542C95.8665 13.8997 95.7043 14.0202 95.6487 14.2009C95.5943 14.3816 95.6626 14.5716 95.819 14.6759L100.091 17.5337C100.136 17.5638 100.18 17.6171 100.222 17.6878C100.258 17.7515 100.277 17.8106 100.277 17.8604C100.277 17.9484 100.257 18.0179 100.212 18.0851C100.184 18.128 100.129 18.1709 100.057 18.2114C99.9859 18.2496 99.921 18.2705 99.8689 18.2705L99.87 18.2728Z" fill="white" stroke="white" stroke-width="0.5"/>
<path d="M79.5898 18.2729C79.5747 18.2729 79.5597 18.2729 79.5446 18.2706C79.4473 18.2625 79.3708 18.2254 79.3025 18.1547C79.2202 18.069 79.1843 17.9798 79.1843 17.8628V16.8376C79.1843 16.6847 79.1033 16.5445 78.9712 16.4692L70.4324 9.69011C70.3015 9.58586 70.137 9.52793 69.9691 9.52793H67.0255C66.9618 9.52793 66.9097 9.58006 66.9097 9.64378V17.8616C66.9097 17.9786 66.8726 18.069 66.7903 18.1547C66.7127 18.2358 66.6259 18.2717 66.51 18.2717C66.3942 18.2717 66.3073 18.2358 66.2297 18.1547C66.1474 18.069 66.1104 17.9786 66.1104 17.8616V9.11901C66.1104 9.00548 66.1451 8.9186 66.2239 8.84099C66.3015 8.76222 66.3872 8.72746 66.5007 8.72746H70.2042C70.3131 8.72746 70.4209 8.76453 70.5054 8.83288C71.0082 9.23254 78.5391 15.2077 78.5391 15.2077C78.5437 15.2123 78.5495 15.2158 78.5553 15.2193C78.6179 15.254 78.6885 15.2714 78.7592 15.2714C78.8368 15.2714 78.9121 15.2506 78.977 15.21C79.1021 15.1359 79.182 14.9969 79.182 14.8474V9.11901C79.182 9.00548 79.2168 8.91976 79.2955 8.84099C79.3732 8.76222 79.4612 8.72746 79.5817 8.72746C79.7022 8.72746 79.789 8.76222 79.8678 8.84099C79.9454 8.91976 79.9813 9.00548 79.9813 9.11901V17.8628C79.9813 17.9844 79.9419 18.0771 79.8539 18.1628C79.7809 18.2347 79.6894 18.2729 79.5886 18.2729H79.5898Z" fill="white" stroke="white" stroke-width="0.5"/>
<path d="M46.0018 11.8217C44.6684 13.6682 42.6296 15.5576 40.0567 17.3369C39.9386 17.0856 39.7868 16.8562 39.6084 16.6488C45.0565 12.8805 47.7822 8.80861 46.7733 5.83956C46.2601 4.33129 44.7866 3.15433 42.5126 2.43843C40.819 1.90439 38.7141 1.63216 36.3359 1.63216C35.5099 1.63216 34.6492 1.6646 33.7618 1.73179C30.641 1.96463 27.2584 2.60292 23.8503 3.59454H21.1211C25.4107 2.13029 29.7583 1.20355 33.7004 0.909307C41.1885 0.350946 46.3655 2.09438 47.5482 5.57197C48.168 7.39649 47.634 9.55695 46.0006 11.8205L46.0018 11.8217Z" fill="#2D95D3" stroke="#2D95D3" stroke-width="0.5"/>
<path d="M29.0344 22.0506H31.269C30.1268 22.5267 28.9544 22.9716 27.7636 23.3793C24.4424 24.5169 21.1397 25.3243 17.9459 25.7796C16.0114 26.0553 14.1706 26.1931 12.4608 26.1931C10.4428 26.1931 8.60903 26.0008 7.0243 25.6186C3.92899 24.8714 1.93418 23.421 1.25534 21.4274C0.497733 19.2021 1.43374 16.5493 3.96027 13.7575C5.2577 12.3245 6.91077 10.9182 8.85924 9.58249V10.5892C3.72163 14.2336 1.02829 18.2174 2.03033 21.1609C2.61302 22.8754 4.40626 24.1404 7.21544 24.8181C10.0432 25.5016 13.713 25.5514 17.8301 24.9652C20.9729 24.5169 24.2258 23.7211 27.4983 22.6009C28.0138 22.4236 28.527 22.2406 29.0344 22.0506Z" fill="#E51848" stroke="#E51848" stroke-width="0.5"/>
<path d="M11.8825 19.5484C11.6531 19.5484 11.4678 19.363 11.4678 19.1337V9.25347C11.4678 7.34902 12.6019 6.2126 14.5005 6.2126H33.0655C34.9965 6.2126 36.5674 7.78806 36.5674 9.72495C36.5674 11.6618 34.9965 13.2373 33.0655 13.2373H21.3549C19.8814 13.2373 18.6813 14.4409 18.6813 15.9202C18.6813 17.3995 19.8803 18.6031 21.3549 18.6031H36.7492C36.9786 18.6031 37.164 18.7885 37.164 19.0178C37.164 19.2472 36.9786 19.4325 36.7492 19.4325H21.3561C19.425 19.4325 17.8542 17.8571 17.8542 15.9202C17.8542 13.9833 19.425 12.4079 21.3561 12.4079H33.0666C34.5401 12.4079 35.7403 11.2043 35.7403 9.72495C35.7403 8.24564 34.5413 7.04203 33.0666 7.04203H14.5005C12.6795 7.04203 12.296 8.24564 12.296 9.25462V19.1348C12.296 19.3642 12.1107 19.5495 11.8813 19.5495L11.8825 19.5484Z" fill="#D04592" stroke="#D04592" stroke-width="0.5"/>
</svg>
