<svg width="335" height="49" viewBox="0 0 335 49" fill="none" xmlns="http://www.w3.org/2000/svg">
<g clip-path="url(#clip0_288_1170)">
<path d="M251.327 33.2562C251.078 33.2562 250.893 33.191 250.728 33.0433C250.563 32.8956 250.491 32.7349 250.491 32.522V24.3248C250.491 22.2636 249.673 20.4912 248.063 19.0555C246.455 17.622 244.478 16.8943 242.183 16.8943H233.095C230.803 16.8943 228.827 17.622 227.216 19.0555C225.606 20.4912 224.788 22.2636 224.788 24.3248V32.522C224.788 32.7349 224.716 32.8956 224.551 33.0455C224.386 33.1932 224.201 33.2584 223.954 33.2584C223.707 33.2584 223.52 33.1932 223.355 33.0433C223.192 32.8956 223.117 32.7349 223.117 32.522V24.3248C223.117 21.8748 224.099 19.7462 226.037 17.9955C227.973 16.2471 230.347 15.3587 233.095 15.3587H242.183C244.931 15.3587 247.306 16.2449 249.241 17.9955C251.179 19.7462 252.162 21.8748 252.162 24.3248V32.522C252.162 32.7349 252.089 32.8978 251.924 33.0455C251.759 33.1932 251.575 33.2584 251.327 33.2584V33.2562Z" fill="white"/>
<path d="M122.04 33.2562C121.797 33.2562 121.615 33.1889 121.453 33.0368C121.281 32.8783 121.203 32.7088 121.203 32.4873V16.095C121.203 15.8822 121.276 15.7193 121.441 15.5716C121.606 15.4239 121.79 15.3587 122.04 15.3587C122.29 15.3587 122.474 15.4239 122.639 15.5716C122.804 15.7193 122.877 15.88 122.877 16.0928V32.4873C122.877 32.7067 122.799 32.8761 122.627 33.0368C122.464 33.1889 122.282 33.2562 122.04 33.2562Z" fill="white"/>
<path d="M179.655 33.2558C179.412 33.2558 179.23 33.1884 179.065 33.0342C178.896 32.8757 178.82 32.7062 178.82 32.4869V24.2397C178.83 24.0486 178.908 23.89 179.07 23.738C179.221 23.5989 179.393 23.5316 179.623 23.5208H179.667C179.907 23.5208 180.091 23.5881 180.256 23.7358C180.419 23.8813 180.491 24.042 180.491 24.2571V32.4869C180.491 32.7062 180.414 32.8757 180.242 33.0386C180.079 33.1884 179.897 33.2558 179.655 33.2558Z" fill="white"/>
<path d="M275.267 33.256C272.519 33.256 270.145 32.3698 268.209 30.6191C266.271 28.8685 265.289 26.7399 265.289 24.2899C265.289 21.8398 266.271 19.7177 268.207 17.978C270.142 16.2382 272.517 15.3563 275.267 15.3563H293.48C293.742 15.3563 293.931 15.4215 294.096 15.5714C294.261 15.7191 294.334 15.8798 294.334 16.0926C294.334 16.3055 294.256 16.4814 294.084 16.64C293.921 16.792 293.734 16.8594 293.477 16.8594H275.265C272.973 16.8594 270.994 17.587 269.386 19.0205C267.775 20.4562 266.958 22.2286 266.958 24.2899C266.958 26.3511 267.775 28.1235 269.386 29.5592C270.994 30.9927 272.97 31.7204 275.265 31.7204H293.477C293.732 31.7204 293.919 31.7877 294.084 31.9397C294.256 32.1005 294.334 32.2677 294.334 32.4871C294.334 32.7065 294.256 32.8759 294.084 33.0366C293.921 33.1886 293.734 33.256 293.48 33.256H275.267Z" fill="white"/>
<path d="M308.619 33.2562C308.365 33.2562 308.178 33.1889 308.013 33.0368C307.841 32.8761 307.766 32.7088 307.766 32.4895V16.095C307.766 15.8822 307.838 15.7193 308.003 15.5716C308.168 15.4239 308.357 15.3587 308.619 15.3587H334.145C334.387 15.3587 334.576 15.4282 334.753 15.5824C334.923 15.7301 334.998 15.8865 334.998 16.095C334.998 16.3035 334.918 16.4751 334.744 16.6337C334.567 16.7922 334.382 16.8639 334.145 16.8639H310.322C309.834 16.8639 309.437 17.2201 309.437 17.6589V30.9278C309.437 31.3665 309.834 31.7227 310.322 31.7227H334.145C334.382 31.7227 334.567 31.7944 334.744 31.953C334.921 32.1115 334.998 32.2788 334.998 32.4916C334.998 32.7045 334.918 32.8717 334.741 33.0303C334.564 33.1889 334.38 33.2584 334.145 33.2584H308.619V33.2562Z" fill="white"/>
<path d="M320.42 25.0588C320.165 25.0588 319.979 24.9914 319.816 24.8394C319.644 24.6786 319.566 24.5092 319.566 24.2899C319.566 24.0705 319.644 23.9011 319.816 23.7425C319.979 23.5905 320.165 23.5231 320.423 23.5231H332.336C332.567 23.5231 332.744 23.5905 332.906 23.7425C333.078 23.9032 333.154 24.0705 333.154 24.2899C333.154 24.5092 333.076 24.6787 332.904 24.8372C332.741 24.9892 332.564 25.0566 332.334 25.0566H320.42V25.0588Z" fill="white"/>
<path d="M233.998 25.0588C233.744 25.0588 233.557 24.9914 233.394 24.8394C233.222 24.6786 233.145 24.5092 233.145 24.2899C233.145 24.0705 233.222 23.9011 233.394 23.7425C233.557 23.5905 233.744 23.5231 234.001 23.5231H245.914C246.145 23.5231 246.322 23.5905 246.484 23.7425C246.657 23.9032 246.732 24.0705 246.732 24.2899C246.732 24.5092 246.654 24.6787 246.482 24.8372C246.319 24.9892 246.142 25.0566 245.912 25.0566H233.998V25.0588Z" fill="white"/>
<path d="M207.008 33.256C206.855 33.256 206.717 33.2104 206.555 33.1105L192.795 24.8915C192.771 24.8741 192.734 24.8481 192.7 24.8177C192.531 24.6656 192.456 24.4984 192.456 24.2747C192.456 24.0509 192.528 23.8837 192.696 23.736C192.861 23.5883 193.04 23.521 193.275 23.521H202.46C203.479 23.521 204.364 23.1973 205.087 22.5588C205.817 21.918 206.186 21.1209 206.186 20.1891C206.186 19.2573 205.815 18.4623 205.085 17.8194C204.362 17.1808 203.477 16.8572 202.458 16.8572H179.666C179.412 16.8572 179.222 16.7899 179.06 16.6378C178.888 16.4793 178.812 16.3098 178.812 16.0905C178.812 15.8711 178.885 15.7169 179.05 15.567C179.213 15.4215 179.404 15.3563 179.666 15.3563H202.458C203.933 15.3563 205.216 15.8363 206.271 16.7812C207.323 17.7282 207.857 18.875 207.857 20.1891C207.857 20.9797 207.668 21.7117 207.297 22.3611C207.042 22.8064 206.698 23.2277 206.268 23.6165C205.356 24.4419 204.277 24.9176 203.062 25.0283C202.865 25.0457 202.662 25.0566 202.46 25.0566H199.019C198.626 25.0566 198.286 25.2825 198.17 25.6213C198.056 25.9601 198.199 26.3164 198.526 26.5118L207.471 31.8702C207.566 31.9267 207.658 32.0266 207.745 32.1591C207.821 32.2786 207.859 32.3893 207.859 32.4827C207.859 32.6478 207.818 32.7781 207.724 32.9041C207.665 32.9845 207.551 33.0648 207.399 33.1409C207.251 33.2125 207.115 33.2516 207.006 33.2516L207.008 33.256Z" fill="white"/>
<path d="M164.546 33.2562C164.515 33.2562 164.483 33.2562 164.452 33.2518C164.248 33.2366 164.088 33.1671 163.945 33.0346C163.773 32.8739 163.698 32.7067 163.698 32.4873V30.565C163.698 30.2783 163.528 30.0155 163.251 29.8743L145.373 17.1637C145.099 16.9682 144.755 16.8596 144.403 16.8596H138.24C138.107 16.8596 137.998 16.9573 137.998 17.0768V32.4851C137.998 32.7045 137.92 32.8739 137.748 33.0346C137.585 33.1867 137.404 33.254 137.161 33.254C136.918 33.254 136.737 33.1867 136.574 33.0346C136.402 32.8739 136.324 32.7045 136.324 32.4851V16.0928C136.324 15.88 136.397 15.7171 136.562 15.5716C136.724 15.4239 136.904 15.3587 137.142 15.3587H144.896C145.124 15.3587 145.349 15.4282 145.526 15.5564C146.579 16.3057 162.347 27.509 162.347 27.509C162.356 27.5177 162.368 27.5242 162.381 27.5307C162.512 27.5959 162.66 27.6285 162.807 27.6285C162.97 27.6285 163.128 27.5894 163.263 27.5134C163.525 27.3743 163.693 27.1137 163.693 26.8335V16.0928C163.693 15.88 163.766 15.7193 163.93 15.5716C164.093 15.4239 164.277 15.3587 164.53 15.3587C164.782 15.3587 164.964 15.4239 165.129 15.5716C165.291 15.7193 165.366 15.88 165.366 16.0928V32.4873C165.366 32.7153 165.284 32.8891 165.099 33.0498C164.947 33.1845 164.755 33.2562 164.544 33.2562H164.546Z" fill="white"/>
<path d="M94.2222 21.1603C91.4306 24.6225 87.1618 28.165 81.7749 31.5013C81.5275 31.0299 81.2098 30.5999 80.8363 30.2111C92.2431 23.1455 97.9501 15.5108 95.8376 9.94393C94.7631 7.11596 91.678 4.90918 86.9168 3.56687C83.3709 2.56557 78.9639 2.05514 73.9845 2.05514C72.2551 2.05514 70.453 2.11596 68.5952 2.24193C62.0611 2.67851 54.9788 3.8753 47.8432 5.73455H42.1289C51.1103 2.98911 60.2129 1.25149 68.4666 0.699796C84.1446 -0.34712 94.9838 2.92178 97.4602 9.44219C98.7578 12.8631 97.6397 16.914 94.2198 21.1581L94.2222 21.1603Z" fill="#2D95D3"/>
<path d="M58.6964 40.3394H63.375C60.9835 41.2321 58.529 42.0662 56.0357 42.8307C49.082 44.9637 42.1671 46.4776 35.4802 47.3312C31.4297 47.8481 27.5757 48.1066 23.9958 48.1066C19.7707 48.1066 15.9312 47.746 12.6132 47.0292C6.1325 45.6283 1.95592 42.9089 0.534619 39.1709C-1.05161 34.9984 0.908135 30.0245 6.19799 24.7899C8.91447 22.1031 12.3756 19.4663 16.4551 16.9619V18.8494C5.69835 25.6826 0.0592356 33.1522 2.15723 38.6713C3.37722 41.8859 7.13178 44.2577 13.0134 45.5284C18.9339 46.8099 26.6177 46.9033 35.2376 45.8042C41.8178 44.9637 48.6284 43.4715 55.4802 41.3711C56.5596 41.0388 57.634 40.6956 58.6964 40.3394Z" fill="#E51848"/>
<path d="M22.7863 35.6478C22.306 35.6478 21.918 35.3003 21.918 34.8702V16.345C21.918 12.7742 24.2925 10.6434 28.2677 10.6434H67.1376C71.1808 10.6434 74.4697 13.5974 74.4697 17.229C74.4697 20.8606 71.1808 23.8146 67.1376 23.8146H42.619C39.5338 23.8146 37.0211 26.0713 37.0211 28.845C37.0211 31.6187 39.5314 33.8754 42.619 33.8754H74.8505C75.3307 33.8754 75.7188 34.2229 75.7188 34.653C75.7188 35.083 75.3307 35.4306 74.8505 35.4306H42.6214C38.5782 35.4306 35.2893 32.4766 35.2893 28.845C35.2893 25.2134 38.5782 22.2594 42.6214 22.2594H67.1401C70.2252 22.2594 72.7379 20.0027 72.7379 17.229C72.7379 14.4553 70.2276 12.1986 67.1401 12.1986H28.2677C24.455 12.1986 23.6521 14.4553 23.6521 16.3472V34.8724C23.6521 35.3024 23.2641 35.6499 22.7838 35.6499L22.7863 35.6478Z" fill="#D04592"/>
</g>
<defs>
<clipPath id="clip0_288_1170">
<rect width="335" height="47.5977" fill="white" transform="translate(0 0.508667)"/>
</clipPath>
</defs>
</svg>
