<svg width="291" height="26" viewBox="0 0 291 26" fill="none" xmlns="http://www.w3.org/2000/svg">
<path fill-rule="evenodd" clip-rule="evenodd" d="M17.5 13C17.1022 13 16.7207 12.842 16.4393 12.5607C16.158 12.2794 16 11.8978 16 11.5V3.5C16 3.10218 16.158 2.72064 16.4393 2.43934C16.7207 2.15803 17.1022 2 17.5 2C17.8978 2 18.2793 2.15803 18.5607 2.43934C18.842 2.72064 19 3.10218 19 3.5V11.5C19 11.8978 18.842 12.2794 18.5607 12.5607C18.2793 12.842 17.8978 13 17.5 13ZM13.5 11C13.1022 11 12.7207 10.842 12.4393 10.5607C12.158 10.2794 12 9.89782 12 9.5V1.5C12 1.10218 12.158 0.720643 12.4393 0.439339C12.7207 0.158034 13.1022 0 13.5 0C13.8978 0 14.2793 0.158034 14.5607 0.439339C14.842 0.720643 15 1.10218 15 1.5V9.5C15 9.89782 14.842 10.2794 14.5607 10.5607C14.2793 10.842 13.8978 11 13.5 11ZM9.51601 12H9.48399C9.09049 11.9997 8.7132 11.8433 8.43495 11.5651C8.15671 11.2868 8.00026 10.9095 8 10.516V3.484C8.00026 3.0905 8.15671 2.71319 8.43495 2.43494C8.7132 2.1567 9.09049 2.00026 9.48399 2H9.51601C9.90951 2.00026 10.2868 2.1567 10.565 2.43494C10.8433 2.71319 10.9997 3.0905 11 3.484V10.515C11 10.9087 10.8437 11.2862 10.5654 11.5647C10.2871 11.8432 9.90968 11.9997 9.51601 12ZM5.5 13C5.10218 13 4.72065 12.842 4.43935 12.5607C4.15804 12.2794 4 11.8978 4 11.5V6.5C4 6.10218 4.15804 5.72064 4.43935 5.43934C4.72065 5.15803 5.10218 5 5.5 5C5.89782 5 6.27935 5.15803 6.56065 5.43934C6.84196 5.72064 7 6.10218 7 6.5V11.5C7 11.8978 6.84196 12.2794 6.56065 12.5607C6.27935 12.842 5.89782 13 5.5 13Z" fill="#F3C4B7"/>
<path fill-rule="evenodd" clip-rule="evenodd" d="M16 7V6H19V7H16ZM15 7H12V6H15V7ZM8 6H11V7H8V6ZM4 6H7V7H4V6Z" fill="#E1AEA0"/>
<path fill-rule="evenodd" clip-rule="evenodd" d="M21.931 14C21.9748 14.3316 21.9978 14.6656 22 15V18C22 20.1217 21.1572 22.1566 19.6569 23.6569C18.1566 25.1571 16.1217 26 14 26H12C9.87827 26 7.84343 25.1571 6.34314 23.6569C4.84285 22.1566 4 20.1217 4 18V15C4.0022 14.6656 4.02524 14.3316 4.069 14H21.931Z" fill="#F3C4B7"/>
<path d="M25 7H0V20H25V7Z" fill="#76A158"/>
<path d="M25 7H0V8H25V7Z" fill="#87AE6B"/>
<path opacity="0.7" d="M7.5 17C9.433 17 11 15.433 11 13.5C11 11.567 9.433 10 7.5 10C5.567 10 4 11.567 4 13.5C4 15.433 5.567 17 7.5 17Z" fill="#9FD17D"/>
<path fill-rule="evenodd" clip-rule="evenodd" d="M25 20H0V19H12.237C12.5577 17.8504 13.2457 16.8372 14.1959 16.115C15.1461 15.3928 16.3065 15.0013 17.5 15C17.671 15 17.833 15.035 18 15.05V11.5C18 11.1022 18.158 10.7206 18.4393 10.4393C18.7207 10.158 19.1022 10 19.5 10C19.8978 10 20.2793 10.158 20.5607 10.4393C20.842 10.7206 21 11.1022 21 11.5V19H25V20Z" fill="#669248"/>
<path d="M22 11.5C22 10.6716 21.3284 10 20.5 10C19.6716 10 19 10.6716 19 11.5V19.5C19 20.3284 19.6716 21 20.5 21C21.3284 21 22 20.3284 22 19.5V11.5Z" fill="#F3C4B7"/>
<path fill-rule="evenodd" clip-rule="evenodd" d="M13.1 21.9998C12.8921 21.0051 12.9933 19.9706 13.3902 19.035C13.7871 18.0995 14.4607 17.3078 15.3205 16.7661C16.1804 16.2244 17.1853 15.9587 18.2005 16.0046C19.2157 16.0505 20.1926 16.4058 21 17.0228V21.9998H13.1Z" fill="#F3C4B7"/>
<path fill-rule="evenodd" clip-rule="evenodd" d="M68 25.5H52C51.47 25.5 50.961 25.2893 50.586 24.9142C50.211 24.5391 50 24.0304 50 23.5V14.5V12.5C50.001 11.9931 50.195 11.5056 50.543 11.137L50.549 11.105L63 0.5H64V10.5H70V25.5H68Z" fill="#FFCF06"/>
<path fill-rule="evenodd" clip-rule="evenodd" d="M64 10.5H67V19.5L52 24.5L64 16.5V10.5Z" fill="#D3AC06"/>
<path fill-rule="evenodd" clip-rule="evenodd" d="M59.0511 9.84224C59.2161 9.69854 59.4101 9.59174 59.6191 9.52904C59.8291 9.46642 60.0491 9.44934 60.2661 9.47899C60.4831 9.50864 60.6911 9.58434 60.8761 9.70094C61.0611 9.81764 61.2191 9.97254 61.3391 10.1552C61.4961 10.5985 61.4921 11.083 61.3281 11.5235C61.1631 11.9641 60.8481 12.3326 60.4391 12.5642C60.2741 12.708 60.0801 12.8147 59.8711 12.8774C59.6611 12.94 59.4411 12.9571 59.2241 12.9275C59.0071 12.8978 58.7991 12.8221 58.6141 12.7055C58.4291 12.5888 58.2711 12.434 58.1511 12.2512C57.9941 11.8079 57.9981 11.3235 58.1621 10.8829C58.3271 10.4423 58.6421 10.0738 59.0511 9.84224Z" fill="#231F20"/>
<path fill-rule="evenodd" clip-rule="evenodd" d="M117.5 25.5C124.404 25.5 130 19.9036 130 13C130 6.09644 124.404 0.5 117.5 0.5C110.596 0.5 105 6.09644 105 13C105 19.9036 110.596 25.5 117.5 25.5ZM117.5 17.8611C120.185 17.8611 122.361 15.6847 122.361 13C122.361 10.3153 120.185 8.13889 117.5 8.13889C114.815 8.13889 112.639 10.3153 112.639 13C112.639 15.6847 114.815 17.8611 117.5 17.8611Z" fill="#8A42F9"/>
<path d="M105 3.5H95L100.333 22.5H105V3.5Z" fill="#8A42F9"/>
<path d="M167.5 25.5C174.404 25.5 180 19.9036 180 13C180 6.09644 174.404 0.5 167.5 0.5C160.596 0.5 155 6.09644 155 13C155 19.9036 160.596 25.5 167.5 25.5Z" fill="#EC0020"/>
<path d="M187.5 25.5C194.404 25.5 200 19.9036 200 13C200 6.09644 194.404 0.5 187.5 0.5C180.596 0.5 175 6.09644 175 13C175 19.9036 180.596 25.5 187.5 25.5Z" fill="#FE9A0C"/>
<path fill-rule="evenodd" clip-rule="evenodd" d="M163.561 16.4598H162.443L163.466 10.7678H163.447L161.357 16.4598H160L159.975 10.7678H159.956L159.126 16.4598H158L159.225 9.46875H160.975L161.05 14.9148H161.069L163.052 9.46875H164.782L163.564 16.4598H163.561ZM171.984 12.5598C171.49 12.4617 170.987 12.4251 170.484 12.4508C169.878 12.5238 169.746 12.7068 169.708 12.9188C169.569 13.7018 172.328 12.9508 171.993 14.7648C171.906 15.2698 171.638 15.726 171.24 16.0482C170.841 16.3704 170.339 16.5366 169.827 16.5158C169.221 16.5605 168.613 16.4784 168.041 16.2748L168.205 15.3168C168.767 15.4372 169.342 15.4889 169.916 15.4708C170.103 15.4885 170.291 15.4505 170.456 15.3615C170.621 15.2725 170.756 15.1365 170.844 14.9708C170.996 14.1448 168.244 14.7708 168.577 12.9228C168.667 12.4692 168.925 12.0665 169.3 11.7961C169.676 11.5256 170.139 11.4076 170.598 11.4658C171.12 11.4718 171.639 11.5506 172.139 11.6998L171.987 12.5618L171.984 12.5598ZM172.616 12.3288L173.026 10.4818H174.144L173.904 11.4068H174.6L174.43 12.3278H173.73L173.238 14.9968C173.187 15.2898 173.175 15.3968 173.629 15.3968C173.708 15.3964 173.786 15.389 173.863 15.3748L173.705 16.3688C173.528 16.3768 173.326 16.5008 173.149 16.5008H173.01C172.856 16.5334 172.695 16.5222 172.547 16.4684C172.398 16.4146 172.268 16.3205 172.17 16.1965C172.072 16.0726 172.011 15.9238 171.993 15.7669C171.976 15.6101 172.002 15.4514 172.07 15.3088L172.613 12.3248L172.616 12.3288ZM175.31 14.4588C175.264 14.5831 175.25 14.717 175.27 14.848C175.289 14.9791 175.341 15.1033 175.42 15.2093C175.5 15.3152 175.604 15.3996 175.725 15.4547C175.845 15.5098 175.978 15.5339 176.11 15.5248C176.806 15.5725 177.497 15.3728 178.061 14.9608L177.884 15.8828C177.312 16.3065 176.604 16.5067 175.895 16.4458C174.702 16.4458 173.895 15.7808 174.272 13.7618C174.386 13.1698 174.91 11.2678 176.766 11.2678C177.606 11.2678 178.68 11.9868 178.266 14.2328L178.228 14.4588H175.31ZM177.231 13.4998C177.314 12.6998 176.916 12.3368 176.556 12.3368C176.278 12.3907 176.025 12.5332 175.835 12.7428C175.644 12.9524 175.527 13.218 175.5 13.4998H177.236H177.231ZM178.968 11.4948H180.035L179.877 12.2488H179.9C180.016 11.9803 180.201 11.7481 180.438 11.5768C180.675 11.4055 180.954 11.3015 181.245 11.2758C181.321 11.2758 181.485 11.3128 181.555 11.3198L181.144 12.5998C180.97 12.5731 180.792 12.5822 180.621 12.6265C180.45 12.6708 180.29 12.7494 180.151 12.8574C180.012 12.9654 179.896 13.1007 179.81 13.255C179.725 13.4093 179.672 13.5793 179.654 13.7548L179.187 16.5088H178.069L178.969 11.4948H178.968ZM185.718 10.9618C185.304 10.6976 184.803 10.608 184.323 10.7128C183.755 10.8128 182.823 11.1518 182.473 13.0308C182.296 13.9888 182.391 15.1368 183.312 15.3558C183.63 15.4347 183.961 15.4436 184.283 15.3817C184.605 15.3199 184.909 15.1889 185.175 14.9978L184.875 16.2048C184.742 16.2558 184.622 16.5928 183.24 16.5048C181.712 16.4048 180.834 15.3048 181.257 13.0098C181.68 10.6918 183.057 9.49175 184.54 9.50976C184.801 9.50976 185.06 9.56506 185.298 9.67206C185.536 9.77916 185.749 9.93546 185.923 10.1308L185.723 10.9648L185.718 10.9618ZM195.796 16.4618H194.7L194.813 15.7068H194.8C194.652 15.935 194.449 16.1223 194.21 16.2513C193.97 16.3803 193.702 16.4468 193.43 16.4448C192.167 16.4448 191.876 15.1578 192.122 13.8058C192.438 12.1058 193.422 11.2668 194.358 11.2668C194.6 11.2521 194.839 11.3203 195.036 11.4601C195.234 11.6 195.378 11.8031 195.444 12.0358H195.463L195.892 9.48575H197.01L195.8 16.4598L195.796 16.4618ZM193.902 15.3848C194.243 15.3337 194.555 15.1642 194.784 14.906C195.012 14.6479 195.143 14.3175 195.152 13.9728C195.297 13.1828 195.247 12.3858 194.483 12.3858C194.134 12.4559 193.821 12.6457 193.597 12.9224C193.374 13.199 193.254 13.5451 193.258 13.9008C193.15 14.4778 193.188 15.3848 193.902 15.3848ZM189.052 15.2748C189.052 15.2748 188.945 15.8018 188.92 16.0648L188.863 16.5078H187.872C187.849 16.251 187.849 15.9926 187.872 15.7358C187.686 15.9531 187.456 16.1287 187.198 16.2509C186.939 16.3731 186.658 16.4392 186.372 16.4448C186.197 16.4544 186.023 16.42 185.865 16.3446C185.706 16.2692 185.57 16.1552 185.467 16.0133C185.365 15.8713 185.3 15.7058 185.278 15.532C185.256 15.3583 185.278 15.1818 185.342 15.0188C185.386 14.6243 185.561 14.2558 185.838 13.9712C186.114 13.6867 186.478 13.5022 186.871 13.4468L187.906 13.2708C188.089 13.2418 188.316 13.3808 188.373 13.1028C188.393 13.0147 188.391 12.923 188.367 12.8359C188.343 12.7488 188.297 12.6691 188.235 12.6039C188.172 12.5387 188.094 12.49 188.008 12.4622C187.922 12.4345 187.831 12.4285 187.742 12.4448C187.155 12.4226 186.57 12.5326 186.031 12.7668L186.283 11.8088C186.836 11.5404 187.452 11.4287 188.064 11.4858C188.664 11.5088 189.718 11.6988 189.516 12.8858L189.055 15.2698L189.052 15.2748ZM188.175 13.9218C187.93 14.0728 187.653 14.1633 187.366 14.1858C187.154 14.185 186.948 14.2593 186.785 14.3957C186.622 14.532 186.513 14.7216 186.476 14.9308C186.448 14.997 186.437 15.0693 186.444 15.1409C186.451 15.2126 186.476 15.2812 186.517 15.3405C186.558 15.3997 186.614 15.4476 186.678 15.4796C186.743 15.5117 186.814 15.5269 186.886 15.5238C187.163 15.5179 187.43 15.4185 187.643 15.2419C187.856 15.0653 188.004 14.8217 188.061 14.5508L188.175 13.9218ZM190.088 11.4938H191.155L191 12.3398H191.019C191.135 12.0714 191.321 11.8392 191.557 11.6679C191.794 11.4966 192.073 11.3926 192.364 11.3668C192.44 11.3668 192.604 11.4038 192.674 11.4108L192.263 12.6898C192.184 12.6769 192.103 12.6719 192.023 12.6748C191.87 12.6623 191.716 12.6803 191.57 12.7278C191.424 12.7753 191.289 12.8514 191.173 12.9516C191.056 13.0519 190.961 13.1742 190.892 13.3116C190.824 13.449 190.783 13.5986 190.773 13.7518L190.306 16.5058H189.188L190.088 11.4918V11.4938ZM167.788 15.2748C167.788 15.2748 167.681 15.8018 167.655 16.0648L167.599 16.5088H166.6C166.578 16.2516 166.578 15.993 166.6 15.7358C166.419 15.9632 166.191 16.1497 165.933 16.2827C165.674 16.4158 165.39 16.4925 165.1 16.5078C164.922 16.5078 164.747 16.4646 164.589 16.382C164.431 16.2993 164.296 16.1796 164.195 16.0332C164.094 15.8867 164.03 15.7179 164.008 15.5413C163.986 15.3646 164.008 15.1853 164.071 15.0188C164.115 14.6245 164.29 14.2561 164.566 13.9715C164.843 13.687 165.206 13.5024 165.599 13.4468L166.635 13.2708C166.745 13.2664 166.849 13.2261 166.934 13.1562C167.018 13.0863 167.077 12.9906 167.102 12.8838C167.197 12.3358 166.755 12.4208 166.471 12.4128C165.883 12.391 165.298 12.501 164.759 12.7348L165.012 11.7768C165.565 11.5086 166.181 11.3973 166.793 11.4548C167.393 11.4778 168.447 11.6678 168.245 12.8548L167.784 15.2708L167.788 15.2748ZM166.91 13.9218C166.666 14.073 166.389 14.1636 166.102 14.1858C165.89 14.185 165.684 14.2593 165.521 14.3957C165.358 14.532 165.249 14.7216 165.212 14.9308C165.184 14.997 165.173 15.0693 165.18 15.1409C165.187 15.2126 165.212 15.2812 165.253 15.3405C165.294 15.3997 165.35 15.4476 165.414 15.4796C165.479 15.5117 165.55 15.5269 165.622 15.5238C165.899 15.5179 166.166 15.4185 166.379 15.2419C166.592 15.0653 166.74 14.8217 166.797 14.5508L166.91 13.9218Z" fill="white"/>
<path fill-rule="evenodd" clip-rule="evenodd" d="M163.561 16.4598H162.443L163.466 10.7678H163.447L161.357 16.4598H160L159.975 10.7678H159.956L159.126 16.4598H158L159.225 9.46875H160.975L161.05 14.9148H161.069L163.052 9.46875H164.782L163.564 16.4598H163.561ZM171.984 12.5598C171.49 12.4617 170.987 12.4251 170.484 12.4508C169.878 12.5238 169.746 12.7068 169.708 12.9188C169.569 13.7018 172.328 12.9508 171.993 14.7648C171.906 15.2698 171.638 15.726 171.24 16.0482C170.841 16.3704 170.339 16.5366 169.827 16.5158C169.221 16.5605 168.613 16.4784 168.041 16.2748L168.205 15.3168C168.767 15.4372 169.342 15.4889 169.916 15.4708C170.103 15.4885 170.291 15.4505 170.456 15.3615C170.621 15.2725 170.756 15.1365 170.844 14.9708C170.996 14.1448 168.244 14.7708 168.577 12.9228C168.667 12.4692 168.925 12.0665 169.3 11.7961C169.676 11.5256 170.139 11.4076 170.598 11.4658C171.12 11.4718 171.639 11.5506 172.139 11.6998L171.987 12.5618L171.984 12.5598ZM172.616 12.3288L173.026 10.4818H174.144L173.904 11.4068H174.6L174.43 12.3278H173.73L173.238 14.9968C173.187 15.2898 173.175 15.3968 173.629 15.3968C173.708 15.3964 173.786 15.389 173.863 15.3748L173.705 16.3688C173.528 16.3768 173.326 16.5008 173.149 16.5008H173.01C172.856 16.5334 172.695 16.5222 172.547 16.4684C172.398 16.4146 172.268 16.3205 172.17 16.1965C172.072 16.0726 172.011 15.9238 171.993 15.7669C171.976 15.6101 172.002 15.4514 172.07 15.3088L172.613 12.3248L172.616 12.3288ZM175.31 14.4588C175.264 14.5831 175.25 14.717 175.27 14.848C175.289 14.9791 175.341 15.1033 175.42 15.2093C175.5 15.3152 175.604 15.3996 175.725 15.4547C175.845 15.5098 175.978 15.5339 176.11 15.5248C176.806 15.5725 177.497 15.3728 178.061 14.9608L177.884 15.8828C177.312 16.3065 176.604 16.5067 175.895 16.4458C174.702 16.4458 173.895 15.7808 174.272 13.7618C174.386 13.1698 174.91 11.2678 176.766 11.2678C177.606 11.2678 178.68 11.9868 178.266 14.2328L178.228 14.4588H175.31ZM177.231 13.4998C177.314 12.6998 176.916 12.3368 176.556 12.3368C176.278 12.3907 176.025 12.5332 175.835 12.7428C175.644 12.9524 175.527 13.218 175.5 13.4998H177.236H177.231ZM178.968 11.4948H180.035L179.877 12.2488H179.9C180.016 11.9803 180.201 11.7481 180.438 11.5768C180.675 11.4055 180.954 11.3015 181.245 11.2758C181.321 11.2758 181.485 11.3128 181.555 11.3198L181.144 12.5998C180.97 12.5731 180.792 12.5822 180.621 12.6265C180.45 12.6708 180.29 12.7494 180.151 12.8574C180.012 12.9654 179.896 13.1007 179.81 13.255C179.725 13.4093 179.672 13.5793 179.654 13.7548L179.187 16.5088H178.069L178.969 11.4948H178.968ZM185.718 10.9618C185.304 10.6976 184.803 10.608 184.323 10.7128C183.755 10.8128 182.823 11.1518 182.473 13.0308C182.296 13.9888 182.391 15.1368 183.312 15.3558C183.63 15.4347 183.961 15.4436 184.283 15.3817C184.605 15.3199 184.909 15.1889 185.175 14.9978L184.875 16.2048C184.742 16.2558 184.622 16.5928 183.24 16.5048C181.712 16.4048 180.834 15.3048 181.257 13.0098C181.68 10.6918 183.057 9.49175 184.54 9.50976C184.801 9.50976 185.06 9.56506 185.298 9.67206C185.536 9.77916 185.749 9.93546 185.923 10.1308L185.723 10.9648L185.718 10.9618ZM195.796 16.4618H194.7L194.813 15.7068H194.8C194.652 15.935 194.449 16.1223 194.21 16.2513C193.97 16.3803 193.702 16.4468 193.43 16.4448C192.167 16.4448 191.876 15.1578 192.122 13.8058C192.438 12.1058 193.422 11.2668 194.358 11.2668C194.6 11.2521 194.839 11.3203 195.036 11.4601C195.234 11.6 195.378 11.8031 195.444 12.0358H195.463L195.892 9.48575H197.01L195.8 16.4598L195.796 16.4618ZM193.902 15.3848C194.243 15.3337 194.555 15.1642 194.784 14.906C195.012 14.6479 195.143 14.3175 195.152 13.9728C195.297 13.1828 195.247 12.3858 194.483 12.3858C194.134 12.4559 193.821 12.6457 193.597 12.9224C193.374 13.199 193.254 13.5451 193.258 13.9008C193.15 14.4778 193.188 15.3848 193.902 15.3848ZM189.052 15.2748C189.052 15.2748 188.945 15.8018 188.92 16.0648L188.863 16.5078H187.872C187.849 16.251 187.849 15.9926 187.872 15.7358C187.686 15.9531 187.456 16.1287 187.198 16.2509C186.939 16.3731 186.658 16.4392 186.372 16.4448C186.197 16.4544 186.023 16.42 185.865 16.3446C185.706 16.2692 185.57 16.1552 185.467 16.0133C185.365 15.8713 185.3 15.7058 185.278 15.532C185.256 15.3583 185.278 15.1818 185.342 15.0188C185.386 14.6243 185.561 14.2558 185.838 13.9712C186.114 13.6867 186.478 13.5022 186.871 13.4468L187.906 13.2708C188.089 13.2418 188.316 13.3808 188.373 13.1028C188.393 13.0147 188.391 12.923 188.367 12.8359C188.343 12.7488 188.297 12.6691 188.235 12.6039C188.172 12.5387 188.094 12.49 188.008 12.4622C187.922 12.4345 187.831 12.4285 187.742 12.4448C187.155 12.4226 186.57 12.5326 186.031 12.7668L186.283 11.8088C186.836 11.5404 187.452 11.4287 188.064 11.4858C188.664 11.5088 189.718 11.6988 189.516 12.8858L189.055 15.2698L189.052 15.2748ZM188.175 13.9218C187.93 14.0728 187.653 14.1633 187.366 14.1858C187.154 14.185 186.948 14.2593 186.785 14.3957C186.622 14.532 186.513 14.7216 186.476 14.9308C186.448 14.997 186.437 15.0693 186.444 15.1409C186.451 15.2126 186.476 15.2812 186.517 15.3405C186.558 15.3997 186.614 15.4476 186.678 15.4796C186.743 15.5117 186.814 15.5269 186.886 15.5238C187.163 15.5179 187.43 15.4185 187.643 15.2419C187.856 15.0653 188.004 14.8217 188.061 14.5508L188.175 13.9218ZM190.088 11.4938H191.155L191 12.3398H191.019C191.135 12.0714 191.321 11.8392 191.557 11.6679C191.794 11.4966 192.073 11.3926 192.364 11.3668C192.44 11.3668 192.604 11.4038 192.674 11.4108L192.263 12.6898C192.184 12.6769 192.103 12.6719 192.023 12.6748C191.87 12.6623 191.716 12.6803 191.57 12.7278C191.424 12.7753 191.289 12.8514 191.173 12.9516C191.056 13.0519 190.961 13.1742 190.892 13.3116C190.824 13.449 190.783 13.5986 190.773 13.7518L190.306 16.5058H189.188L190.088 11.4918V11.4938ZM167.788 15.2748C167.788 15.2748 167.681 15.8018 167.655 16.0648L167.599 16.5088H166.6C166.578 16.2516 166.578 15.993 166.6 15.7358C166.419 15.9632 166.191 16.1497 165.933 16.2827C165.674 16.4158 165.39 16.4925 165.1 16.5078C164.922 16.5078 164.747 16.4646 164.589 16.382C164.431 16.2993 164.296 16.1796 164.195 16.0332C164.094 15.8867 164.03 15.7179 164.008 15.5413C163.986 15.3646 164.008 15.1853 164.071 15.0188C164.115 14.6245 164.29 14.2561 164.566 13.9715C164.843 13.687 165.206 13.5024 165.599 13.4468L166.635 13.2708C166.745 13.2664 166.849 13.2261 166.934 13.1562C167.018 13.0863 167.077 12.9906 167.102 12.8838C167.197 12.3358 166.755 12.4208 166.471 12.4128C165.883 12.391 165.298 12.501 164.759 12.7348L165.012 11.7768C165.565 11.5086 166.181 11.3973 166.793 11.4548C167.393 11.4778 168.447 11.6678 168.245 12.8548L167.784 15.2708L167.788 15.2748ZM166.91 13.9218C166.666 14.073 166.389 14.1636 166.102 14.1858C165.89 14.185 165.684 14.2593 165.521 14.3957C165.358 14.532 165.249 14.7216 165.212 14.9308C165.184 14.997 165.173 15.0693 165.18 15.1409C165.187 15.2126 165.212 15.2812 165.253 15.3405C165.294 15.3997 165.35 15.4476 165.414 15.4796C165.479 15.5117 165.55 15.5269 165.622 15.5238C165.899 15.5179 166.166 15.4185 166.379 15.2419C166.592 15.0653 166.74 14.8217 166.797 14.5508L166.91 13.9218Z" fill="white"/>
<path fill-rule="evenodd" clip-rule="evenodd" d="M241.546 21.5001V11.4001H241.1L237.9 21.5001H234.1H234.089L230.9 11.4001H230.457V21.5001H225V4.5001H230.465C231.146 4.49708 231.81 4.7132 232.359 5.11655C232.908 5.5199 233.313 6.08909 233.514 6.74009L235.76 14.5971H236.233L238.483 6.74009C238.685 6.08713 239.092 5.51663 239.644 5.11316C240.196 4.70968 240.863 4.49471 241.546 4.5001H247.011V21.5001H241.546Z" fill="#52B461"/>
<path fill-rule="evenodd" clip-rule="evenodd" d="M262.449 21.5V11.489H262.018L258.291 19.876C258.072 20.3605 257.718 20.7716 257.271 21.0596C256.823 21.3477 256.303 21.5006 255.771 21.5H250.995V4.5H256.495V14.511H256.946L260.72 6.111C260.73 6.089 260.739 6.068 260.749 6.047V6.041C260.977 5.5778 261.331 5.18787 261.77 4.91548C262.208 4.6431 262.715 4.49915 263.231 4.5H268.007V21.5H262.449Z" fill="#52B461"/>
<path fill-rule="evenodd" clip-rule="evenodd" d="M284.133 16.508H277.581V21.5H272.019V12.5H290.5C289.949 13.7188 289.051 14.7485 287.919 15.4612C286.787 16.1738 285.47 16.5378 284.133 16.508Z" fill="#52B461"/>
<path fill-rule="evenodd" clip-rule="evenodd" d="M290.85 10.5H280.279C275.688 10.5 271.871 7.728 271.067 4.5H284.628C288.139 4.5 290.984 6.934 290.984 9.53503C290.984 9.86133 290.939 10.186 290.85 10.5Z" fill="url(#paint0_linear_114_391)"/>
<defs>
<linearGradient id="paint0_linear_114_391" x1="17897" y1="580.5" x2="17500.5" y2="580.5" gradientUnits="userSpaceOnUse">
<stop stop-color="#198ECA"/>
<stop offset="1" stop-color="#1DB5E4"/>
</linearGradient>
</defs>
</svg>
