<svg width="330" height="106" viewBox="0 0 330 106" fill="none" xmlns="http://www.w3.org/2000/svg">
<g clip-path="url(#clip0_70_255)">
<g clip-path="url(#clip1_70_255)">
<path d="M4.18501 32.7354C2.50024 33.1911 1.05024 34.3787 0.263101 35.953L-0.206422 36.8782L-0.247851 54.2782C-0.27547 66.5273 -0.247851 72.0097 -0.137375 72.783C0.0421491 74.0673 0.760244 76.3044 1.39548 77.5749C3.4531 81.704 7.27834 84.9906 11.7941 86.5235C14.4593 87.4211 14.4869 87.4211 22.9936 87.4211C31.4174 87.4211 31.5002 87.4211 34.0688 86.5787C39.3026 84.894 43.846 80.5301 45.4893 75.5863C46.3041 73.1835 46.2902 73.2387 46.3869 64.9116C46.4698 57.2335 46.4698 57.1782 46.7874 56.3773C47.1879 55.3968 48.334 54.1263 49.3007 53.6016C52.2974 51.9721 56.0398 53.063 57.4898 55.9906L57.9317 56.9021L58.0145 64.4282C58.1112 72.6173 58.1526 73.1421 58.9398 75.4759C60.6936 80.6406 65.0021 84.8249 70.3602 86.5787C72.9012 87.4073 72.7769 87.3935 81.0626 87.4487C87.7326 87.504 88.9064 87.4763 90.1079 87.283C94.0159 86.634 97.5236 84.8387 100.258 82.1044C102.744 79.6187 104.29 76.8154 105.05 73.4044C105.243 72.5068 105.285 70.8359 105.354 60.5616L105.436 48.7544L105.837 47.9259C106.403 46.7797 107.356 45.8821 108.654 45.2606L109.717 44.7497H136.715H163.713L164.61 45.0673C166.654 45.7716 167.8 47.263 167.8 49.224C167.814 51.5301 166.281 53.1459 163.575 53.7259C162.746 53.8916 160.053 53.933 145.346 53.933C133.746 53.933 127.684 53.9882 126.841 54.0849C121.58 54.7201 117.119 57.2335 114.482 61.0449C110.546 66.7482 110.67 75.2135 114.758 80.7235C116.774 83.4301 120.005 85.6535 123.403 86.634C126.289 87.4763 124.217 87.4211 150.815 87.4625C174.18 87.4901 175.092 87.4901 175.893 87.2416C178.806 86.3301 180.657 83.2506 180.091 80.2816C179.663 78.1273 178.282 76.5254 176.141 75.7244L175.313 75.4068L151.629 75.3378L127.946 75.2687L127.145 74.9511C125.709 74.3711 124.466 73.1559 124.148 72.0511C123.941 71.2916 123.983 69.9521 124.231 69.2201C124.618 68.0601 125.764 67.0244 127.325 66.403C127.905 66.1682 129.134 66.1544 146.175 66.0854C162.732 66.0163 164.514 65.9749 165.618 65.7678C168.532 65.1878 171.045 64.1797 173.131 62.7435C174.498 61.8182 176.5 59.8159 177.356 58.5454C178.627 56.6121 179.511 54.4716 179.953 52.2759C180.215 50.9501 180.187 47.3597 179.884 45.8821C178.53 38.9359 173.531 34.2821 165.922 32.8321C164.776 32.6111 162.511 32.5973 136.715 32.5973H108.751L107.315 32.9149C103.545 33.7573 100.617 35.3454 97.9793 37.983C95.5488 40.3997 94.0988 42.9959 93.2564 46.4482C93.0631 47.2492 93.0217 48.8649 92.9526 59.1944L92.8698 71.0016L92.3588 72.0373C91.7236 73.3216 90.8121 74.2192 89.514 74.8268L88.5888 75.2687L82.0983 75.3101C76.3674 75.3516 75.5112 75.324 74.7379 75.1168C73.1083 74.6887 71.5755 73.4182 70.8574 71.8992L70.4983 71.1259L70.4155 63.5997C70.3188 55.5073 70.305 55.3278 69.5317 53.0216C68.6893 50.4944 67.3774 48.3954 65.3888 46.393C62.7926 43.783 59.7407 42.1397 56.026 41.3387C54.0098 40.9106 50.3917 40.9106 48.3755 41.3387C46.7736 41.684 44.9231 42.3054 43.7079 42.913C41.3464 44.1006 38.9574 46.103 37.3969 48.1882C35.8502 50.2597 34.6074 53.284 34.2621 55.7835C34.1655 56.4187 34.1102 59.5259 34.1102 63.5168C34.1102 69.0821 34.0688 70.3111 33.8893 70.9878C33.4612 72.6725 32.4117 73.9016 30.6855 74.744L29.636 75.2687H23.0074H16.365L15.4398 74.8268C14.1969 74.2468 13.2302 73.3078 12.6641 72.1754L12.2221 71.264L12.1531 54.3473L12.0841 37.4306L11.7802 36.7125C11.3245 35.5802 10.8412 34.8344 10.1783 34.213C8.61786 32.7768 6.21501 32.1968 4.18501 32.7354Z" fill="white"/>
<path d="M200.377 32.6796C193.5 33.5634 187.644 38.2587 185.532 44.5696C184.62 47.2901 184.62 47.4696 184.675 60.7544C184.717 71.291 184.744 72.7548 184.952 73.5834C185.822 77.1325 187.203 79.5906 189.73 82.1177C192.312 84.7001 195.046 86.2053 198.941 87.172C199.824 87.3929 202.255 87.4067 233.313 87.462C264.149 87.5034 266.801 87.4896 267.602 87.2686C269.273 86.8267 270.695 85.6115 271.427 84.0096C273.125 80.3086 270.847 76.1106 266.801 75.4753C266.207 75.3925 254.842 75.3372 233.92 75.3372C202.448 75.3372 201.91 75.3372 201.054 75.061C199.355 74.5363 197.974 73.2796 197.311 71.6501L196.994 70.8491V60.0777C196.994 47.8977 196.938 48.602 198.098 47.0553C198.761 46.1853 199.659 45.5225 200.805 45.0529L201.551 44.7491L234.417 44.6801C265.53 44.611 267.312 44.5972 267.905 44.3625C268.941 43.9482 269.604 43.5063 270.364 42.6915C273.512 39.3634 271.896 33.9087 267.422 32.7348C266.704 32.5553 262.879 32.5277 233.934 32.5415C215.968 32.5553 200.874 32.6106 200.377 32.6796Z" fill="white"/>
<path d="M285.941 23.3722C284.726 31.9893 284.187 36.0355 284.104 37.3612C283.897 40.7445 285.582 43.1612 288.965 44.3626L290.07 44.7493L303.023 44.7907C315.148 44.8184 315.963 44.846 315.963 45.0669C315.963 45.1912 315.576 47.2074 315.12 49.5412L314.264 53.7945H298.356H282.433L282.364 54.0984C282.157 54.9822 280.707 63.5993 280.762 63.6545C280.79 63.696 289.214 63.7236 299.46 63.7512C313.836 63.765 318.255 63.7374 318.794 63.5993C321.473 62.9364 323.889 60.7407 324.511 58.4207C324.69 57.7303 326.348 46.9036 326.734 43.9207C326.969 42.0979 326.997 41.5455 326.872 40.7445C326.486 38.176 324.746 36.2565 321.984 35.3174L320.865 34.9445L307.884 34.8755L294.903 34.8065L295.442 31.7269L295.994 28.6612H311.903H327.811L327.894 28.2746C328.088 27.3493 329.358 19.3536 329.358 19.0498V18.7184H307.981H286.604L285.941 23.3722Z" fill="#96C140"/>
</g>
</g>
<defs>
<clipPath id="clip0_70_255">
<rect width="330" height="105.483" fill="white" transform="translate(0 0.258789)"/>
</clipPath>
<clipPath id="clip1_70_255">
<rect width="329.633" height="68.7714" fill="white" transform="translate(-0.275391 18.7183)"/>
</clipPath>
</defs>
</svg>
