<svg width="392" height="200" viewBox="0 0 392 200" fill="none" xmlns="http://www.w3.org/2000/svg">
<g clip-path="url(#clip0_70_450)">
<path fill-rule="evenodd" clip-rule="evenodd" d="M257.299 80.0463C261.756 76.4042 267.501 74.3794 273.259 74.4357C273.259 77.9044 273.259 81.3731 273.259 84.8418C270.714 84.8851 268.164 85.5008 265.949 86.7712C263.274 88.2888 261.093 90.6778 259.874 93.5048C259.046 95.3432 258.669 97.3594 258.639 99.3669C258.617 101.821 259.267 104.266 260.455 106.413C262.038 109.296 264.618 111.624 267.666 112.864C269.426 113.601 271.338 113.961 273.246 113.957C273.285 117.439 273.255 120.925 273.263 124.406C267.167 124.484 261.084 122.178 256.531 118.132C253.921 115.86 251.823 113.02 250.361 109.886C247.448 103.625 247.292 96.128 250.006 89.7716C251.584 85.9951 254.129 82.6261 257.307 80.0463H257.299ZM273.528 94.8836C281.016 94.8836 288.508 94.8836 295.996 94.8836C295.996 102.337 295.996 109.79 295.996 117.248C292.545 117.248 289.094 117.248 285.642 117.248C285.642 113.211 285.642 109.17 285.642 105.134C281.601 105.134 277.565 105.134 273.528 105.134C273.528 101.717 273.528 98.3003 273.528 94.8879V94.8836Z" fill="#00B5EA"/>
<path fill-rule="evenodd" clip-rule="evenodd" d="M153.294 83.7014C154.603 83.502 155.952 84.2131 156.633 85.3317C156.927 85.7696 157.079 86.2813 157.205 86.7886C157.422 87.7858 156.984 88.8134 156.29 89.5245C155.674 90.0968 154.864 90.474 154.014 90.5044C152.505 90.6605 150.953 89.6285 150.554 88.1587C150.19 87.04 150.484 85.7783 151.204 84.8721C151.72 84.2434 152.475 83.7968 153.29 83.7058L153.294 83.7014ZM214.707 84.2087C216.376 84.2087 218.05 84.2087 219.724 84.2087C219.741 87.7294 219.689 91.2545 219.75 94.7795C220.838 93.6045 222.29 92.7634 223.869 92.4599C225.755 92.0913 227.775 92.165 229.553 92.9585C231.43 93.7476 232.926 95.3605 233.624 97.2727C234.084 98.4824 234.266 99.7874 234.249 101.075C234.24 105.168 234.249 109.257 234.249 113.35C232.575 113.35 230.906 113.35 229.232 113.35C229.215 109.591 229.263 105.832 229.21 102.072C229.202 100.637 228.773 99.085 227.602 98.1658C226.579 97.3377 225.187 97.1989 223.921 97.3073C222.364 97.4504 220.829 98.3783 220.209 99.8482C219.81 100.733 219.737 101.721 219.728 102.675C219.728 106.235 219.728 109.79 219.728 113.35C218.054 113.35 216.385 113.35 214.711 113.35C214.711 103.638 214.711 93.921 214.711 84.2087H214.707ZM96 84.3171C97.6736 84.3171 99.3429 84.3171 101.017 84.3171C101.017 94.0294 101.017 103.746 101.017 113.458C99.3429 113.458 97.6736 113.458 96 113.458C96 103.746 96 94.0294 96 84.3171ZM161.333 86.5588C163.024 86.5588 164.71 86.5588 166.401 86.5588C166.401 88.6747 166.401 90.7906 166.401 92.9108C167.36 92.9108 168.322 92.9108 169.28 92.9108C169.28 94.4067 169.28 95.8982 169.28 97.3941C168.318 97.3941 167.36 97.3941 166.401 97.3941C166.401 102.714 166.401 108.034 166.401 113.354C164.71 113.354 163.024 113.354 161.333 113.354C161.333 108.034 161.333 102.714 161.333 97.3984C160.444 97.3984 159.555 97.3984 158.666 97.3984C158.666 95.9025 158.666 94.411 158.666 92.9151C159.555 92.9151 160.444 92.9151 161.333 92.9151C161.333 90.7992 161.333 88.679 161.333 86.5631V86.5588ZM114.055 92.2431C115.611 92.2084 117.168 92.5466 118.598 93.1536C120.103 93.791 121.43 94.8099 122.501 96.0369C125.258 99.2715 125.852 104.158 123.971 107.965C122.796 110.432 120.606 112.37 118.043 113.302C115.884 114.074 113.482 114.226 111.262 113.627C108.925 113.02 106.788 111.607 105.348 109.665C103.332 107.024 102.686 103.43 103.527 100.225C104.221 97.5068 106.038 95.0917 108.487 93.7086C110.17 92.733 112.116 92.2647 114.055 92.2474V92.2431ZM113.426 97.2076C112.32 97.3117 111.267 97.7583 110.395 98.439C108.964 99.5837 108.114 101.431 108.227 103.265C108.24 105.09 109.142 106.894 110.634 107.956C112.39 109.253 114.878 109.43 116.821 108.437C118.317 107.709 119.427 106.274 119.826 104.67C120.324 102.801 119.908 100.681 118.638 99.2064C117.384 97.7192 115.36 96.9518 113.43 97.2076H113.426ZM134.234 92.8804C135.825 92.3038 137.546 92.1824 139.228 92.2864C139.966 92.3515 140.694 92.5206 141.375 92.7981C141.691 92.9238 142.047 92.8978 142.381 92.9151C144.514 92.9108 146.651 92.9108 148.785 92.9151C148.785 94.2636 148.793 95.612 148.785 96.9561C148.247 97.1556 147.722 97.3854 147.185 97.5848C147.761 98.465 148.26 99.4146 148.52 100.442C149.132 102.645 148.993 105.047 148.156 107.171C147.202 109.652 145.268 111.737 142.866 112.882C141.145 113.732 139.189 114.065 137.277 113.983C134.671 113.836 132.092 112.795 130.223 110.948C128.207 109.045 127.084 106.296 127.01 103.538C126.897 100.893 127.777 98.2135 129.468 96.1713C130.709 94.6581 132.382 93.5091 134.234 92.8848V92.8804ZM137.338 97.212C136.024 97.342 134.776 97.9534 133.835 98.8769C132.959 99.7614 132.404 100.936 132.209 102.159C131.923 104.154 132.612 106.322 134.169 107.64C135.443 108.754 137.221 109.266 138.895 109.001C140.998 108.728 142.845 107.171 143.577 105.199C144.453 102.992 143.855 100.26 142.055 98.6861C140.811 97.5198 139.025 96.9995 137.338 97.212ZM179.803 92.2864C182.21 92.074 184.712 92.6766 186.684 94.0858C188.38 95.2738 189.641 97.0125 190.357 98.9463C191.09 100.824 191.237 102.866 191.163 104.865C185.839 104.865 180.51 104.86 175.186 104.865C175.589 106.421 176.651 107.826 178.13 108.503C179.769 109.257 181.72 109.24 183.38 108.555C184.556 108.069 185.561 107.267 186.472 106.4C187.656 107.557 188.813 108.741 189.993 109.903C186.867 113.155 181.954 114.473 177.592 113.419C175.68 112.986 173.889 111.997 172.532 110.579C171.392 109.331 170.572 107.791 170.191 106.144C169.627 103.811 169.71 101.301 170.572 99.0504C171.379 96.8954 172.909 95.0007 174.891 93.817C176.369 92.9151 178.069 92.3861 179.799 92.2821L179.803 92.2864ZM177.28 97.7583C176.161 98.5127 175.455 99.7441 175.086 101.019C178.637 101.023 182.188 101.019 185.735 101.019C185.522 100.1 185.145 99.2064 184.508 98.4997C183.446 97.3117 181.794 96.748 180.224 96.8607C179.183 96.8651 178.143 97.1729 177.28 97.7583ZM197.845 93.9817C200.022 92.6203 202.675 92.1607 205.212 92.4252C206.994 92.629 208.75 93.2186 210.228 94.2462C211.113 94.8359 211.889 95.5903 212.552 96.4228C211.381 97.6109 210.198 98.7859 209.018 99.9652C207.822 98.5301 206.105 97.3941 204.197 97.303C202.718 97.1686 201.197 97.6455 200.056 98.5951C198.894 99.536 198.131 100.971 198.075 102.471C197.936 104.197 198.409 106.04 199.623 107.314C200.75 108.581 202.502 109.17 204.171 109.071C206.061 108.893 207.739 107.787 208.988 106.408C210.202 107.557 211.36 108.758 212.539 109.938C211.134 111.59 209.231 112.778 207.184 113.463C205.251 114.048 203.156 114.191 201.188 113.706C198.777 113.159 196.548 111.78 195.048 109.808C192.594 106.686 192.143 102.172 193.8 98.5821C194.654 96.696 196.08 95.0657 197.849 93.9904L197.845 93.9817ZM151.031 92.9108C152.722 92.9108 154.408 92.9108 156.099 92.9108C156.099 99.7614 156.099 106.608 156.099 113.458C154.408 113.458 152.722 113.458 151.031 113.458C151.031 106.608 151.031 99.7614 151.031 92.9108ZM127.006 114.742C128.71 114.742 130.418 114.742 132.122 114.742C132.161 115.639 132.334 116.541 132.729 117.352C133.583 119.182 135.465 120.456 137.472 120.613C139.424 120.842 141.457 119.988 142.662 118.44C143.499 117.391 143.898 116.069 143.976 114.742C145.654 114.742 147.328 114.742 149.006 114.742C149.01 117.491 147.939 120.244 146.001 122.204C144.761 123.531 143.139 124.471 141.422 125.035C138.981 125.785 136.284 125.755 133.891 124.836C131.489 123.942 129.408 122.152 128.237 119.867C127.4 118.302 127.01 116.515 127.001 114.742H127.006Z" fill="white"/>
</g>
<defs>
<clipPath id="clip0_70_450">
<rect width="200" height="51.1284" fill="white" transform="translate(96 74.4358)"/>
</clipPath>
</defs>
</svg>
