<svg width="392" height="200" viewBox="0 0 392 200" fill="none" xmlns="http://www.w3.org/2000/svg">
<g clip-path="url(#clip0_70_449)">
<path d="M318.754 110.097C319.355 110.097 319.917 109.868 320.336 109.441C320.755 109.014 321 108.452 321 107.851C321 107.25 320.755 106.688 320.336 106.269C319.917 105.842 319.347 105.612 318.754 105.612C317.512 105.612 316.507 106.617 316.507 107.851C316.507 108.452 316.737 109.014 317.164 109.441C317.591 109.868 318.153 110.097 318.754 110.097ZM316.879 107.859C316.879 107.36 317.077 106.894 317.433 106.546C317.781 106.19 318.255 106 318.754 106C319.252 106 319.711 106.19 320.075 106.546C320.423 106.902 320.613 107.36 320.613 107.859C320.613 108.887 319.782 109.726 318.754 109.726C318.255 109.726 317.781 109.528 317.433 109.18C317.077 108.824 316.879 108.357 316.879 107.859Z" fill="white"/>
<path d="M319.861 108.903L319.79 108.792L319.766 108.602L319.75 108.278C319.75 108.128 319.719 108.017 319.663 107.946L319.513 107.827L319.703 107.645C319.774 107.542 319.798 107.416 319.798 107.266C319.798 106.973 319.679 106.759 319.434 106.649C319.307 106.593 319.149 106.562 318.959 106.562H317.796V109.061H318.231V108.033H318.912L319.181 108.072C319.268 108.12 319.315 108.207 319.323 108.333V108.737L319.355 108.935L319.386 109.029L319.402 109.061H319.885V108.919L319.853 108.903H319.861ZM319.363 107.289C319.363 107.432 319.331 107.519 319.252 107.574C319.173 107.629 319.062 107.653 318.928 107.653H318.231V106.949H318.967L319.212 106.997C319.307 107.044 319.363 107.147 319.363 107.297" fill="white"/>
<path d="M135.61 81.5576H123.468L123.381 81.6367V110.018L123.468 110.105H128.388L128.475 110.018V84.7217L128.507 84.6742H134.131C136.18 84.6663 137.303 86.7229 137.303 90.4803C137.303 94.2376 136.18 96.2942 134.131 96.2942H130.754L130.667 96.3733V99.3159L130.754 99.4108H135.618C137.311 99.4108 138.988 98.6198 140.214 97.2513C141.654 95.6377 142.413 93.3042 142.413 90.504C142.413 85.0697 139.747 81.5576 135.626 81.5576" fill="white"/>
<path d="M150.434 81.5576H145.514L145.427 81.6367V110.018L145.514 110.097H150.434L150.521 110.018V81.6367L150.434 81.5576Z" fill="white"/>
<path d="M171.902 88.455L171.807 88.3601H163.035C155.18 88.3601 154.175 94.1424 154.175 99.2049V103.587C154.183 107.352 156.525 110.089 159.752 110.089H164.53L164.617 110.002V107.06L164.53 106.973H161.112C160.321 106.957 159.262 106.625 159.262 103.927V99.197C159.262 96.0488 159.562 94.0475 160.211 92.9005C160.915 91.6349 162.03 91.4609 163.027 91.4609H166.776L166.816 91.5083V110.002L166.895 110.089H171.815L171.902 110.002V88.455Z" fill="white"/>
<path d="M207.3 93.4385L204.871 93.2487C203.06 93.0984 201.707 92.0938 201.707 89.0958C201.707 85.6154 203.281 84.6741 205.346 84.6741H212.054L212.141 84.5871V81.6287L212.054 81.5496H204.658C200.078 81.5496 196.819 84.239 196.819 89.5942V89.8157C196.819 94.0634 199.421 97.1088 203.297 97.4015L205.718 97.5834C207.545 97.7258 208.684 99.3553 208.684 101.863V102.567C208.684 104.133 208.304 106.981 204.958 106.981H197.997L197.91 107.068V110.01L197.997 110.097H206.627C209.301 110.097 213.77 109.021 213.77 101.76C213.77 99.1496 213.161 97.0693 211.959 95.5742C210.915 94.2928 209.396 93.5967 207.3 93.4306" fill="white"/>
<path d="M247.602 88.455L247.515 88.3601H238.743C230.896 88.3601 229.891 94.1424 229.891 99.2049V103.587C229.891 107.352 232.233 110.089 235.46 110.089H240.238L240.325 110.002V107.06L240.238 106.973H236.82C236.029 106.957 234.969 106.625 234.969 103.927V99.197C234.969 96.0488 235.262 94.0475 235.911 92.9005C236.615 91.6349 237.738 91.4609 238.727 91.4609H242.476L242.508 91.5083V110.002L242.587 110.089H247.507L247.594 110.002V88.455H247.602Z" fill="white"/>
<path d="M227.827 88.368H222.503L222.464 88.3364V84.7689L222.385 84.6819H217.464L217.377 84.7689V103.603C217.377 107.368 219.719 110.097 222.954 110.097H226.482L226.561 110.01V107.068L226.482 106.981H224.315C223.761 106.965 222.464 106.941 222.464 104.157V91.5083L222.503 91.4767C224.117 91.4767 227.827 91.4767 227.827 91.4767L227.914 91.3897V88.4629L227.827 88.368Z" fill="white"/>
<path d="M262.172 88.368H256.849L256.817 88.3364V84.7689L256.73 84.6819H251.818L251.723 84.7689V103.603C251.723 107.368 254.072 110.097 257.308 110.097H260.828L260.923 110.01V107.068L260.828 106.981H258.652C258.115 106.965 256.817 106.941 256.817 104.157V91.5083L256.849 91.4767C258.478 91.4767 262.172 91.4767 262.172 91.4767L262.259 91.3897V88.4629L262.172 88.368Z" fill="white"/>
<path d="M270.304 88.3682H265.384L265.305 88.4552V110.018L265.384 110.097H270.304L270.391 110.018V88.4552L270.304 88.3682Z" fill="white"/>
<path d="M270.304 81.5576H265.384L265.305 81.6367V85.7579L265.384 85.8449H270.304L270.391 85.7579V81.6367L270.304 81.5576Z" fill="white"/>
<path d="M304.317 88.3682H295.537L295.45 88.4631V110.018L295.537 110.105H300.449L300.536 110.018V91.5164L300.56 91.4848H304.31C305.314 91.4848 306.429 91.643 307.133 92.8137C307.782 93.8736 308.091 95.7246 308.091 98.6513C308.091 98.7858 308.083 110.018 308.083 110.018L308.162 110.105H313.074L313.161 110.018V99.213C313.161 94.1505 312.156 88.3682 304.31 88.3682" fill="white"/>
<path d="M282.929 88.3682C274.718 88.3682 273.666 94.1821 273.666 99.2446C273.666 104.307 274.726 110.121 282.929 110.121C291.132 110.121 292.199 104.307 292.199 99.2446C292.199 94.1821 291.147 88.3682 282.937 88.3682M286.053 105.565C285.27 106.838 284.036 107.004 282.929 107.004C281.821 107.004 280.587 106.83 279.812 105.565C279.108 104.41 278.776 102.409 278.776 99.2446V99.2209C278.776 95.4794 279.243 93.3595 280.271 92.3391C280.88 91.7379 281.679 91.4848 282.929 91.4848C284.179 91.4848 284.978 91.7379 285.595 92.3391C286.623 93.3516 287.09 95.4873 287.09 99.2446C287.09 102.409 286.765 104.418 286.053 105.565Z" fill="white"/>
<path d="M174.671 88.3682L174.615 88.4473L181.9 109.813V109.987L177.803 120.578L177.85 120.665H182.13L182.256 120.578L195.063 88.4473L195.015 88.3682H190.341L190.222 88.4473L184.796 102.496H184.732L179.955 88.4473L179.836 88.3682H174.671Z" fill="white"/>
<path d="M86.1953 79.3347V108.594L92.8161 110.698V86.1533C92.8161 85.0063 93.3303 84.239 94.1608 84.5C95.2366 84.8006 95.4502 85.8606 95.4502 87.0076V96.8082C99.5793 98.8016 102.822 96.8082 102.822 91.548C102.822 86.2877 100.924 83.7565 95.3157 81.8343C93.1088 81.0908 89.0113 79.8568 86.1953 79.3347Z" fill="white"/>
<path d="M94.0737 106.419L104.721 102.63C105.931 102.195 106.113 101.586 105.132 101.262C104.151 100.937 102.379 101.032 101.169 101.467L94.0737 103.967V99.9881L94.4851 99.8457C94.4851 99.8457 96.5338 99.1259 99.4131 98.8015C102.3 98.4851 105.828 98.849 108.597 99.8931C111.721 100.882 112.069 102.329 111.278 103.334C110.487 104.339 108.541 105.051 108.541 105.051L94.0737 110.248V106.411V106.419Z" fill="white"/>
<path d="M74.0533 106.016C70.8497 105.114 70.3118 103.231 71.7752 102.147C73.1278 101.143 75.4296 100.391 75.4296 100.391L84.9218 97.0217V100.866L78.0954 103.31C76.8851 103.745 76.7032 104.354 77.684 104.679C78.6649 104.995 80.4447 104.908 81.6549 104.473L84.9297 103.287V106.727C84.7241 106.767 84.4947 106.799 84.2732 106.838C80.9984 107.368 77.51 107.147 74.0691 106.016" fill="white"/>
<path d="M109.736 112.011C110.258 112.011 110.749 111.806 111.112 111.442C111.476 111.078 111.682 110.588 111.682 110.066C111.682 109.543 111.476 109.053 111.112 108.689C110.741 108.317 110.25 108.12 109.736 108.12C108.66 108.12 107.782 108.998 107.782 110.073C107.782 110.596 107.988 111.086 108.352 111.45C108.716 111.822 109.206 112.019 109.728 112.019M108.107 110.066C108.107 109.63 108.273 109.219 108.581 108.919C108.882 108.61 109.293 108.444 109.728 108.444C110.163 108.444 110.567 108.61 110.875 108.919C111.184 109.227 111.358 109.63 111.358 110.066C111.358 110.959 110.63 111.687 109.736 111.687C109.301 111.687 108.898 111.521 108.589 111.212C108.281 110.912 108.114 110.501 108.114 110.066" fill="white"/>
<path d="M110.693 110.975L110.63 110.88L110.614 110.714L110.598 110.437C110.598 110.303 110.567 110.208 110.527 110.153L110.392 110.042L110.559 109.884C110.614 109.797 110.646 109.686 110.646 109.551C110.646 109.29 110.535 109.116 110.321 109.014C110.211 108.966 110.076 108.942 109.91 108.942H108.897V111.11H109.277V110.224H109.87L110.1 110.255L110.218 110.485L110.234 110.833L110.25 110.999L110.274 111.086V111.11H110.709V110.983H110.677L110.693 110.975ZM110.258 109.575L110.163 109.82L109.878 109.892H109.277V109.283H109.918L110.131 109.322C110.218 109.37 110.266 109.449 110.266 109.583" fill="white"/>
</g>
<defs>
<clipPath id="clip0_70_449">
<rect width="250" height="41.3305" fill="white" transform="translate(71 79.3347)"/>
</clipPath>
</defs>
</svg>
