<svg width="392" height="200" viewBox="0 0 392 200" fill="none" xmlns="http://www.w3.org/2000/svg">
<g clip-path="url(#clip0_70_448)">
<path fill-rule="evenodd" clip-rule="evenodd" d="M81.8898 90.9001L80.5097 98.5369H76.7235L77.2939 95.2062H74.9983L73.3927 104.734H75.1133L74.368 109.04H63.1152L63.9203 104.734H65.6409L67.3063 95.2062H65.0704L64.4356 98.5369H60.7046L62.0249 90.9001H81.8898Z" fill="white"/>
<path fill-rule="evenodd" clip-rule="evenodd" d="M81.8896 90.9002H82L80.6245 98.5922V98.7072H76.5485V98.537L77.1787 95.2063H77.2937V95.3811H74.9981V95.2063L75.1729 95.2661L73.5075 104.734H73.3925V104.564H75.2879V104.734L74.4828 109.1V109.215H62.9448L63.0046 109.04L63.7499 104.679L63.8051 104.564H65.6407V104.734L65.5257 104.679L67.1911 95.2063H67.3061V95.3811H65.0703V95.2063L65.1853 95.2661L64.5504 98.5922V98.7072H60.5342V98.537L61.9097 90.73H82.0598L82 90.9002H81.8896V91.075H62.0247V90.9002H62.1397L60.8194 98.5922L60.7044 98.537V98.422H64.4354V98.537H64.3204L64.8954 95.2063L64.9552 95.0912H67.4809L67.4211 95.2661L65.8155 104.734L65.7557 104.849H63.9201V104.734H64.0351L63.2899 109.1L63.1151 109.04V108.925H74.3678V109.04H74.2528L74.9981 104.679L75.1131 104.734V104.849H73.2177V104.679L74.8831 95.2063V95.0912H77.4686V95.2661L76.8383 98.5922L76.7233 98.537V98.422H80.5095V98.537H80.3945L81.7148 90.845L81.8896 90.9002V91.075V90.9002Z" fill="white"/>
<path fill-rule="evenodd" clip-rule="evenodd" d="M79.8794 109.04L80.6845 104.734H82.175L83.8404 95.2062H82.3453L83.0951 90.9001H93.598L92.8528 95.2062H91.5876L91.0724 98.0217H95.7235L96.1789 95.2062H94.9184L95.6637 90.9001H106.226L105.421 95.2062H103.931L102.265 104.734H103.756L103.011 109.04H92.5077L93.253 104.734H94.5135L95.0334 101.753H90.4421L89.9223 104.734H91.1874L90.4421 109.04H79.8794Z" fill="white"/>
<path fill-rule="evenodd" clip-rule="evenodd" d="M79.8789 109.04H79.7639L80.5092 104.679L80.569 104.564H82.1746V104.734L82.0596 104.679L83.7249 95.2063H83.8399V95.3811H82.1746V95.2063L82.9796 90.845V90.73H93.7678L93.7126 90.9002L92.9673 95.2661V95.3811H91.5872V95.2063L91.7022 95.2661L91.2421 98.077L91.0719 98.0217V97.9067H95.723V98.0217H95.5482L96.0634 95.2063H96.1784V95.3811H94.7431L94.8029 95.2063L95.5482 90.845V90.73H106.396L106.341 90.9002L105.536 95.2661V95.3811H103.93V95.2063L104.045 95.2661L102.38 104.734H102.265V104.564H103.93V104.734L103.125 109.1V109.215H92.3324V109.04L93.0823 104.679L93.1375 104.564H94.5131V104.734L94.4026 104.679L94.9179 101.693L95.0329 101.753V101.863H90.4416V101.753H90.5566L90.0368 104.734H89.9218V104.564H91.3571L91.3019 104.734L90.5566 109.1V109.215H79.7041L79.7639 109.04H79.8789V108.925H90.4416V109.04H90.2668L91.0121 104.679L91.1869 104.734V104.849H89.7516V104.679L90.3266 101.693V101.578H95.2031V101.753L94.6879 104.734L94.6281 104.849H93.2525V104.734H93.3675L92.6223 109.1L92.5072 109.04V108.925H103.01V109.04H102.84L103.64 104.679L103.755 104.734V104.849H102.095V104.679L103.755 95.0912H105.421V95.2063H105.306L106.051 90.845L106.226 90.9002V91.075H95.6632V90.9002H95.8334L95.0881 95.2661L94.9179 95.2063V95.0912H96.3533L96.2934 95.2661L95.8334 98.077V98.192H90.8971L90.9569 98.0217L91.4169 95.2063L91.4721 95.0912H92.8523V95.2063H92.7373L93.4227 90.845L93.5976 90.9002V91.075H83.0947V90.9002H83.2649L82.4598 95.2661L82.3448 95.2063V95.0912H84.0102V95.2661L82.3448 104.734L82.2896 104.849H80.684V104.734H80.7944L80.0491 109.1L79.8789 109.04V108.925V109.04Z" fill="white"/>
<path fill-rule="evenodd" clip-rule="evenodd" d="M116.269 94.8612H118.509C119.885 94.8612 120.575 95.3765 120.575 96.2966C120.575 96.9866 120.29 97.5019 119.655 97.8469C119.195 98.192 118.565 98.307 117.819 98.307H115.639L116.269 94.8612ZM115.238 109.04L116.043 104.734H114.553L115.068 101.633H117.539L120.58 109.04H127.756L128.561 104.734H127.126L125.06 100.543C126.151 100.143 127.011 99.5077 127.701 98.5922C128.446 97.6169 128.791 96.5818 128.791 95.4915C128.791 94.4564 128.446 93.5409 127.756 92.7956C126.951 91.9353 125.516 91.305 123.51 91.075C122.59 90.96 120.984 90.9048 118.689 90.9048H107.611L106.865 95.2108H108.471L106.865 104.738H105.2L104.395 109.044H115.243L115.238 109.04Z" fill="white"/>
<path fill-rule="evenodd" clip-rule="evenodd" d="M116.269 94.8613V94.7462H118.509C119.199 94.7462 119.715 94.8613 120.115 95.0913C120.515 95.3765 120.745 95.7814 120.745 96.2966C120.745 97.0419 120.4 97.6169 119.71 98.0172L119.655 97.847L119.77 98.0172C119.255 98.3024 118.565 98.4772 117.819 98.4772H115.464L115.519 98.307L116.149 94.8613V94.7462H116.264V94.8613L116.379 94.9165L115.804 98.3622L115.634 98.307V98.192H117.815C118.56 98.192 119.135 98.0218 119.595 97.732C120.17 97.3869 120.455 96.9269 120.455 96.2966C120.4 95.4363 119.825 95.0361 118.505 95.0361H116.264V94.8659L116.269 94.8613ZM115.238 109.04V109.21H115.409V109.095L116.154 104.734L116.209 104.564H114.544V104.734H114.659L115.234 101.693L115.064 101.638V101.808H117.534V101.638L117.364 101.693L120.405 109.1L120.46 109.215H127.867L127.922 109.1L128.667 104.738L128.722 104.568H127.117V104.738L127.232 104.623L125.166 100.492L125.051 100.547L125.107 100.718C126.197 100.317 127.117 99.6274 127.802 98.6521C128.548 97.6767 128.893 96.6416 128.893 95.4961C128.893 94.3506 128.548 93.4857 127.858 92.7404C126.997 91.8203 125.562 91.1901 123.496 90.9048C122.576 90.7898 120.971 90.7346 118.675 90.7346H107.482V90.8496L106.677 95.2109V95.3811H108.457V95.2109H108.342L106.677 104.683L106.847 104.738V104.568H105.067V104.683L104.262 109.045V109.215H115.225V109.045V108.93H104.377V109.045L104.547 109.1L105.292 104.738H105.177V104.854H106.958V104.738L108.623 95.2661V95.0959H106.843V95.2109L106.958 95.2661L107.763 90.9048H107.592V91.0751H118.67C120.966 91.0751 122.572 91.1303 123.437 91.2453C125.447 91.4753 126.882 92.0504 127.628 92.9106C128.258 93.6007 128.603 94.461 128.603 95.4915C128.603 96.5818 128.258 97.5571 127.568 98.4772C126.878 99.3973 126.077 100.028 124.987 100.428L124.872 100.483L124.927 100.598L126.938 104.789L126.993 104.844H128.543V104.729L128.373 104.674L127.628 109.035H127.743V108.92H120.566V109.035L120.681 108.98L117.64 101.573L117.585 101.518H114.944V101.633L114.369 104.674V104.844H116.034V104.729L115.864 104.674L115.119 109.035H115.234L115.238 109.04Z" fill="white"/>
<path fill-rule="evenodd" clip-rule="evenodd" d="M130.508 95.2062L131.253 90.9001H141.526L140.721 95.2062H139.745L138.595 101.923C138.48 102.498 138.425 102.958 138.425 103.298C138.425 104.449 139 105.079 140.09 105.079C140.951 105.079 141.581 104.734 141.986 103.989C142.216 103.588 142.386 102.838 142.616 101.808L143.766 95.2062H142.731L143.536 90.9001H150.998L150.253 95.2062H148.702L147.437 102.323C146.632 106.974 143.476 109.325 137.965 109.325C133.144 109.325 130.673 107.489 130.673 103.874C130.673 103.183 130.728 102.498 130.903 101.808L132.053 95.2062H130.503H130.508Z" fill="white"/>
<path fill-rule="evenodd" clip-rule="evenodd" d="M130.508 95.2062H130.393L131.138 90.845V90.7299H141.701L141.646 90.9002L140.9 95.2614L140.845 95.3764H139.755V95.2062L139.925 95.2614L138.72 101.918C138.664 102.549 138.605 103.009 138.605 103.294C138.605 104.444 139.065 104.899 140.095 104.899C140.9 104.899 141.471 104.614 141.816 103.924C142.046 103.524 142.276 102.834 142.446 101.744L143.651 95.2016H143.766V95.3718H142.561L142.616 95.2016L143.421 90.8404V90.7253H151.169V90.8956L150.423 95.2568L150.368 95.3718H148.703V95.2016L148.818 95.2568L147.612 102.319C146.807 107.085 143.536 109.495 137.97 109.495C135.559 109.495 133.664 109.035 132.458 108.06C131.198 107.14 130.563 105.705 130.563 103.869C130.563 103.179 130.618 102.493 130.733 101.803L131.883 95.2016H132.054V95.3718H130.333L130.388 95.2016H130.503V95.0866H132.224L132.169 95.2568L131.018 101.859C130.903 102.549 130.848 103.179 130.848 103.869C130.848 107.43 133.144 109.15 137.965 109.205C143.417 109.15 146.518 106.91 147.323 102.259L148.528 95.197L148.583 95.082H150.249V95.197H150.133L150.879 90.8358L150.994 90.891V91.0612H143.532V90.891H143.647L142.902 95.2522L142.731 95.197V95.082H143.937V95.2522L142.731 101.794C142.561 102.884 142.331 103.63 142.101 104.035C141.701 104.78 141.011 105.185 140.091 105.185C139.516 105.185 139.056 105.014 138.77 104.725C138.425 104.38 138.31 103.864 138.31 103.289C138.31 102.944 138.365 102.484 138.425 101.854L139.631 95.197V95.082H140.721V95.197H140.606L141.351 90.8358L141.521 90.891V91.0612H131.249V90.891H131.419L130.614 95.2522L130.499 95.197L130.508 95.2062Z" fill="white"/>
<path fill-rule="evenodd" clip-rule="evenodd" d="M149.162 109.04L150.197 103.183H154.674C155.019 104.789 155.879 105.594 157.314 105.594C158.349 105.594 158.98 105.194 159.095 104.444C159.21 103.869 158.81 103.354 157.889 102.838C157.719 102.723 157.029 102.438 155.879 101.918C152.778 100.598 151.228 98.9326 151.228 96.9222C151.228 96.6369 151.228 96.2919 151.283 96.0021C151.628 94.3367 152.488 92.9612 153.864 92.0411C155.184 91.121 156.735 90.6057 158.515 90.6057C160.295 90.6057 161.616 91.121 162.706 92.0411L162.876 90.8909H167.353L166.492 96.0573H162.016L161.961 95.8273C161.676 94.5621 160.811 93.9319 159.49 93.9319C158.515 93.9319 157.94 94.2769 157.825 95.0222C157.71 95.5374 158.17 95.9975 159.03 96.5127C159.72 96.798 160.351 97.0878 161.041 97.373C162.646 98.1183 163.796 98.8084 164.427 99.4386C165.462 100.359 165.977 101.504 165.977 102.94C165.977 104.835 165.117 106.441 163.336 107.706C161.901 108.741 160.236 109.256 158.4 109.256C156.564 109.256 155.129 108.796 153.864 107.821L153.634 109.026H149.158L149.162 109.04Z" fill="white"/>
<path fill-rule="evenodd" clip-rule="evenodd" d="M149.162 109.04H148.992L150.083 103.183V103.068H154.789L154.844 103.183C155.129 104.734 155.934 105.424 157.314 105.479C158.35 105.424 158.865 105.134 158.98 104.389V104.274C158.98 103.874 158.635 103.414 157.83 102.953C157.66 102.838 156.969 102.553 155.879 102.093C152.723 100.718 151.113 98.9925 151.113 96.9268C151.113 96.5818 151.113 96.2966 151.168 96.0067C151.453 94.2862 152.374 92.906 153.809 91.9307C155.129 90.9554 156.735 90.4954 158.515 90.4954C160.296 90.4954 161.731 90.9554 162.761 91.9307L162.706 92.0457L162.536 91.9905L162.766 90.73H167.532V90.9002L166.612 96.1816H161.906L161.851 96.0665L161.795 95.8365C161.51 94.6312 160.82 94.0561 159.5 94.0561C158.524 94.0561 158.124 94.4012 157.949 95.0912V95.2063C157.949 95.5513 158.294 95.9515 159.099 96.4116C159.79 96.6416 160.42 96.9268 161.11 97.2167V97.2719C162.715 98.0172 163.866 98.7072 164.556 99.3375C165.591 100.313 166.161 101.518 166.161 102.953C166.161 104.904 165.241 106.569 163.465 107.835C161.975 108.925 160.309 109.44 158.414 109.44C156.634 109.44 155.083 108.98 153.763 107.95L153.878 107.835L153.993 107.89L153.823 109.095L153.767 109.21H149.001V109.04H149.172V108.925H153.648V109.04H153.533L153.703 107.835L153.758 107.605L153.929 107.72C155.194 108.64 156.684 109.155 158.405 109.155C160.24 109.155 161.851 108.64 163.286 107.605C165.006 106.339 165.867 104.794 165.867 102.953C165.867 101.578 165.352 100.483 164.376 99.5077C163.686 98.9327 162.596 98.2472 160.99 97.4973C160.3 97.2121 159.67 96.9222 158.98 96.637C158.175 96.177 157.659 95.7169 157.659 95.2017L157.715 95.0314C157.83 94.1711 158.46 93.7663 159.495 93.7663C160.871 93.7663 161.791 94.4564 162.076 95.7767L162.131 96.0067L162.016 96.0619V95.8917H166.492V96.0619L166.322 96.0067L167.242 90.8404L167.357 90.8956V91.0658H162.881V90.8956H163.051L162.821 92.0457L162.766 92.331L162.596 92.1607C161.561 91.2406 160.24 90.7852 158.52 90.7852C156.799 90.7852 155.249 91.2452 153.929 92.1607C152.608 93.0808 151.748 94.4012 151.458 96.0619C151.403 96.3472 151.403 96.637 151.403 96.9222C151.348 98.8176 152.893 100.483 155.939 101.803C157.089 102.263 157.775 102.549 157.949 102.664C158.81 103.179 159.27 103.699 159.27 104.269V104.439C159.099 105.3 158.409 105.76 157.319 105.76C155.829 105.76 154.849 104.84 154.563 103.234L154.678 103.179V103.349H150.202V103.179L150.317 103.234L149.282 109.091L149.167 109.035L149.162 109.04Z" fill="white"/>
<path fill-rule="evenodd" clip-rule="evenodd" d="M189.283 90.9001L187.963 98.5369H184.177L184.752 95.2062H182.456L180.791 104.734H182.571L181.821 109.04H170.573L171.318 104.734H173.099L174.764 95.2062H172.468L171.893 98.5369H168.103L169.483 90.9001H189.283Z" fill="white"/>
<path fill-rule="evenodd" clip-rule="evenodd" d="M189.283 90.9002H189.458L188.078 98.5922V98.7072H184.002V98.537L184.577 95.2063H184.752V95.3811H182.456V95.2063L182.627 95.2661L180.961 104.734H180.791V104.564H182.742V104.734L181.936 109.1V109.215H170.398V109.04L171.204 104.679V104.564H173.099V104.734L172.984 104.679L174.59 95.2063H174.764V95.3811H172.469V95.2063L172.639 95.2661L172.009 98.5922V98.7072H167.933L167.988 98.537L169.308 90.845L169.368 90.73H189.458V90.9002H189.283V91.075H169.483V90.9002H169.598L168.278 98.5922L168.103 98.537V98.422H171.894V98.537H171.719L172.354 95.2063V95.0912H174.935L174.879 95.2661L173.214 104.734V104.849H171.319V104.734H171.489L170.688 109.1L170.573 109.04V108.925H181.821V109.04H181.651L182.456 104.679L182.571 104.734V104.849H180.616L180.676 104.679L182.341 95.2063V95.0912H184.922L184.867 95.2661L184.292 98.5922L184.177 98.537V98.422H187.963V98.537H187.793L189.168 90.845L189.283 90.9002V91.075V90.9002Z" fill="white"/>
<path fill-rule="evenodd" clip-rule="evenodd" d="M188.023 109.04L188.768 104.734H190.319L192.039 95.2062H190.434L191.239 90.9001H203.232L204.957 97.9067L209.204 90.9001H221.142L220.341 95.2062H218.791L217.126 104.734H218.731L217.926 109.04H207.598L208.398 104.734H209.949L211.669 94.6311H211.614L203.177 109.04H200.191L196.86 94.6311H196.805L195.025 104.734H196.515L195.77 109.04H188.023Z" fill="white"/>
<path fill-rule="evenodd" clip-rule="evenodd" d="M188.023 109.04H187.908L188.653 104.679V104.564H190.319V104.734L190.204 104.679L191.869 95.2063H192.039V95.3811H190.259L190.319 95.2063L191.064 90.845L191.124 90.73H203.347L203.407 90.845L205.128 97.9067H204.957L204.842 97.8469L209.089 90.7852V90.73H221.317L221.257 90.9002L220.512 95.2661L220.452 95.3811H218.791V95.2063L218.961 95.2661L217.296 104.734H217.126V104.564H218.906L218.846 104.734L218.101 109.1L218.041 109.215H207.423L207.483 109.04L208.228 104.679V104.564H209.949V104.734L209.779 104.679L211.559 94.576L211.669 94.6312V94.7462H211.614V94.6312L211.729 94.691L203.292 109.1L203.232 109.215H200.076L200.021 109.1L196.69 94.6312H196.86V94.7462H196.805V94.6312H196.92L195.14 104.734H195.025V104.564H196.69V104.734L195.945 109.1V109.215H187.848L187.908 109.04H188.023V108.925H195.77V109.04H195.655L196.405 104.679L196.515 104.734V104.849H194.855V104.679L196.63 94.576L196.69 94.461H196.86H196.976V94.576L200.306 109.04H200.191V108.925H203.177V109.04L203.062 108.985L211.499 94.5162L211.559 94.461H211.844V94.6312L210.064 104.734V104.849H208.399V104.734H208.514L207.713 109.1L207.598 109.04V108.925H217.926V109.04H217.816L218.561 104.679L218.731 104.734V104.849H216.951L217.011 104.679L218.676 95.2063V95.0912H220.341V95.2063H220.226L221.027 90.845L221.142 90.9002V91.075H209.204V90.9002L209.319 91.0152L205.072 98.0217L204.898 98.307L204.842 97.9619L203.117 90.9002H203.232V91.075H191.239V90.9002H191.354L190.604 95.2661L190.434 95.2063V95.0912H192.214L192.154 95.2661L190.489 104.734V104.849H188.768V104.734H188.943L188.138 109.1L188.023 109.04V108.925V109.04Z" fill="white"/>
<path fill-rule="evenodd" clip-rule="evenodd" d="M230.784 95.496H230.84L231.585 100.492H228.024L230.78 95.496H230.784ZM226.368 109.04L227.113 105.079H225.448L226.768 102.783H231.875L232.22 105.079H230.499L229.694 109.04H240.142L240.947 104.734H239.511L237.501 95.2062H239.107L239.967 90.9001H225.618L224.758 95.2062H226.363L220.797 104.734H219.306L218.446 109.04H226.368Z" fill="white"/>
<path fill-rule="evenodd" clip-rule="evenodd" d="M230.784 95.4961V95.3259H230.84L230.955 95.3811V95.4961L231.7 100.492V100.662H227.799L227.914 100.432L230.669 95.4363L230.725 95.3213H230.78V95.4915L230.895 95.5467L228.139 100.543L228.024 100.488V100.373H231.585V100.488H231.415L230.669 95.4915H230.84V95.6065H230.784V95.4915V95.4961ZM226.368 109.04V109.21H226.483L227.288 105.079V104.909H225.452V105.079L225.623 105.134L226.883 102.838L226.768 102.783V102.953H231.875V102.783L231.76 102.838L232.045 105.079H232.215V104.909H230.38L230.324 105.024L229.579 109.04L229.524 109.21H240.257V109.095L241.117 104.734V104.564H239.512V104.734L239.627 104.679L237.676 95.2063H237.506V95.3765H239.226L239.281 95.2615L240.142 90.9002V90.73H225.503L225.448 90.845L224.643 95.2063L224.588 95.3765H226.368V95.2063L226.253 95.151L220.686 104.623L220.801 104.738V104.568H219.196L219.141 104.683L218.335 109.045L218.28 109.215H226.373V109.045V108.929H218.45V109.045L218.621 109.1L219.426 104.738H219.311V104.853H220.916V104.798L226.543 95.3259L226.658 95.0958H224.762V95.2109L224.877 95.2661L225.738 90.9048H225.623V91.075H239.972V90.9048L239.857 90.8496L238.996 95.2109H239.111V95.0958H237.331L237.386 95.2661L239.337 104.738L239.392 104.853H240.942V104.738L240.827 104.683L239.967 109.045H240.137V108.929H229.689V109.045L229.86 109.1L230.605 105.083H230.49V105.199H232.385L232.33 105.028L232.045 102.788L231.99 102.673H226.653L226.598 102.728L225.333 104.968L225.218 105.199H227.113V105.083L226.998 105.028L226.193 109.045H226.363L226.368 109.04Z" fill="white"/>
<path fill-rule="evenodd" clip-rule="evenodd" d="M241.117 109.04L242.152 103.183H246.629C246.974 104.789 247.834 105.594 249.269 105.594C250.36 105.594 250.935 105.194 251.05 104.444C251.165 103.869 250.764 103.354 249.844 102.838C249.674 102.723 248.984 102.438 247.894 101.918C244.738 100.598 243.187 98.9326 243.187 96.9222C243.187 96.6369 243.243 96.2919 243.302 96.0021C243.588 94.3367 244.453 92.9612 245.828 92.0411C247.148 91.121 248.699 90.6057 250.479 90.6057C252.26 90.6057 253.635 91.121 254.67 92.0411L254.84 90.8909H259.377L258.456 96.0573H253.98L253.925 95.8273C253.64 94.5621 252.835 93.9319 251.454 93.9319C250.479 93.9319 249.904 94.2769 249.789 95.0222C249.729 95.5374 250.134 95.9975 251.05 96.5127C251.68 96.798 252.37 97.0878 253 97.373C254.606 98.1183 255.756 98.8084 256.446 99.4386C257.421 100.359 257.937 101.504 257.937 102.94C257.937 104.835 257.076 106.441 255.296 107.706C253.861 108.741 252.195 109.256 250.36 109.256C248.524 109.256 247.089 108.796 245.823 107.821L245.593 109.026H241.117V109.04Z" fill="white"/>
<path fill-rule="evenodd" clip-rule="evenodd" d="M241.117 109.04H241.002L242.037 103.183V103.068H246.743L246.799 103.183C247.084 104.734 247.889 105.424 249.269 105.479C250.304 105.424 250.819 105.134 250.935 104.389V104.274C250.935 103.874 250.589 103.414 249.784 102.953C249.614 102.838 248.924 102.553 247.834 102.093C244.678 100.718 243.068 98.9925 243.068 96.9268C243.068 96.5818 243.068 96.2966 243.123 96.0067C243.408 94.2862 244.328 92.906 245.764 91.9307C247.084 90.9554 248.689 90.4954 250.47 90.4954C252.25 90.4954 253.686 90.9554 254.716 91.9307L254.661 92.0457L254.491 91.9905L254.721 90.8404V90.7254H259.542L259.487 90.8956L258.567 96.0619V96.177H253.86L253.805 96.0619L253.75 95.8319C253.465 94.6266 252.775 94.0515 251.454 94.0515C250.479 94.0515 250.079 94.3966 249.964 95.0866L249.909 95.2017C249.909 95.5467 250.309 95.9469 251.114 96.407C251.744 96.637 252.434 96.9222 253.065 97.2121V97.2673C254.67 98.0126 255.82 98.7026 256.51 99.3329C257.601 100.308 258.116 101.514 258.116 102.949C258.116 104.899 257.196 106.565 255.42 107.83C253.929 108.92 252.264 109.436 250.369 109.436C248.588 109.436 247.038 108.976 245.718 107.945L245.833 107.83L245.948 107.885L245.777 109.091L245.722 109.206H240.956L241.011 109.035H241.126V108.92H245.603V109.035H245.488L245.718 107.83V107.6L245.888 107.715C247.153 108.635 248.643 109.15 250.364 109.15C252.2 109.15 253.81 108.635 255.245 107.6C256.966 106.335 257.826 104.789 257.826 102.949C257.826 101.573 257.311 100.478 256.335 99.5031C255.645 98.928 254.555 98.2426 252.95 97.4927C252.319 97.2075 251.629 96.9176 250.939 96.6324C250.134 96.1724 249.674 95.7123 249.619 95.1971L249.674 95.0268C249.789 94.1665 250.419 93.7617 251.454 93.7617C252.83 93.7617 253.75 94.4518 254.035 95.7721L254.09 96.0021L253.975 96.0573V95.8871H258.452V96.0573L258.281 96.0021L259.202 90.8358L259.372 90.891V91.0612H254.836V90.891H255.006L254.776 92.0411V92.3264L254.546 92.1561C253.571 91.236 252.19 90.7806 250.47 90.7806C248.749 90.7806 247.199 91.2406 245.934 92.1561C244.558 93.0762 243.693 94.3966 243.408 96.0573C243.353 96.3426 243.353 96.6324 243.353 96.9176C243.353 98.813 244.843 100.478 247.944 101.799C249.035 102.259 249.725 102.544 249.895 102.659C250.755 103.174 251.215 103.694 251.215 104.265V104.435C251.045 105.295 250.355 105.755 249.265 105.755C247.774 105.755 246.794 104.835 246.509 103.23L246.624 103.174V103.345H242.148V103.174L242.318 103.23L241.227 109.086L241.112 109.031L241.117 109.04Z" fill="white"/>
<path fill-rule="evenodd" clip-rule="evenodd" d="M281.297 90.9001L279.922 98.5369H276.131L276.706 95.2062H274.41L272.805 104.734H274.525L273.78 109.04H262.527L263.273 104.734H265.053L266.718 95.2062H264.483L263.848 98.5369H260.062L261.437 90.9001H281.297Z" fill="white"/>
<path fill-rule="evenodd" clip-rule="evenodd" d="M281.298 90.9002H281.413L280.037 98.5922V98.7072H275.961V98.537L276.591 95.2063H276.706V95.3811H274.411V95.2063L274.581 95.2661L272.92 104.734H272.805V104.564H274.696V104.734L273.895 109.1V109.215H262.357V109.04L263.163 104.679V104.564H265.053V104.734L264.938 104.679L266.548 95.2063H266.719V95.3811H264.483V95.2063L264.593 95.2661L263.963 98.5922V98.7072H259.947V98.537L261.322 90.73H281.472L281.413 90.9002H281.298V91.075H261.437V90.9002H261.552L260.232 98.5922L260.062 98.537V98.422H263.848V98.537H263.678L264.308 95.2063L264.368 95.0912H266.894L266.834 95.2661L265.228 104.734L265.168 104.849H263.273V104.734H263.448L262.643 109.1L262.528 109.04V108.925H273.78V109.04H273.606L274.411 104.679L274.526 104.734V104.849H272.63V104.679L274.296 95.2063V95.0912H276.881V95.2661L276.246 98.5922L276.131 98.537V98.422H279.922V98.537H279.747L281.127 90.845L281.298 90.9002V91.075V90.9002Z" fill="white"/>
<path fill-rule="evenodd" clip-rule="evenodd" d="M279.521 109.04L280.267 104.734H281.872L283.478 95.2062H281.932L282.677 90.9001H301.733L300.702 96.7014H295.476L295.766 95.2062H291.23L290.77 98.0217H294.675L294.041 101.753H290.08L289.564 104.734H294.041L294.33 103.243H299.552L298.577 109.04H279.521Z" fill="white"/>
<path fill-rule="evenodd" clip-rule="evenodd" d="M279.522 109.04H279.407L280.152 104.564H281.873V104.734L281.703 104.679L283.363 95.2063H283.478V95.3811H281.758L281.818 95.2063L282.563 90.845V90.73H301.908V90.9002L300.873 96.7014V96.8716H295.306L295.361 96.6416L295.651 95.2063H295.766V95.3811H291.23V95.2063L291.345 95.2661L290.885 98.077L290.77 98.0217V97.9067H294.846L294.786 98.077L294.156 101.753V101.863H290.08V101.753H290.255L289.735 104.734H289.565V104.564H294.041V104.734L293.926 104.679L294.216 103.243V103.073H299.727V103.243L298.692 109.1V109.215H279.347L279.407 109.04H279.522V108.925H298.577V109.04H298.407L299.437 103.243H299.552V103.358H294.331V103.243L294.501 103.299L294.216 104.734L294.156 104.849H289.395L289.45 104.679L289.965 101.693V101.578H294.041V101.753L293.871 101.693L294.501 98.0217H294.676V98.192H290.6V98.0217L291.115 95.2063V95.0912H295.937V95.2661L295.651 96.7014H295.476V96.5266H300.703V96.7014H300.588L301.618 90.845L301.733 90.9002V91.075H282.678V90.9002H282.848L282.103 95.2661L281.933 95.2063V95.0912H283.653V95.2661L281.988 104.734V104.849H280.267V104.734H280.437L279.692 109.1L279.522 109.04V108.925V109.04Z" fill="white"/>
<path fill-rule="evenodd" clip-rule="evenodd" d="M312.181 94.8612H314.361C315.797 94.8612 316.487 95.3765 316.487 96.2966C316.487 96.9866 316.202 97.5019 315.567 97.8469C315.051 98.192 314.476 98.307 313.731 98.307H311.55L312.181 94.8612ZM311.146 109.04L311.951 104.734H310.46L310.975 101.633H313.386L316.487 109.04H323.664L324.469 104.734H322.978L320.968 100.543C322.058 100.143 322.918 99.5077 323.608 98.5922C324.354 97.6169 324.699 96.5818 324.699 95.4915C324.699 94.4564 324.354 93.5409 323.664 92.7956C322.858 91.9353 321.423 91.305 319.417 91.075C318.497 90.96 316.892 90.9048 314.596 90.9048H303.518L302.773 95.2108H304.378L302.713 104.738H301.107L300.302 109.044H311.15L311.146 109.04Z" fill="white"/>
<path fill-rule="evenodd" clip-rule="evenodd" d="M312.18 94.8613V94.7462H314.361C315.106 94.7462 315.626 94.8613 316.026 95.0913C316.427 95.3765 316.601 95.7814 316.601 96.2966C316.601 97.0419 316.316 97.6169 315.626 98.0172L315.571 97.847L315.686 98.0172C315.111 98.3024 314.481 98.4772 313.735 98.4772H311.38L311.435 98.307L312.01 94.8613L312.065 94.7462H312.18V94.8613L312.295 94.9165L311.72 98.3622L311.55 98.307V98.192H313.731C314.421 98.192 315.051 98.0218 315.511 97.732C316.086 97.3869 316.316 96.9269 316.316 96.2966C316.316 95.4363 315.741 95.0361 314.366 95.0361H312.185V94.8659L312.18 94.8613ZM311.145 109.04V109.21H311.26L311.315 109.095L312.061 104.734L312.116 104.564H310.451V104.734H310.566L311.141 101.693L310.97 101.638V101.808H313.381V101.638L313.266 101.693L316.307 109.1L316.362 109.215H323.769V109.1L324.574 104.738L324.629 104.568H322.964V104.738L323.134 104.623L321.068 100.492L320.953 100.547L321.009 100.718C322.099 100.317 323.019 99.6274 323.705 98.6521C324.45 97.6767 324.795 96.6416 324.795 95.4961C324.795 94.3506 324.45 93.4857 323.76 92.7404C322.899 91.8203 321.404 91.1901 319.399 90.9048C318.478 90.7898 316.873 90.7346 314.577 90.7346H303.384V90.8496L302.579 95.2109V95.3811H304.36V95.2109H304.245L302.579 104.683L302.694 104.738V104.568H300.974V104.683L300.168 109.045L300.113 109.215H311.136V109.045V108.93H300.288V109.045L300.458 109.1L301.204 104.738H301.089V104.854H302.809L302.864 104.738L304.53 95.2661V95.0959H302.749V95.2109L302.864 95.2661L303.669 90.9048H303.499V91.0751H314.577C316.873 91.0751 318.478 91.1303 319.343 91.2453C321.354 91.4753 322.789 92.0504 323.534 92.9106C324.165 93.6007 324.51 94.461 324.51 95.4915C324.51 96.5818 324.165 97.5571 323.475 98.4772C322.784 99.3973 321.924 100.028 320.894 100.428L320.779 100.483L320.834 100.598L322.844 104.789L322.899 104.844H324.45V104.729L324.28 104.674L323.534 109.035H323.649V108.92H316.473V109.035L316.588 108.98L313.547 101.573L313.491 101.518H310.851V101.633L310.276 104.674V104.844H311.941V104.729L311.771 104.674L311.026 109.035H311.141L311.145 109.04Z" fill="white"/>
<path fill-rule="evenodd" clip-rule="evenodd" d="M327.85 92.7406H328.425C328.885 92.7406 329.055 92.9108 329.055 93.1408C329.055 93.426 328.885 93.6009 328.48 93.6009H327.85V92.7406ZM329.515 94.6912L329.285 94.2311L328.885 94.0011L329.46 93.7159L329.69 93.1408C329.69 92.8556 329.635 92.6256 329.46 92.5105C329.29 92.3955 329.06 92.3403 328.77 92.3403H327.28V95.2662H327.855V94.0609H328.085C328.37 94.0609 328.66 94.2909 328.89 94.8062L329.12 95.2662H329.925L329.525 94.6912H329.515ZM326.59 95.7815C327.105 96.2967 327.795 96.5866 328.54 96.5866C329.345 96.5866 329.975 96.3013 330.551 95.7815C331.066 95.2064 331.356 94.5762 331.356 93.7711C331.356 93.0258 331.07 92.3955 330.551 91.8205C329.975 91.3052 329.345 91.0154 328.54 91.0154C327.735 91.0154 327.105 91.3006 326.53 91.8205C326.014 92.3955 325.725 93.0258 325.725 93.7711C325.725 94.5762 326.01 95.2064 326.585 95.7815H326.59ZM326.935 92.2207C326.474 92.6209 326.304 93.1408 326.304 93.7711C326.304 94.4013 326.474 94.9764 326.935 95.3766C327.395 95.8367 327.91 96.0667 328.54 96.0667C329.17 96.0667 329.69 95.8367 330.146 95.3766C330.606 94.9764 330.836 94.4013 330.836 93.7711C330.836 93.1408 330.606 92.6209 330.146 92.2207C329.686 91.7607 329.17 91.5306 328.54 91.5306C327.91 91.5306 327.39 91.7607 326.935 92.2207Z" fill="white"/>
<path fill-rule="evenodd" clip-rule="evenodd" d="M327.85 92.7404V92.6253H328.425L329 92.7404L329.17 93.1406L329 93.6007L328.485 93.7157H327.74V92.6253H327.855V92.7404H328.025V93.6007H327.855V93.4304H328.485C328.83 93.4304 328.945 93.3706 328.945 93.1452C328.945 92.975 328.83 92.9152 328.43 92.9152H327.855V92.745L327.85 92.7404ZM329.515 94.691L329.686 94.6358V94.5806L329.4 94.1803H329.345L329 93.8951L328.885 94.0101L328.94 94.1251L329.515 93.8951L329.571 93.8399L329.626 93.7847L329.856 93.1544C329.856 92.8692 329.741 92.5793 329.511 92.4091C329.341 92.2389 329.051 92.1791 328.766 92.1791H327.16V95.45H328.02V94.0745H327.85V94.1895H328.08C328.25 94.1895 328.48 94.4195 328.77 94.8796L329 95.3396L329.055 95.4546H330.146L329.976 95.2246L329.69 94.6496L329.52 94.7048L329.405 94.76L329.75 95.3902L329.92 95.2752V95.1602H329.115V95.2752L329.23 95.22L329 94.76C328.715 94.2447 328.425 93.9549 328.08 93.9549H327.735V95.2752H327.85V95.1602H327.275V95.2752H327.39V92.3355H327.275V92.4505H328.766L329.341 92.6207L329.571 93.136H329.686L329.571 93.0808L329.341 93.6559L329.456 93.7111L329.4 93.5408L328.825 93.8859H328.77V94.0561L328.825 94.1113L329.17 94.3965L329.285 94.2263L329.17 94.3413L329.4 94.7416L329.515 94.6864V94.691ZM326.59 95.7813L326.475 95.8963C327.05 96.4714 327.735 96.7566 328.54 96.7566C329.345 96.7566 330.091 96.4714 330.666 95.8963C331.241 95.3212 331.471 94.6312 331.471 93.7709C331.471 92.9658 331.241 92.2803 330.666 91.7053C330.091 91.1302 329.345 90.7852 328.54 90.7852C327.735 90.7852 327.05 91.1302 326.475 91.7053C325.899 92.2803 325.614 92.9658 325.614 93.7709C325.614 94.6312 325.899 95.3212 326.475 95.8963L326.59 95.7813L326.645 95.6663C326.13 95.151 325.899 94.5161 325.899 93.7709C325.899 93.0256 326.13 92.4505 326.645 91.9353C327.16 91.3602 327.795 91.1302 328.54 91.1302C329.285 91.1302 329.916 91.3602 330.436 91.9353C330.951 92.4505 331.241 93.0256 331.241 93.7709C331.241 94.5161 330.955 95.1464 330.436 95.6663C329.92 96.1815 329.285 96.4714 328.54 96.4714C327.795 96.4714 327.165 96.1861 326.645 95.6663L326.59 95.7813ZM326.935 92.2205L327.05 92.3355C327.45 91.8755 327.91 91.7053 328.54 91.7053C329.17 91.7053 329.63 91.8755 330.031 92.3355C330.491 92.7358 330.661 93.1958 330.661 93.7709C330.661 94.4011 330.491 94.8612 330.031 95.2614C329.63 95.7215 329.17 95.8917 328.54 95.8917C327.965 95.8917 327.45 95.7215 327.05 95.2614C326.649 94.8612 326.419 94.4011 326.419 93.7709C326.419 93.1958 326.649 92.7358 327.05 92.3355L326.935 92.2205L326.82 92.1055C326.36 92.5655 326.13 93.1406 326.13 93.7709C326.13 94.4609 326.36 95.036 326.875 95.4915C327.335 95.9515 327.85 96.1815 328.54 96.1815C329.17 96.1815 329.801 95.9515 330.261 95.4915C330.721 95.0314 330.951 94.4563 330.951 93.7709C330.951 93.1406 330.721 92.5655 330.261 92.1055C329.801 91.6454 329.226 91.3602 328.54 91.3602C327.855 91.3602 327.28 91.6454 326.82 92.1055L326.935 92.2205Z" fill="white"/>
</g>
<defs>
<clipPath id="clip0_70_448">
<rect width="270.932" height="19" fill="white" transform="translate(60.5342 90.5)"/>
</clipPath>
</defs>
</svg>
