<svg width="392" height="200" viewBox="0 0 392 200" fill="none" xmlns="http://www.w3.org/2000/svg">
<g clip-path="url(#clip0_70_446)">
<path d="M159.034 96.0319C158.577 97.3641 158.143 98.6276 157.71 99.891C156.662 102.95 155.613 106.008 154.567 109.068C154.501 109.26 154.441 109.393 154.187 109.392C152.143 109.38 150.098 109.386 148.054 109.384C147.984 109.384 147.915 109.37 147.797 109.358C147.845 109.217 147.88 109.097 147.925 108.981C150.242 102.981 152.563 96.9825 154.873 90.9801C154.974 90.719 155.092 90.6243 155.383 90.6262C157.881 90.6406 160.38 90.6339 162.878 90.6349C163.922 90.6349 164.273 90.8768 164.664 91.8438C166.246 95.7478 167.831 99.6509 169.416 103.554C169.464 103.675 169.521 103.793 169.602 103.979C169.697 103.719 169.776 103.516 169.847 103.31C171.262 99.1794 172.676 95.0468 174.099 90.9189C174.138 90.8051 174.288 90.6492 174.388 90.6482C176.527 90.6329 178.666 90.6368 180.849 90.6368C180.814 90.7573 180.793 90.8539 180.759 90.9457C178.424 96.9902 176.087 103.034 173.76 109.081C173.666 109.325 173.538 109.395 173.287 109.394C170.478 109.385 167.668 109.383 164.859 109.397C164.548 109.399 164.429 109.28 164.322 109.015C162.619 104.799 160.907 100.587 159.196 96.3752C159.161 96.2882 159.116 96.205 159.035 96.0347L159.034 96.0319Z" fill="white"/>
<path d="M264.449 90.6483C264.146 91.4354 263.852 92.2015 263.557 92.9666C263.304 93.6237 263.035 94.275 262.802 94.9387C262.707 95.2104 262.572 95.2897 262.286 95.2897C257.373 95.2802 252.461 95.2878 247.548 95.2716C247.164 95.2706 247.003 95.395 246.888 95.7373C246.671 96.3781 246.411 97.0036 246.156 97.6712H261.733C261.426 98.4717 261.133 99.2378 260.838 100.003C260.593 100.637 260.32 101.263 260.11 101.908C259.995 102.261 259.815 102.337 259.466 102.335C255.725 102.321 251.983 102.325 248.242 102.327C247.059 102.327 245.875 102.339 244.692 102.332C244.443 102.33 244.306 102.39 244.217 102.642C243.975 103.325 243.703 103.999 243.421 104.731H258.981C258.923 104.907 258.89 105.029 258.845 105.146C258.343 106.448 257.832 107.748 257.342 109.054C257.247 109.309 257.122 109.394 256.851 109.393C249.679 109.385 242.506 109.387 235.335 109.387H234.957C235.006 109.24 235.037 109.134 235.076 109.031C237.407 102.999 239.74 96.9673 242.064 90.9333C242.151 90.7066 242.255 90.6301 242.5 90.6301C249.707 90.6368 256.916 90.6359 264.123 90.6368C264.218 90.6368 264.313 90.6445 264.448 90.6512L264.449 90.6483Z" fill="white"/>
<path d="M288.363 104.716C287.733 106.347 287.128 107.913 286.516 109.498C286.366 109.498 286.224 109.498 286.082 109.498C281.002 109.498 275.921 109.503 270.841 109.494C269.681 109.492 268.523 109.405 267.404 109.062C266.197 108.692 265.278 108.016 265.052 106.682C264.92 105.904 264.984 105.121 265.228 104.378C265.632 103.143 266.069 101.918 266.539 100.706C267.185 99.038 267.797 97.3499 268.564 95.7365C269.976 92.7611 272.407 91.1189 275.662 90.7191C276.703 90.591 277.757 90.5269 278.805 90.5221C283.658 90.502 288.511 90.5135 293.365 90.5135H293.839C293.758 90.7402 293.697 90.9296 293.625 91.1141C293.131 92.3938 292.626 93.6697 292.148 94.956C292.045 95.2305 291.912 95.3032 291.63 95.3023C287.315 95.2927 283 95.2994 278.684 95.2936C276.633 95.2908 275.078 96.1257 274.27 98.0471C273.62 99.5937 273.041 101.177 272.543 102.778C272.215 103.836 272.698 104.454 273.784 104.634C274.112 104.688 274.448 104.712 274.781 104.712C279.144 104.717 283.507 104.715 287.871 104.715H288.365L288.363 104.716Z" fill="white"/>
<path d="M206.247 109.367C206.102 109.374 205.974 109.384 205.846 109.384C203.814 109.385 201.782 109.379 199.75 109.392C199.444 109.394 199.316 109.315 199.268 108.995C198.865 106.279 198.443 103.567 198.031 100.851C197.824 99.4827 197.629 98.1121 197.417 96.6699C197.306 96.7789 197.223 96.8497 197.152 96.931C193.597 100.996 190.045 105.063 186.483 109.122C186.367 109.254 186.152 109.373 185.983 109.375C183.532 109.391 181.082 109.386 178.632 109.384C178.542 109.384 178.453 109.368 178.295 109.354C178.852 108.75 179.365 108.191 179.882 107.634C184.792 102.348 189.701 97.061 194.616 91.7797C195.321 91.0223 196.173 90.5986 197.25 90.6244C198.779 90.6607 200.31 90.6321 201.84 90.634C202.81 90.6359 203.254 91.0204 203.412 91.9844C204.336 97.6148 205.261 103.245 206.184 108.876C206.209 109.027 206.222 109.181 206.246 109.368L206.247 109.367Z" fill="white"/>
<path d="M143.666 109.365C143.513 109.373 143.397 109.385 143.279 109.385C141.247 109.386 139.215 109.378 137.183 109.395C136.84 109.398 136.744 109.271 136.697 108.96C136.104 104.956 135.501 100.954 134.898 96.9519C134.887 96.8725 134.855 96.7969 134.818 96.6669C134.12 97.4645 133.454 98.2268 132.787 98.989C129.815 102.389 126.842 105.79 123.863 109.184C123.774 109.286 123.608 109.377 123.478 109.378C120.967 109.389 118.457 109.385 115.947 109.384C115.9 109.384 115.854 109.372 115.738 109.356C115.895 109.179 116.02 109.03 116.153 108.888C121.454 103.181 126.752 97.4722 132.058 91.7701C132.753 91.0241 133.597 90.6013 134.661 90.6252C136.19 90.6597 137.72 90.6329 139.251 90.6348C140.251 90.6358 140.7 91.047 140.857 92.0359C141.311 94.865 141.778 97.6912 142.242 100.519C142.708 103.358 143.175 106.197 143.641 109.036C143.656 109.13 143.655 109.225 143.665 109.367L143.666 109.365Z" fill="white"/>
<path d="M219.88 95.437H211.252C211.347 95.1873 211.424 94.9769 211.505 94.7684C211.999 93.4878 212.498 92.2101 212.983 90.9256C213.061 90.7209 213.148 90.6272 213.387 90.6272C221.301 90.6339 229.214 90.6329 237.129 90.6339C237.209 90.6339 237.289 90.6454 237.406 90.654C237.092 91.466 236.787 92.254 236.483 93.0421C236.212 93.7432 235.933 94.4423 235.678 95.1491C235.594 95.3786 235.478 95.4465 235.236 95.4456C232.594 95.436 229.952 95.4446 227.31 95.4322C227.035 95.4312 226.925 95.5211 226.828 95.7708C225.128 100.192 223.414 104.609 221.714 109.03C221.612 109.296 221.493 109.394 221.203 109.392C219.099 109.379 216.995 109.385 214.891 109.384C214.785 109.384 214.679 109.376 214.499 109.367C216.296 104.716 218.079 100.099 219.881 95.436L219.88 95.437Z" fill="white"/>
<path d="M91.1164 109.352C91.4072 108.592 91.6817 107.87 91.96 107.149C93.0532 104.322 94.1502 101.497 95.2357 98.6667C95.3208 98.4439 95.4222 98.354 95.6708 98.354C102.712 98.3607 109.754 98.3597 116.795 98.3607C116.889 98.3607 116.982 98.3731 117.114 98.3827C116.81 99.1736 116.516 99.9397 116.22 100.706C115.95 101.407 115.659 102.101 115.413 102.811C115.31 103.108 115.172 103.205 114.854 103.204C110.192 103.192 105.53 103.202 100.867 103.186C100.477 103.185 100.314 103.312 100.181 103.664C99.5032 105.474 98.7954 107.273 98.102 109.078C98.0351 109.253 97.9815 109.391 97.7415 109.39C95.602 109.38 93.4615 109.384 91.3221 109.382C91.2752 109.382 91.2293 109.369 91.1155 109.352H91.1164Z" fill="white"/>
<path d="M96.3892 95.6465C96.8368 94.5438 97.1792 93.4516 97.709 92.4598C98.3479 91.2643 99.4181 90.6311 100.818 90.6321C107.56 90.635 114.303 90.633 121.044 90.633C121.175 90.633 121.305 90.633 121.466 90.633C121.435 90.7469 121.417 90.8368 121.385 90.92C120.814 92.4005 120.239 93.88 119.672 95.3625C119.597 95.5566 119.522 95.6704 119.274 95.6704C111.731 95.6628 104.188 95.6637 96.6455 95.6637C96.5871 95.6637 96.5288 95.6561 96.3901 95.6465H96.3892Z" fill="white"/>
<path d="M298.486 95.3203C297.147 95.328 296.071 94.2635 296.062 92.9198C296.051 91.5961 297.116 90.5077 298.428 90.5C299.79 90.4924 300.874 91.5339 300.884 92.8614C300.894 94.2386 299.847 95.3127 298.486 95.3203ZM298.483 94.802C299.516 94.7953 300.376 93.9211 300.361 92.892C300.345 91.8467 299.486 91.0079 298.447 91.0232C297.426 91.0375 296.58 91.8945 296.582 92.9092C296.584 93.9393 297.457 94.8087 298.484 94.802H298.483Z" fill="white"/>
<path d="M298.483 94.8019C297.457 94.8086 296.583 93.9392 296.581 92.9092C296.579 91.8944 297.427 91.0375 298.446 91.0232C299.486 91.0079 300.345 91.8466 300.36 92.892C300.375 93.9211 299.515 94.7952 298.482 94.8019H298.483ZM299.06 93.066C299.46 92.9168 299.592 92.5869 299.695 92.2387C299.797 91.8983 299.693 91.7366 299.333 91.7194C298.94 91.7003 298.545 91.7051 298.151 91.7156C298.078 91.7175 297.968 91.7825 297.941 91.8466C297.656 92.5257 297.384 93.2105 297.093 93.9335C297.367 93.8943 297.643 94.0932 297.79 93.7221C297.96 93.2956 298.02 93.2822 298.552 93.4218C298.516 93.5844 298.48 93.7489 298.421 94.0071C298.673 93.9316 298.936 93.9316 299.028 93.8063C299.17 93.6112 299.363 93.3405 299.06 93.0651V93.066Z" fill="white"/>
<path d="M299.06 93.0661C299.363 93.3425 299.17 93.6122 299.027 93.8073C298.936 93.9326 298.672 93.9326 298.421 94.0081C298.478 93.7499 298.515 93.5854 298.552 93.4228C298.02 93.2832 297.959 93.2966 297.79 93.7231C297.641 94.0942 297.366 93.8953 297.092 93.9345C297.384 93.2115 297.656 92.5267 297.941 91.8476C297.967 91.7835 298.078 91.7185 298.151 91.7166C298.544 91.7051 298.939 91.7013 299.332 91.7204C299.693 91.7376 299.796 91.8993 299.695 92.2398C299.59 92.5869 299.458 92.9178 299.06 93.067V93.0661ZM298.18 92.7983C298.805 92.8949 298.959 92.7926 298.99 92.2818C298.43 92.1221 298.379 92.1546 298.18 92.7983Z" fill="white"/>
<path d="M298.18 92.7983C298.379 92.1547 298.431 92.1231 298.99 92.2819C298.958 92.7926 298.804 92.8949 298.18 92.7983Z" fill="white"/>
</g>
<defs>
<clipPath id="clip0_70_446">
<rect width="209.767" height="19" fill="white" transform="translate(91.1165 90.5)"/>
</clipPath>
</defs>
</svg>
