<svg width="392" height="200" viewBox="0 0 392 200" fill="none" xmlns="http://www.w3.org/2000/svg">
<path d="M135.742 92.2695C135.871 90.6947 137.677 89.7761 141.806 89.2511C145.032 88.8574 148.387 88.3325 149.161 88.3325C150.065 88.2013 150.839 88.595 150.839 89.3824C150.839 90.0385 150.581 91.6133 150.194 92.6632C149.677 94.1068 147.613 94.6317 142.452 94.6317C136.387 94.6317 135.355 94.238 135.742 92.2695Z" fill="white"/>
<path d="M250.194 106.574C250.323 105.262 251.742 100.8 253.419 96.7315L256.645 89.3824H266.323C271.613 89.3824 276 89.6448 276 90.0385C276 90.4322 275.742 91.6133 275.355 92.6632C274.839 94.1068 272.774 94.6317 267.613 94.6317C260.645 94.6317 260.516 94.763 257.936 99.8811C256.516 102.768 255.355 105.393 255.355 105.787C255.355 106.18 258.581 106.443 262.452 106.443C269.161 106.443 269.419 106.574 268.258 109.068C267.355 111.036 265.678 111.692 261.807 111.692C258.968 111.692 255.226 111.167 253.419 110.38C251.484 109.592 250.194 108.018 250.194 106.574Z" fill="white"/>
<path d="M131.226 100.669C131.097 99.7499 131.484 98.5688 132.129 98.0438C132.774 97.5189 135.226 97.2564 137.677 97.5189C140.387 97.7814 142.452 98.8312 143.097 100.144C143.613 101.325 143.613 103.949 143.226 106.049C142.323 109.461 141.936 109.724 134.968 109.986C130.839 110.249 127.484 109.855 127.484 109.33C127.484 108.805 128.258 107.624 129.032 106.705C129.936 105.787 132.516 105.131 134.839 105.131C137.29 105.131 139.097 104.474 139.097 103.818C139.097 103.031 137.419 102.506 135.226 102.506C133.032 102.506 131.355 101.718 131.226 100.669Z" fill="white"/>
<path d="M123.226 97.3879C124.645 97.2566 126.581 96.2067 127.484 95.1569C128.258 94.107 130.452 93.3196 132.129 93.3196C134.968 93.3196 135.226 93.7133 134.065 95.9443C133.29 97.3879 131.613 98.569 130.194 98.569C128.774 98.569 127.355 99.0939 126.968 99.8813C126.581 100.669 127.484 101.194 128.903 101.194C130.323 101.194 131.484 101.456 131.484 101.85C131.484 102.244 131.226 103.425 130.839 104.475C130.452 105.524 128.774 106.443 126.968 106.443C125.161 106.443 123.484 107.362 123.097 108.412C122.71 109.461 121.032 110.38 119.226 110.38C117.419 110.38 116 110.118 116 109.724C116 109.33 116.258 108.149 116.645 107.099C117.032 106.049 118.71 105.131 120.516 105.131C122.323 105.131 124 104.606 124.387 103.818C124.774 103.031 123.871 102.506 122.452 102.506C120.731 102.506 120 101.719 120.258 100.144C120.387 98.9627 121.677 97.6503 123.226 97.3879Z" fill="#FF0202"/>
<path d="M150.194 100.275C152.774 94.6318 154.71 89.9074 154.71 89.7762C154.71 89.5137 156.129 89.3825 157.935 89.3825C161.032 89.3825 161.161 89.5137 159.355 93.582C158.452 95.9442 156.258 100.669 154.581 104.212C152.258 108.936 150.71 110.38 148.516 110.38C145.677 110.38 145.677 110.249 150.194 100.275Z" fill="white"/>
<path d="M156 109.724C156 109.33 158.194 104.606 160.774 99.225L165.548 89.3825H192.129L186.968 99.8812C183.097 107.755 181.161 110.38 179.226 110.38C177.806 110.38 176.645 110.118 176.645 109.724C176.645 109.33 178.064 106.18 179.871 102.506C181.677 98.9626 183.097 95.6817 183.097 95.288C183.097 94.8943 182.194 94.6318 181.161 94.6318C180.129 94.6318 177.548 98.1752 175.355 102.506C172.516 108.149 170.71 110.38 168.903 110.38C167.484 110.38 166.323 110.118 166.323 109.724C166.323 109.33 167.742 106.18 169.548 102.506C171.355 98.9626 172.774 95.6817 172.774 95.288C172.774 94.8943 171.871 94.6318 170.839 94.6318C169.677 94.6318 167.355 98.0439 165.419 102.506C162.581 108.936 161.161 110.511 158.968 110.38C157.29 110.38 156 110.118 156 109.724Z" fill="white"/>
<path d="M187.742 107.493C188.258 105.787 190.194 101.062 192.258 96.8628V96.9941C194.71 92.1384 196.774 89.3825 198.194 89.3825C199.742 89.3825 202.065 92.5321 205.29 99.225C208 104.606 210.194 109.33 210.194 109.724C210.194 110.118 208.903 110.38 207.226 110.38C205.032 110.38 203.871 109.068 202.065 104.474C200.903 101.194 199.355 98.5689 198.839 98.5689C198.323 98.5689 196.645 101.194 194.968 104.474C193.032 108.543 191.226 110.38 189.548 110.38C187.484 110.38 187.097 109.724 187.742 107.493Z" fill="white"/>
<path d="M215.484 98.1752C217.032 95.0255 218.839 91.7447 219.484 90.9573C220.344 89.8199 224.602 89.2512 232.258 89.2512C243.226 89.2512 243.613 89.3825 242.452 91.8759C241.29 94.1069 239.871 94.5006 223.097 94.5006L217.935 104.999H224.387C227.871 104.999 230.839 104.474 230.839 103.687C230.839 102.9 229.677 102.375 228.258 102.375C226.065 102.375 225.806 101.981 226.968 99.75C228 97.6502 229.548 97.1253 234.065 97.1253C237.29 97.1253 239.871 97.3878 239.871 97.7815C239.871 98.1752 238.581 101.062 234.065 110.38L223.742 109.986C214.065 109.593 213.419 109.33 213.032 106.705C212.903 104.999 213.935 101.194 215.484 98.1752Z" fill="white"/>
<path d="M237.29 110.249L241.936 99.75C245.936 90.9573 247.226 89.2512 249.677 89.2512C251.355 89.2512 252.774 89.3825 252.774 89.5137C252.774 89.7762 250.71 94.5006 248.258 100.012C244.387 108.805 243.226 110.249 237.29 110.249Z" fill="white"/>
</svg>
